  0
SECTION
  2
HEADER
  9
$ACADVER
  1
AC1027
  9
$ACADMAINTVER
 70
     8
  9
$DWGCODEPAGE
  3
ANSI_1252
  9
$REQUIREDVERSIONS
160
                 0
  9
$LASTSAVEDBY
  1
fiore
  9
$INSBASE
 10
0.0
 20
0.0
 30
0.0
  9
$EXTMIN
 10
1.000000000000000E+20
 20
1.000000000000000E+20
 30
1.000000000000000E+20
  9
$EXTMAX
 10
-1.000000000000000E+20
 20
-1.000000000000000E+20
 30
-1.000000000000000E+20
  9
$LIMMIN
 10
0.0
 20
0.0
  9
$LIMMAX
 10
420.0
 20
297.0
  9
$ORTHOMODE
 70
     0
  9
$REGENMODE
 70
     1
  9
$FILLMODE
 70
     1
  9
$QTEXTMODE
 70
     0
  9
$MIRRTEXT
 70
     0
  9
$LTSCALE
 40
1.0
  9
$ATTMODE
 70
     1
  9
$TEXTSIZE
 40
2.5
  9
$TRACEWID
 40
1.0
  9
$TEXTSTYLE
  7
Standard
  9
$CLAYER
  8
0
  9
$CELTYPE
  6
ByLayer
  9
$CECOLOR
 62
   256
  9
$CELTSCALE
 40
1.0
  9
$DISPSILH
 70
     0
  9
$DIMSCALE
 40
1.0
  9
$DIMASZ
 40
2.5
  9
$DIMEXO
 40
0.625
  9
$DIMDLI
 40
3.75
  9
$DIMRND
 40
0.0
  9
$DIMDLE
 40
0.0
  9
$DIMEXE
 40
1.25
  9
$DIMTP
 40
0.0
  9
$DIMTM
 40
0.0
  9
$DIMTXT
 40
2.5
  9
$DIMCEN
 40
2.5
  9
$DIMTSZ
 40
0.0
  9
$DIMTOL
 70
     0
  9
$DIMLIM
 70
     0
  9
$DIMTIH
 70
     0
  9
$DIMTOH
 70
     0
  9
$DIMSE1
 70
     0
  9
$DIMSE2
 70
     0
  9
$DIMTAD
 70
     1
  9
$DIMZIN
 70
     8
  9
$DIMBLK
  1

  9
$DIMASO
 70
     1
  9
$DIMSHO
 70
     1
  9
$DIMPOST
  1

  9
$DIMAPOST
  1

  9
$DIMALT
 70
     0
  9
$DIMALTD
 70
     3
  9
$DIMALTF
 40
0.03937007874016
  9
$DIMLFAC
 40
1.0
  9
$DIMTOFL
 70
     1
  9
$DIMTVP
 40
0.0
  9
$DIMTIX
 70
     0
  9
$DIMSOXD
 70
     0
  9
$DIMSAH
 70
     0
  9
$DIMBLK1
  1

  9
$DIMBLK2
  1

  9
$DIMSTYLE
  2
ISO-25
  9
$DIMCLRD
 70
     0
  9
$DIMCLRE
 70
     0
  9
$DIMCLRT
 70
     0
  9
$DIMTFAC
 40
1.0
  9
$DIMGAP
 40
0.625
  9
$DIMJUST
 70
     0
  9
$DIMSD1
 70
     0
  9
$DIMSD2
 70
     0
  9
$DIMTOLJ
 70
     0
  9
$DIMTZIN
 70
     8
  9
$DIMALTZ
 70
     0
  9
$DIMALTTZ
 70
     0
  9
$DIMUPT
 70
     0
  9
$DIMDEC
 70
     2
  9
$DIMTDEC
 70
     2
  9
$DIMALTU
 70
     2
  9
$DIMALTTD
 70
     3
  9
$DIMTXSTY
  7
Standard
  9
$DIMAUNIT
 70
     0
  9
$DIMADEC
 70
     0
  9
$DIMALTRND
 40
0.0
  9
$DIMAZIN
 70
     0
  9
$DIMDSEP
 70
    44
  9
$DIMATFIT
 70
     3
  9
$DIMFRAC
 70
     0
  9
$DIMLDRBLK
  1

  9
$DIMLUNIT
 70
     2
  9
$DIMLWD
 70
    -2
  9
$DIMLWE
 70
    -2
  9
$DIMTMOVE
 70
     0
  9
$DIMFXL
 40
1.0
  9
$DIMFXLON
 70
     0
  9
$DIMJOGANG
 40
0.7853981633974483
  9
$DIMTFILL
 70
     0
  9
$DIMTFILLCLR
 70
     0
  9
$DIMARCSYM
 70
     0
  9
$DIMLTYPE
  6

  9
$DIMLTEX1
  6

  9
$DIMLTEX2
  6

  9
$DIMTXTDIRECTION
 70
     0
  9
$LUNITS
 70
     2
  9
$LUPREC
 70
     3
  9
$SKETCHINC
 40
1.0
  9
$FILLETRAD
 40
10.0
  9
$AUNITS
 70
     0
  9
$AUPREC
 70
     0
  9
$MENU
  1
.
  9
$ELEVATION
 40
0.0
  9
$PELEVATION
 40
0.0
  9
$THICKNESS
 40
0.0
  9
$LIMCHECK
 70
     0
  9
$CHAMFERA
 40
10.0
  9
$CHAMFERB
 40
10.0
  9
$CHAMFERC
 40
20.0
  9
$CHAMFERD
 40
0.0
  9
$SKPOLY
 70
     0
  9
$TDCREATE
 40
2455022.679026169
  9
$TDUCREATE
 40
2455022.637359514
  9
$TDUPDATE
 40
2456568.63472221
  9
$TDUUPDATE
 40
2456568.593055556
  9
$TDINDWG
 40
0.0
  9
$TDUSRTIMER
 40
2456568.592662037
  9
$USRTIMER
 70
     1
  9
$ANGBASE
 50
0.0
  9
$ANGDIR
 70
     0
  9
$PDMODE
 70
     0
  9
$PDSIZE
 40
0.0
  9
$PLINEWID
 40
0.0
  9
$SPLFRAME
 70
     0
  9
$SPLINETYPE
 70
     6
  9
$SPLINESEGS
 70
     8
  9
$HANDSEED
  5
542
  9
$SURFTAB1
 70
     6
  9
$SURFTAB2
 70
     6
  9
$SURFTYPE
 70
     6
  9
$SURFU
 70
     6
  9
$SURFV
 70
     6
  9
$UCSBASE
  2

  9
$UCSNAME
  2

  9
$UCSORG
 10
0.0
 20
0.0
 30
0.0
  9
$UCSXDIR
 10
1.0
 20
0.0
 30
0.0
  9
$UCSYDIR
 10
0.0
 20
1.0
 30
0.0
  9
$UCSORTHOREF
  2

  9
$UCSORTHOVIEW
 70
     0
  9
$UCSORGTOP
 10
0.0
 20
0.0
 30
0.0
  9
$UCSORGBOTTOM
 10
0.0
 20
0.0
 30
0.0
  9
$UCSORGLEFT
 10
0.0
 20
0.0
 30
0.0
  9
$UCSORGRIGHT
 10
0.0
 20
0.0
 30
0.0
  9
$UCSORGFRONT
 10
0.0
 20
0.0
 30
0.0
  9
$UCSORGBACK
 10
0.0
 20
0.0
 30
0.0
  9
$PUCSBASE
  2

  9
$PUCSNAME
  2

  9
$PUCSORG
 10
0.0
 20
0.0
 30
0.0
  9
$PUCSXDIR
 10
1.0
 20
0.0
 30
0.0
  9
$PUCSYDIR
 10
0.0
 20
1.0
 30
0.0
  9
$PUCSORTHOREF
  2

  9
$PUCSORTHOVIEW
 70
     0
  9
$PUCSORGTOP
 10
0.0
 20
0.0
 30
0.0
  9
$PUCSORGBOTTOM
 10
0.0
 20
0.0
 30
0.0
  9
$PUCSORGLEFT
 10
0.0
 20
0.0
 30
0.0
  9
$PUCSORGRIGHT
 10
0.0
 20
0.0
 30
0.0
  9
$PUCSORGFRONT
 10
0.0
 20
0.0
 30
0.0
  9
$PUCSORGBACK
 10
0.0
 20
0.0
 30
0.0
  9
$USERI1
 70
     0
  9
$USERI2
 70
     0
  9
$USERI3
 70
     0
  9
$USERI4
 70
     0
  9
$USERI5
 70
     0
  9
$USERR1
 40
0.0
  9
$USERR2
 40
0.0
  9
$USERR3
 40
0.0
  9
$USERR4
 40
0.0
  9
$USERR5
 40
0.0
  9
$WORLDVIEW
 70
     1
  9
$SHADEDGE
 70
     3
  9
$SHADEDIF
 70
    70
  9
$TILEMODE
 70
     1
  9
$MAXACTVP
 70
    64
  9
$PINSBASE
 10
0.0
 20
0.0
 30
0.0
  9
$PLIMCHECK
 70
     0
  9
$PEXTMIN
 10
1.000000000000000E+20
 20
1.000000000000000E+20
 30
1.000000000000000E+20
  9
$PEXTMAX
 10
-1.000000000000000E+20
 20
-1.000000000000000E+20
 30
-1.000000000000000E+20
  9
$PLIMMIN
 10
0.0
 20
0.0
  9
$PLIMMAX
 10
0.0
 20
0.0
  9
$UNITMODE
 70
     0
  9
$VISRETAIN
 70
     1
  9
$PLINEGEN
 70
     0
  9
$PSLTSCALE
 70
     1
  9
$TREEDEPTH
 70
  3020
  9
$CMLSTYLE
  2
Standard
  9
$CMLJUST
 70
     0
  9
$CMLSCALE
 40
20.0
  9
$PROXYGRAPHICS
 70
     1
  9
$MEASUREMENT
 70
     1
  9
$CELWEIGHT
370
    -1
  9
$ENDCAPS
280
     0
  9
$JOINSTYLE
280
     0
  9
$LWDISPLAY
290
     0
  9
$INSUNITS
 70
     4
  9
$HYPERLINKBASE
  1

  9
$STYLESHEET
  1

  9
$XEDIT
290
     1
  9
$CEPSNTYPE
380
     0
  9
$PSTYLEMODE
290
     1
  9
$FINGERPRINTGUID
  2
{EC6BB858-51AA-46EC-B484-6C9CC7AB3E2E}
  9
$VERSIONGUID
  2
{FAEB1C32-E019-11D5-929B-00C0DF256EC4}
  9
$EXTNAMES
290
     1
  9
$PSVPSCALE
 40
0.0
  9
$OLESTARTUP
290
     0
  9
$SORTENTS
280
   127
  9
$INDEXCTL
280
     0
  9
$HIDETEXT
280
     1
  9
$XCLIPFRAME
280
     0
  9
$HALOGAP
280
     0
  9
$OBSCOLOR
 70
   257
  9
$OBSLTYPE
280
     0
  9
$INTERSECTIONDISPLAY
280
     0
  9
$INTERSECTIONCOLOR
 70
   257
  9
$DIMASSOC
280
     2
  9
$PROJECTNAME
  1

  9
$CAMERADISPLAY
290
     0
  9
$LENSLENGTH
 40
50.0
  9
$CAMERAHEIGHT
 40
0.0
  9
$STEPSPERSEC
 40
2.0
  9
$STEPSIZE
 40
6.0
  9
$3DDWFPREC
 40
2.0
  9
$PSOLWIDTH
 40
5.0
  9
$PSOLHEIGHT
 40
80.0
  9
$LOFTANG1
 40
1.570796326794897
  9
$LOFTANG2
 40
1.570796326794897
  9
$LOFTMAG1
 40
0.0
  9
$LOFTMAG2
 40
0.0
  9
$LOFTPARAM
 70
     7
  9
$LOFTNORMALS
280
     1
  9
$LATITUDE
 40
37.795
  9
$LONGITUDE
 40
-122.394
  9
$NORTHDIRECTION
 40
0.0
  9
$TIMEZONE
 70
 -8000
  9
$LIGHTGLYPHDISPLAY
280
     1
  9
$TILEMODELIGHTSYNCH
280
     1
  9
$SOLIDHIST
280
     1
  9
$SHOWHIST
280
     1
  9
$DWFFRAME
280
     2
  9
$DGNFRAME
280
     2
  9
$REALWORLDSCALE
290
     1
  9
$INTERFERECOLOR
 62
   256
  9
$CSHADOW
280
     0
  9
$SHADOWPLANELOCATION
 40
0.0
  0
ENDSEC
  0
SECTION
  2
CLASSES
  0
CLASS
  1
ACDBDICTIONARYWDFLT
  2
AcDbDictionaryWithDefault
  3
ObjectDBX Classes
 90
        0
 91
        5
280
     0
281
     0
  0
CLASS
  1
VISUALSTYLE
  2
AcDbVisualStyle
  3
ObjectDBX Classes
 90
     4095
 91
        5
280
     0
281
     0
  0
CLASS
  1
TABLESTYLE
  2
AcDbTableStyle
  3
ObjectDBX Classes
 90
     4095
 91
        5
280
     0
281
     0
  0
CLASS
  1
DICTIONARYVAR
  2
AcDbDictionaryVar
  3
ObjectDBX Classes
 90
        0
 91
        5
280
     0
281
     0
  0
CLASS
  1
SCALE
  2
AcDbScale
  3
ObjectDBX Classes
 90
     1153
 91
        5
280
     0
281
     0
  0
CLASS
  1
CELLSTYLEMAP
  2
AcDbCellStyleMap
  3
ObjectDBX Classes
 90
     1152
 91
        5
280
     0
281
     0
  0
CLASS
  1
RASTERVARIABLES
  2
AcDbRasterVariables
  3
ISM
 90
        0
 91
        5
280
     0
281
     0
  0
CLASS
  1
MATERIAL
  2
AcDbMaterial
  3
ObjectDBX Classes
 90
     1153
 91
        5
280
     0
281
     0
  0
CLASS
  1
SUN
  2
AcDbSun
  3
SCENEOE
 90
     1153
 91
        5
280
     0
281
     0
  0
ENDSEC
  0
SECTION
  2
TABLES
  0
TABLE
  2
VPORT
  5
8
330
0
100
AcDbSymbolTable
 70
     1
  0
VPORT
  5
29
330
8
100
AcDbSymbolTableRecord
100
AcDbViewportTableRecord
  2
*Active
 70
     0
 10
0.0
 20
0.0
 11
1.0
 21
1.0
 12
344.1869158878504
 22
148.5
 13
0.0
 23
0.0
 14
10.0
 24
10.0
 15
10.0
 25
10.0
 16
0.0
 26
0.0
 36
1.0
 17
-134.1869158878504
 27
0.0
 37
0.0
 40
385.2
 41
1.11214953271028
 42
50.0
 43
0.0
 44
0.0
 50
0.0
 51
0.0
 71
    16
 72
  1000
 73
     1
 74
     3
 75
     0
 76
     0
 77
     0
 78
     0
281
     0
 65
     1
110
0.0
120
0.0
130
0.0
111
1.0
121
0.0
131
0.0
112
0.0
122
1.0
132
0.0
 79
     0
146
0.0
348
2F
 60
     3
 61
     5
292
     1
282
     1
141
0.0
142
0.0
 63
   256
361
80
  0
ENDTAB
  0
TABLE
  2
LTYPE
  5
5
330
0
100
AcDbSymbolTable
 70
     1
  0
LTYPE
  5
14
330
5
100
AcDbSymbolTableRecord
100
AcDbLinetypeTableRecord
  2
ByBlock
 70
     0
  3

 72
    65
 73
     0
 40
0.0
  0
LTYPE
  5
15
330
5
100
AcDbSymbolTableRecord
100
AcDbLinetypeTableRecord
  2
ByLayer
 70
     0
  3

 72
    65
 73
     0
 40
0.0
  0
LTYPE
  5
16
330
5
100
AcDbSymbolTableRecord
100
AcDbLinetypeTableRecord
  2
Continuous
 70
     0
  3
Solid line
 72
    65
 73
     0
 40
0.0
  0
ENDTAB
  0
TABLE
  2
LAYER
  5
2
330
0
100
AcDbSymbolTable
 70
     2
  0
LAYER
  5
10
330
2
100
AcDbSymbolTableRecord
100
AcDbLayerTableRecord
  2
0
 70
     0
 62
     7
  6
Continuous
370
    -3
390
F
347
75
348
0
  0
LAYER
  5
B8
330
2
100
AcDbSymbolTableRecord
100
AcDbLayerTableRecord
  2
TAGLIO
 70
     0
 62
     7
  6
Continuous
370
    -3
390
F
347
75
348
0
1001
ACAECLAYERSTANDARD
1000

1000

  0
ENDTAB
  0
TABLE
  2
STYLE
  5
3
330
0
100
AcDbSymbolTable
 70
     1
  0
STYLE
  5
11
330
3
100
AcDbSymbolTableRecord
100
AcDbTextStyleTableRecord
  2
Standard
 70
     0
 40
0.0
 41
1.0
 50
0.0
 71
     0
 42
2.5
  3
arial.ttf
  4

1001
ACAD
1000
Arial
1071
        0
  0
ENDTAB
  0
TABLE
  2
VIEW
  5
6
330
0
100
AcDbSymbolTable
 70
     0
  0
ENDTAB
  0
TABLE
  2
UCS
  5
7
330
0
100
AcDbSymbolTable
 70
     0
  0
ENDTAB
  0
TABLE
  2
APPID
  5
9
330
0
100
AcDbSymbolTable
 70
     2
  0
APPID
  5
12
330
9
100
AcDbSymbolTableRecord
100
AcDbRegAppTableRecord
  2
ACAD
 70
     0
  0
APPID
  5
BA
330
9
100
AcDbSymbolTableRecord
100
AcDbRegAppTableRecord
  2
ACAECLAYERSTANDARD
 70
     0
  0
ENDTAB
  0
TABLE
  2
DIMSTYLE
  5
A
330
0
100
AcDbSymbolTable
 70
     2
100
AcDbDimStyleTable
  0
DIMSTYLE
105
27
330
A
100
AcDbSymbolTableRecord
100
AcDbDimStyleTableRecord
  2
ISO-25
 70
     0
 41
2.5
 42
0.625
 43
3.75
 44
1.25
 73
     0
 74
     0
 77
     1
 78
     8
140
2.5
141
2.5
143
0.03937007874016
147
0.625
171
     3
172
     1
178
     0
271
     2
272
     2
274
     3
278
    44
283
     0
284
     8
340
11
  0
DIMSTYLE
105
BB
330
A
100
AcDbSymbolTableRecord
100
AcDbDimStyleTableRecord
  2
STANDARD
 70
     0
178
     0
340
11
  0
ENDTAB
  0
TABLE
  2
BLOCK_RECORD
  5
1
330
0
100
AcDbSymbolTable
 70
     2
  0
BLOCK_RECORD
  5
1F
330
1
100
AcDbSymbolTableRecord
100
AcDbBlockTableRecord
  2
*Model_Space
340
22
 70
     0
280
     1
281
     0
  0
BLOCK_RECORD
  5
1B
330
1
100
AcDbSymbolTableRecord
100
AcDbBlockTableRecord
  2
*Paper_Space
340
1E
 70
     0
280
     1
281
     0
  0
BLOCK_RECORD
  5
23
330
1
100
AcDbSymbolTableRecord
100
AcDbBlockTableRecord
  2
*Paper_Space0
340
26
 70
     0
280
     1
281
     0
  0
ENDTAB
  0
ENDSEC
  0
SECTION
  2
BLOCKS
  0
BLOCK
  5
20
330
1F
100
AcDbEntity
  8
0
100
AcDbBlockBegin
  2
*Model_Space
 70
     0
 10
0.0
 20
0.0
 30
0.0
  3
*Model_Space
  1
*Model_Space
  0
ENDBLK
  5
21
330
1F
100
AcDbEntity
  8
0
100
AcDbBlockEnd
  0
BLOCK
  5
1C
330
1B
100
AcDbEntity
 67
     1
  8
0
100
AcDbBlockBegin
  2
*Paper_Space
 70
     0
 10
0.0
 20
0.0
 30
0.0
  3
*Paper_Space
  1
*Paper_Space
  0
ENDBLK
  5
1D
330
1B
100
AcDbEntity
 67
     1
  8
0
100
AcDbBlockEnd
  0
BLOCK
  5
24
330
23
100
AcDbEntity
  8
0
100
AcDbBlockBegin
  2
*Paper_Space0
 70
     0
 10
0.0
 20
0.0
 30
0.0
  3
*Paper_Space0
  1
*Paper_Space0
  0
ENDBLK
  5
25
330
23
100
AcDbEntity
  8
0
100
AcDbBlockEnd
  0
ENDSEC
  0
SECTION
  2
ENTITIES
  0
LWPOLYLINE
  5
30E
330
1F
100
AcDbEntity
  8
TAGLIO
100
AcDbPolyline
 90
        4
 70
     1
 43
0.0
 10
0.0
 20
148.5000000000003
 10
0.0
 20
0.0
 10
209.9999999999985
 20
0.0
 10
209.9999999999985
 20
148.5000000000003
  0
LINE
  5
30F
330
1F
100
AcDbEntity
  8
TAGLIO
100
AcDbLine
 10
158.8952970535352
 20
30.25642955575766
 30
0.0
 11
108.9752970535357
 21
30.25642955575766
 31
0.0
  0
LINE
  5
310
330
1F
100
AcDbEntity
  8
TAGLIO
100
AcDbLine
 10
108.9752970535357
 20
30.25642955575766
 30
0.0
 11
108.9752970535357
 21
33.37642955575767
 31
0.0
  0
LINE
  5
311
330
1F
100
AcDbEntity
  8
TAGLIO
100
AcDbLine
 10
108.9752970535357
 20
33.37642955575767
 30
0.0
 11
158.8952970535352
 21
33.37642955575767
 31
0.0
  0
LINE
  5
312
330
1F
100
AcDbEntity
  8
TAGLIO
100
AcDbLine
 10
158.8952970535352
 20
33.37642955575767
 30
0.0
 11
158.8952970535352
 21
30.25642955575766
 31
0.0
  0
LINE
  5
313
330
1F
100
AcDbEntity
  8
TAGLIO
100
AcDbLine
 10
105.2392000823697
 20
41.59603843955541
 30
0.0
 11
55.31920008236936
 21
41.59603843955541
 31
0.0
  0
LINE
  5
314
330
1F
100
AcDbEntity
  8
TAGLIO
100
AcDbLine
 10
55.31920008236936
 20
41.59603843955541
 30
0.0
 11
55.31920008236936
 21
34.7360384395552
 31
0.0
  0
LINE
  5
315
330
1F
100
AcDbEntity
  8
TAGLIO
100
AcDbLine
 10
55.31920008236936
 20
34.7360384395552
 30
0.0
 11
105.2392000823697
 21
34.7360384395552
 31
0.0
  0
LINE
  5
316
330
1F
100
AcDbEntity
  8
TAGLIO
100
AcDbLine
 10
105.2392000823697
 20
34.7360384395552
 30
0.0
 11
105.2392000823697
 21
41.59603843955541
 31
0.0
  0
LINE
  5
317
330
1F
100
AcDbEntity
  8
TAGLIO
100
AcDbLine
 10
108.7347514038898
 20
2.059157869470667
 30
0.0
 11
158.6547514038901
 21
2.059157869470667
 31
0.0
  0
LINE
  5
318
330
1F
100
AcDbEntity
  8
TAGLIO
100
AcDbLine
 10
108.7347514038898
 20
2.059157869470667
 30
0.0
 11
108.7347514038898
 21
7.51915786947071
 31
0.0
  0
LINE
  5
319
330
1F
100
AcDbEntity
  8
TAGLIO
100
AcDbLine
 10
108.7347514038898
 20
7.51915786947071
 30
0.0
 11
158.6547514038901
 21
7.51915786947071
 31
0.0
  0
LINE
  5
31A
330
1F
100
AcDbEntity
  8
TAGLIO
100
AcDbLine
 10
158.6547514038901
 20
7.51915786947071
 30
0.0
 11
158.6547514038901
 21
2.059157869470667
 31
0.0
  0
LINE
  5
31B
330
1F
100
AcDbEntity
  8
TAGLIO
100
AcDbLine
 10
155.5620690648302
 20
89.15305661243548
 30
0.0
 11
205.4820690648305
 21
89.15305661243548
 31
0.0
  0
LINE
  5
31C
330
1F
100
AcDbEntity
  8
TAGLIO
100
AcDbLine
 10
155.5620690648302
 20
89.15305661243548
 30
0.0
 11
155.5620690648302
 21
97.73305661243559
 31
0.0
  0
LINE
  5
31D
330
1F
100
AcDbEntity
  8
TAGLIO
100
AcDbLine
 10
155.5620690648302
 20
97.73305661243559
 30
0.0
 11
205.4820690648305
 21
97.73305661243559
 31
0.0
  0
LINE
  5
31E
330
1F
100
AcDbEntity
  8
TAGLIO
100
AcDbLine
 10
205.4820690648305
 20
97.73305661243559
 30
0.0
 11
205.4820690648305
 21
89.15305661243548
 31
0.0
  0
LINE
  5
31F
330
1F
100
AcDbEntity
  8
TAGLIO
100
AcDbLine
 10
155.5620690648302
 20
77.9152779643791
 30
0.0
 11
205.4820690648305
 21
77.9152779643791
 31
0.0
  0
LINE
  5
320
330
1F
100
AcDbEntity
  8
TAGLIO
100
AcDbLine
 10
155.5620690648302
 20
77.9152779643791
 30
0.0
 11
155.5620690648302
 21
86.49527796437913
 31
0.0
  0
LINE
  5
321
330
1F
100
AcDbEntity
  8
TAGLIO
100
AcDbLine
 10
155.5620690648302
 20
86.49527796437913
 30
0.0
 11
205.4820690648305
 21
86.49527796437913
 31
0.0
  0
LINE
  5
322
330
1F
100
AcDbEntity
  8
TAGLIO
100
AcDbLine
 10
205.4820690648305
 20
86.49527796437913
 30
0.0
 11
205.4820690648305
 21
77.9152779643791
 31
0.0
  0
LINE
  5
323
330
1F
100
AcDbEntity
  8
TAGLIO
100
AcDbLine
 10
155.5620690648302
 20
67.00481325752821
 30
0.0
 11
205.4820690648305
 21
67.00481325752821
 31
0.0
  0
LINE
  5
324
330
1F
100
AcDbEntity
  8
TAGLIO
100
AcDbLine
 10
155.5620690648302
 20
67.00481325752821
 30
0.0
 11
155.5620690648302
 21
75.58481325752822
 31
0.0
  0
LINE
  5
325
330
1F
100
AcDbEntity
  8
TAGLIO
100
AcDbLine
 10
155.5620690648302
 20
75.58481325752822
 30
0.0
 11
205.4820690648305
 21
75.58481325752822
 31
0.0
  0
LINE
  5
326
330
1F
100
AcDbEntity
  8
TAGLIO
100
AcDbLine
 10
205.4820690648305
 20
75.58481325752822
 30
0.0
 11
205.4820690648305
 21
67.00481325752821
 31
0.0
  0
LINE
  5
327
330
1F
100
AcDbEntity
  8
TAGLIO
100
AcDbLine
 10
111.1075417997563
 20
99.12050534595731
 30
0.0
 11
150.317541799756
 21
99.12050534595731
 31
0.0
  0
LINE
  5
328
330
1F
100
AcDbEntity
  8
TAGLIO
100
AcDbLine
 10
152.3175417997561
 20
97.12050534595723
 30
0.0
 11
152.3175417997561
 21
77.96050534595724
 31
0.0
  0
LINE
  5
329
330
1F
100
AcDbEntity
  8
TAGLIO
100
AcDbLine
 10
150.317541799756
 20
75.96050534595727
 30
0.0
 11
111.1075417997563
 21
75.96050534595727
 31
0.0
  0
LINE
  5
32A
330
1F
100
AcDbEntity
  8
TAGLIO
100
AcDbLine
 10
109.1075417997562
 20
77.96050534595724
 30
0.0
 11
109.1075417997562
 21
97.12050534595723
 31
0.0
  0
ARC
  5
32B
330
1F
100
AcDbEntity
  8
TAGLIO
100
AcDbCircle
 10
150.317541799756
 20
97.12050534595723
 30
0.0
 40
2.0
100
AcDbArc
 50
0.0
 51
90.0
  0
ARC
  5
32C
330
1F
100
AcDbEntity
  8
TAGLIO
100
AcDbCircle
 10
111.1075417997563
 20
97.12050534595723
 30
0.0
 40
2.0
100
AcDbArc
 50
90.0
 51
180.0
  0
ARC
  5
32D
330
1F
100
AcDbEntity
  8
TAGLIO
100
AcDbCircle
 10
111.1075417997563
 20
77.96050534595724
 30
0.0
 40
2.0
100
AcDbArc
 50
180.0
 51
270.0
  0
ARC
  5
32E
330
1F
100
AcDbEntity
  8
TAGLIO
100
AcDbCircle
 10
150.317541799756
 20
77.96050534595724
 30
0.0
 40
2.0
100
AcDbArc
 50
270.0
 51
0.0
  0
LINE
  5
32F
330
1F
100
AcDbEntity
  8
TAGLIO
100
AcDbLine
 10
111.1075417997563
 20
73.95218089175907
 30
0.0
 11
150.317541799756
 21
73.95218089175907
 31
0.0
  0
LINE
  5
330
330
1F
100
AcDbEntity
  8
TAGLIO
100
AcDbLine
 10
152.3175417997561
 20
71.952180891759
 30
0.0
 11
152.3175417997561
 21
52.792180891759
 31
0.0
  0
LINE
  5
331
330
1F
100
AcDbEntity
  8
TAGLIO
100
AcDbLine
 10
150.317541799756
 20
50.792180891759
 30
0.0
 11
111.1075417997563
 21
50.792180891759
 31
0.0
  0
LINE
  5
332
330
1F
100
AcDbEntity
  8
TAGLIO
100
AcDbLine
 10
109.1075417997562
 20
52.792180891759
 30
0.0
 11
109.1075417997562
 21
71.952180891759
 31
0.0
  0
ARC
  5
333
330
1F
100
AcDbEntity
  8
TAGLIO
100
AcDbCircle
 10
150.317541799756
 20
71.952180891759
 30
0.0
 40
2.0
100
AcDbArc
 50
0.0
 51
90.0
  0
ARC
  5
334
330
1F
100
AcDbEntity
  8
TAGLIO
100
AcDbCircle
 10
111.1075417997563
 20
71.952180891759
 30
0.0
 40
2.0
100
AcDbArc
 50
90.0
 51
180.0
  0
ARC
  5
335
330
1F
100
AcDbEntity
  8
TAGLIO
100
AcDbCircle
 10
111.1075417997563
 20
52.792180891759
 30
0.0
 40
2.0
100
AcDbArc
 50
180.0
 51
270.0
  0
ARC
  5
336
330
1F
100
AcDbEntity
  8
TAGLIO
100
AcDbCircle
 10
150.317541799756
 20
52.792180891759
 30
0.0
 40
2.0
100
AcDbArc
 50
270.0
 51
0.0
  0
LINE
  5
337
330
1F
100
AcDbEntity
  8
TAGLIO
100
AcDbLine
 10
142.6207498041906
 20
113.2438159552809
 30
0.0
 11
150.3083366425175
 21
113.2438159552809
 31
0.0
  0
LINE
  5
338
330
1F
100
AcDbEntity
  8
TAGLIO
100
AcDbLine
 10
151.3083366425172
 20
112.243815955281
 30
0.0
 11
151.3083366425172
 21
109.4138159552809
 31
0.0
  0
LINE
  5
339
330
1F
100
AcDbEntity
  8
TAGLIO
100
AcDbLine
 10
150.3083366425175
 20
108.4138159552809
 30
0.0
 11
142.6207498041906
 21
108.413815955281
 31
0.0
  0
LINE
  5
33A
330
1F
100
AcDbEntity
  8
TAGLIO
100
AcDbLine
 10
140.6283366425163
 20
110.828815955281
 30
0.0
 11
142.6207498041906
 21
113.2438159552809
 31
0.0
  0
LINE
  5
33B
330
1F
100
AcDbEntity
  8
TAGLIO
100
AcDbLine
 10
140.6283366425163
 20
110.828815955281
 30
0.0
 11
142.6207498041906
 21
108.413815955281
 31
0.0
  0
ARC
  5
33C
330
1F
100
AcDbEntity
  8
TAGLIO
100
AcDbCircle
 10
150.3083366425175
 20
112.243815955281
 30
0.0
 40
1.0
100
AcDbArc
 50
0.0
 51
90.0
  0
ARC
  5
33D
330
1F
100
AcDbEntity
  8
TAGLIO
100
AcDbCircle
 10
150.3083366425175
 20
109.4138159552809
 30
0.0
 40
1.0
100
AcDbArc
 50
270.0
 51
0.0
  0
LINE
  5
33E
330
1F
100
AcDbEntity
  8
TAGLIO
100
AcDbLine
 10
118.9246417676607
 20
112.2438159552811
 30
0.0
 11
118.9246417676607
 21
109.4138159552809
 31
0.0
  0
LINE
  5
33F
330
1F
100
AcDbEntity
  8
TAGLIO
100
AcDbLine
 10
119.9246417676604
 20
108.413815955281
 30
0.0
 11
126.8146417676611
 21
108.413815955281
 31
0.0
  0
LINE
  5
340
330
1F
100
AcDbEntity
  8
TAGLIO
100
AcDbLine
 10
127.8146417676607
 20
109.4138159552809
 30
0.0
 11
127.8146417676607
 21
112.2438159552811
 31
0.0
  0
LINE
  5
341
330
1F
100
AcDbEntity
  8
TAGLIO
100
AcDbLine
 10
126.8146417676611
 20
113.2438159552811
 30
0.0
 11
119.9246417676604
 21
113.2438159552811
 31
0.0
  0
ARC
  5
342
330
1F
100
AcDbEntity
  8
TAGLIO
100
AcDbCircle
 10
119.9246417676604
 20
112.2438159552811
 30
0.0
 40
1.0
100
AcDbArc
 50
90.0
 51
180.0
  0
ARC
  5
343
330
1F
100
AcDbEntity
  8
TAGLIO
100
AcDbCircle
 10
126.8146417676611
 20
112.2438159552811
 30
0.0
 40
1.0
100
AcDbArc
 50
0.0
 51
90.0
  0
ARC
  5
344
330
1F
100
AcDbEntity
  8
TAGLIO
100
AcDbCircle
 10
126.8146417676611
 20
109.4138159552809
 30
0.0
 40
1.0
100
AcDbArc
 50
270.0
 51
0.0
  0
ARC
  5
345
330
1F
100
AcDbEntity
  8
TAGLIO
100
AcDbCircle
 10
119.9246417676604
 20
109.4138159552809
 30
0.0
 40
1.0
100
AcDbArc
 50
180.0
 51
270.0
  0
LINE
  5
346
330
1F
100
AcDbEntity
  8
TAGLIO
100
AcDbLine
 10
142.6207498041906
 20
106.6975371311704
 30
0.0
 11
150.3083366425175
 21
106.6975371311704
 31
0.0
  0
LINE
  5
347
330
1F
100
AcDbEntity
  8
TAGLIO
100
AcDbLine
 10
151.3083366425172
 20
105.6975371311704
 30
0.0
 11
151.3083366425172
 21
102.8675371311704
 31
0.0
  0
LINE
  5
348
330
1F
100
AcDbEntity
  8
TAGLIO
100
AcDbLine
 10
150.3083366425175
 20
101.8675371311703
 30
0.0
 11
142.6207498041906
 21
101.8675371311706
 31
0.0
  0
LINE
  5
349
330
1F
100
AcDbEntity
  8
TAGLIO
100
AcDbLine
 10
140.6283366425163
 20
104.2825371311703
 30
0.0
 11
142.6207498041906
 21
106.6975371311704
 31
0.0
  0
LINE
  5
34A
330
1F
100
AcDbEntity
  8
TAGLIO
100
AcDbLine
 10
140.6283366425163
 20
104.2825371311703
 30
0.0
 11
142.6207498041906
 21
101.8675371311706
 31
0.0
  0
ARC
  5
34B
330
1F
100
AcDbEntity
  8
TAGLIO
100
AcDbCircle
 10
150.3083366425175
 20
105.6975371311704
 30
0.0
 40
1.0
100
AcDbArc
 50
0.0
 51
90.0
  0
ARC
  5
34C
330
1F
100
AcDbEntity
  8
TAGLIO
100
AcDbCircle
 10
150.3083366425175
 20
102.8675371311704
 30
0.0
 40
1.0
100
AcDbArc
 50
270.0
 51
0.0
  0
LINE
  5
34D
330
1F
100
AcDbEntity
  8
TAGLIO
100
AcDbLine
 10
118.9246417676607
 20
105.6975371311704
 30
0.0
 11
118.9246417676607
 21
102.8675371311704
 31
0.0
  0
LINE
  5
34E
330
1F
100
AcDbEntity
  8
TAGLIO
100
AcDbLine
 10
119.9246417676604
 20
101.8675371311704
 30
0.0
 11
126.8146417676611
 21
101.8675371311704
 31
0.0
  0
LINE
  5
34F
330
1F
100
AcDbEntity
  8
TAGLIO
100
AcDbLine
 10
127.8146417676607
 20
102.8675371311704
 30
0.0
 11
127.8146417676607
 21
105.6975371311704
 31
0.0
  0
LINE
  5
350
330
1F
100
AcDbEntity
  8
TAGLIO
100
AcDbLine
 10
126.8146417676611
 20
106.6975371311704
 30
0.0
 11
119.9246417676604
 21
106.6975371311704
 31
0.0
  0
ARC
  5
351
330
1F
100
AcDbEntity
  8
TAGLIO
100
AcDbCircle
 10
119.9246417676604
 20
105.6975371311704
 30
0.0
 40
1.0
100
AcDbArc
 50
90.0
 51
180.0
  0
ARC
  5
352
330
1F
100
AcDbEntity
  8
TAGLIO
100
AcDbCircle
 10
126.8146417676611
 20
105.6975371311704
 30
0.0
 40
1.0
100
AcDbArc
 50
0.0
 51
90.0
  0
ARC
  5
353
330
1F
100
AcDbEntity
  8
TAGLIO
100
AcDbCircle
 10
126.8146417676611
 20
102.8675371311704
 30
0.0
 40
1.0
100
AcDbArc
 50
270.0
 51
0.0
  0
ARC
  5
354
330
1F
100
AcDbEntity
  8
TAGLIO
100
AcDbCircle
 10
119.9246417676604
 20
102.8675371311704
 30
0.0
 40
1.0
100
AcDbArc
 50
180.0
 51
270.0
  0
LINE
  5
355
330
1F
100
AcDbEntity
  8
TAGLIO
100
AcDbLine
 10
130.075185956569
 20
112.2438159552811
 30
0.0
 11
130.075185956569
 21
109.4138159552809
 31
0.0
  0
LINE
  5
356
330
1F
100
AcDbEntity
  8
TAGLIO
100
AcDbLine
 10
131.0751859565695
 20
108.413815955281
 30
0.0
 11
137.9651859565701
 21
108.413815955281
 31
0.0
  0
LINE
  5
357
330
1F
100
AcDbEntity
  8
TAGLIO
100
AcDbLine
 10
138.9651859565706
 20
109.4138159552809
 30
0.0
 11
138.9651859565706
 21
112.2438159552811
 31
0.0
  0
LINE
  5
358
330
1F
100
AcDbEntity
  8
TAGLIO
100
AcDbLine
 10
137.9651859565701
 20
113.2438159552811
 30
0.0
 11
131.0751859565695
 21
113.2438159552811
 31
0.0
  0
ARC
  5
359
330
1F
100
AcDbEntity
  8
TAGLIO
100
AcDbCircle
 10
131.0751859565695
 20
112.2438159552811
 30
0.0
 40
1.0
100
AcDbArc
 50
90.0
 51
180.0
  0
ARC
  5
35A
330
1F
100
AcDbEntity
  8
TAGLIO
100
AcDbCircle
 10
137.9651859565701
 20
112.2438159552811
 30
0.0
 40
1.0
100
AcDbArc
 50
0.0
 51
90.0
  0
ARC
  5
35B
330
1F
100
AcDbEntity
  8
TAGLIO
100
AcDbCircle
 10
137.9651859565701
 20
109.4138159552809
 30
0.0
 40
1.0
100
AcDbArc
 50
270.0
 51
0.0
  0
ARC
  5
35C
330
1F
100
AcDbEntity
  8
TAGLIO
100
AcDbCircle
 10
131.0751859565695
 20
109.4138159552809
 30
0.0
 40
1.0
100
AcDbArc
 50
180.0
 51
270.0
  0
LINE
  5
35D
330
1F
100
AcDbEntity
  8
TAGLIO
100
AcDbLine
 10
130.075185956569
 20
105.6975371311704
 30
0.0
 11
130.075185956569
 21
102.8675371311704
 31
0.0
  0
LINE
  5
35E
330
1F
100
AcDbEntity
  8
TAGLIO
100
AcDbLine
 10
131.0751859565695
 20
101.8675371311704
 30
0.0
 11
137.9651859565701
 21
101.8675371311704
 31
0.0
  0
LINE
  5
35F
330
1F
100
AcDbEntity
  8
TAGLIO
100
AcDbLine
 10
138.9651859565706
 20
102.8675371311704
 30
0.0
 11
138.9651859565706
 21
105.6975371311704
 31
0.0
  0
LINE
  5
360
330
1F
100
AcDbEntity
  8
TAGLIO
100
AcDbLine
 10
137.9651859565701
 20
106.6975371311704
 30
0.0
 11
131.0751859565695
 21
106.6975371311704
 31
0.0
  0
ARC
  5
361
330
1F
100
AcDbEntity
  8
TAGLIO
100
AcDbCircle
 10
131.0751859565695
 20
105.6975371311704
 30
0.0
 40
1.0
100
AcDbArc
 50
90.0
 51
180.0
  0
ARC
  5
362
330
1F
100
AcDbEntity
  8
TAGLIO
100
AcDbCircle
 10
137.9651859565701
 20
105.6975371311704
 30
0.0
 40
1.0
100
AcDbArc
 50
0.0
 51
90.0
  0
ARC
  5
363
330
1F
100
AcDbEntity
  8
TAGLIO
100
AcDbCircle
 10
137.9651859565701
 20
102.8675371311704
 30
0.0
 40
1.0
100
AcDbArc
 50
270.0
 51
0.0
  0
ARC
  5
364
330
1F
100
AcDbEntity
  8
TAGLIO
100
AcDbCircle
 10
131.0751859565695
 20
102.8675371311704
 30
0.0
 40
1.0
100
AcDbArc
 50
180.0
 51
270.0
  0
LINE
  5
365
330
1F
100
AcDbEntity
  8
TAGLIO
100
AcDbLine
 10
3.084607102896966
 20
145.7584070757973
 30
0.0
 11
53.00460710289808
 21
145.7584070757973
 31
0.0
  0
LINE
  5
366
330
1F
100
AcDbEntity
  8
TAGLIO
100
AcDbLine
 10
3.084607102896966
 20
145.7584070757973
 30
0.0
 11
3.084607102896966
 21
78.99840707579713
 31
0.0
  0
LINE
  5
367
330
1F
100
AcDbEntity
  8
TAGLIO
100
AcDbLine
 10
3.084607102896966
 20
78.99840707579713
 30
0.0
 11
53.00460710289808
 21
78.99840707579713
 31
0.0
  0
LINE
  5
368
330
1F
100
AcDbEntity
  8
TAGLIO
100
AcDbLine
 10
53.00460710289808
 20
78.99840707579713
 30
0.0
 11
53.00460710289808
 21
145.7584070757973
 31
0.0
  0
LINE
  5
369
330
1F
100
AcDbEntity
  8
TAGLIO
100
AcDbLine
 10
55.56458159444131
 20
145.7243907046056
 30
0.0
 11
105.4845815944416
 21
145.7243907046056
 31
0.0
  0
LINE
  5
36A
330
1F
100
AcDbEntity
  8
TAGLIO
100
AcDbLine
 10
55.56458159444131
 20
145.7243907046056
 30
0.0
 11
55.56458159444131
 21
106.7243907046057
 31
0.0
  0
LINE
  5
36B
330
1F
100
AcDbEntity
  8
TAGLIO
100
AcDbLine
 10
55.56458159444131
 20
106.7243907046057
 30
0.0
 11
105.4845815944416
 21
106.7243907046057
 31
0.0
  0
LINE
  5
36C
330
1F
100
AcDbEntity
  8
TAGLIO
100
AcDbLine
 10
105.4845815944416
 20
106.7243907046057
 30
0.0
 11
105.4845815944416
 21
145.7243907046056
 31
0.0
  0
LINE
  5
36D
330
1F
100
AcDbEntity
  8
TAGLIO
100
AcDbLine
 10
109.6737711736957
 20
129.548030865293
 30
0.0
 11
127.7937711736954
 21
129.548030865293
 31
0.0
  0
LINE
  5
36E
330
1F
100
AcDbEntity
  8
TAGLIO
100
AcDbLine
 10
128.7937711736959
 20
128.5480308652932
 30
0.0
 11
128.7937711736959
 21
123.9180308652933
 31
0.0
  0
LINE
  5
36F
330
1F
100
AcDbEntity
  8
TAGLIO
100
AcDbLine
 10
127.7937711736954
 20
122.9180308652933
 30
0.0
 11
109.6737711736957
 21
122.9180308652933
 31
0.0
  0
LINE
  5
370
330
1F
100
AcDbEntity
  8
TAGLIO
100
AcDbLine
 10
108.6737711736959
 20
123.9180308652933
 30
0.0
 11
108.6737711736959
 21
128.5480308652932
 31
0.0
  0
ARC
  5
371
330
1F
100
AcDbEntity
  8
TAGLIO
100
AcDbCircle
 10
109.6737711736957
 20
123.9180308652933
 30
0.0
 40
1.0
100
AcDbArc
 50
180.0
 51
270.0
  0
ARC
  5
372
330
1F
100
AcDbEntity
  8
TAGLIO
100
AcDbCircle
 10
109.6737711736957
 20
128.5480308652932
 30
0.0
 40
1.0
100
AcDbArc
 50
90.0
 51
180.0
  0
ARC
  5
373
330
1F
100
AcDbEntity
  8
TAGLIO
100
AcDbCircle
 10
127.7937711736954
 20
128.5480308652932
 30
0.0
 40
1.0
100
AcDbArc
 50
0.0
 51
90.0
  0
ARC
  5
374
330
1F
100
AcDbEntity
  8
TAGLIO
100
AcDbCircle
 10
127.7937711736954
 20
123.9180308652933
 30
0.0
 40
1.0
100
AcDbArc
 50
270.0
 51
0.0
  0
LINE
  5
375
330
1F
100
AcDbEntity
  8
TAGLIO
100
AcDbLine
 10
132.1075414826136
 20
129.548030865293
 30
0.0
 11
150.2275414826134
 21
129.548030865293
 31
0.0
  0
LINE
  5
376
330
1F
100
AcDbEntity
  8
TAGLIO
100
AcDbLine
 10
151.2275414826139
 20
128.5480308652932
 30
0.0
 11
151.2275414826139
 21
123.9180308652933
 31
0.0
  0
LINE
  5
377
330
1F
100
AcDbEntity
  8
TAGLIO
100
AcDbLine
 10
150.2275414826134
 20
122.9180308652933
 30
0.0
 11
132.1075414826136
 21
122.9180308652933
 31
0.0
  0
LINE
  5
378
330
1F
100
AcDbEntity
  8
TAGLIO
100
AcDbLine
 10
131.1075414826139
 20
123.9180308652933
 30
0.0
 11
131.1075414826139
 21
128.5480308652932
 31
0.0
  0
ARC
  5
379
330
1F
100
AcDbEntity
  8
TAGLIO
100
AcDbCircle
 10
132.1075414826136
 20
123.9180308652933
 30
0.0
 40
1.0
100
AcDbArc
 50
180.0
 51
270.0
  0
ARC
  5
37A
330
1F
100
AcDbEntity
  8
TAGLIO
100
AcDbCircle
 10
132.1075414826136
 20
128.5480308652932
 30
0.0
 40
1.0
100
AcDbArc
 50
90.0
 51
180.0
  0
ARC
  5
37B
330
1F
100
AcDbEntity
  8
TAGLIO
100
AcDbCircle
 10
150.2275414826134
 20
128.5480308652932
 30
0.0
 40
1.0
100
AcDbArc
 50
0.0
 51
90.0
  0
ARC
  5
37C
330
1F
100
AcDbEntity
  8
TAGLIO
100
AcDbCircle
 10
150.2275414826134
 20
123.9180308652933
 30
0.0
 40
1.0
100
AcDbArc
 50
270.0
 51
0.0
  0
LINE
  5
37D
330
1F
100
AcDbEntity
  8
TAGLIO
100
AcDbLine
 10
109.6040811712516
 20
145.8918897114303
 30
0.0
 11
127.7240811712513
 21
145.8918897114303
 31
0.0
  0
LINE
  5
37E
330
1F
100
AcDbEntity
  8
TAGLIO
100
AcDbLine
 10
128.7240811712518
 20
144.8918897114306
 30
0.0
 11
128.7240811712518
 21
140.2618897114304
 31
0.0
  0
LINE
  5
37F
330
1F
100
AcDbEntity
  8
TAGLIO
100
AcDbLine
 10
127.7240811712513
 20
139.2618897114303
 30
0.0
 11
109.6040811712516
 21
139.2618897114303
 31
0.0
  0
LINE
  5
380
330
1F
100
AcDbEntity
  8
TAGLIO
100
AcDbLine
 10
108.6040811712519
 20
140.2618897114304
 30
0.0
 11
108.6040811712519
 21
144.8918897114306
 31
0.0
  0
ARC
  5
381
330
1F
100
AcDbEntity
  8
TAGLIO
100
AcDbCircle
 10
109.6040811712516
 20
140.2618897114304
 30
0.0
 40
1.0
100
AcDbArc
 50
180.0
 51
270.0
  0
ARC
  5
382
330
1F
100
AcDbEntity
  8
TAGLIO
100
AcDbCircle
 10
109.6040811712516
 20
144.8918897114306
 30
0.0
 40
1.0
100
AcDbArc
 50
90.0
 51
180.0
  0
ARC
  5
383
330
1F
100
AcDbEntity
  8
TAGLIO
100
AcDbCircle
 10
127.7240811712513
 20
144.8918897114306
 30
0.0
 40
1.0
100
AcDbArc
 50
0.0
 51
90.0
  0
ARC
  5
384
330
1F
100
AcDbEntity
  8
TAGLIO
100
AcDbCircle
 10
127.7240811712513
 20
140.2618897114304
 30
0.0
 40
1.0
100
AcDbArc
 50
270.0
 51
0.0
  0
LINE
  5
385
330
1F
100
AcDbEntity
  8
TAGLIO
100
AcDbLine
 10
132.0378514801696
 20
145.8918897114303
 30
0.0
 11
150.1578514801693
 21
145.8918897114303
 31
0.0
  0
LINE
  5
386
330
1F
100
AcDbEntity
  8
TAGLIO
100
AcDbLine
 10
151.1578514801699
 20
144.8918897114306
 30
0.0
 11
151.1578514801699
 21
140.2618897114304
 31
0.0
  0
LINE
  5
387
330
1F
100
AcDbEntity
  8
TAGLIO
100
AcDbLine
 10
150.1578514801693
 20
139.2618897114303
 30
0.0
 11
132.0378514801696
 21
139.2618897114303
 31
0.0
  0
LINE
  5
388
330
1F
100
AcDbEntity
  8
TAGLIO
100
AcDbLine
 10
131.0378514801699
 20
140.2618897114304
 30
0.0
 11
131.0378514801699
 21
144.8918897114306
 31
0.0
  0
ARC
  5
389
330
1F
100
AcDbEntity
  8
TAGLIO
100
AcDbCircle
 10
132.0378514801696
 20
140.2618897114304
 30
0.0
 40
1.0
100
AcDbArc
 50
180.0
 51
270.0
  0
ARC
  5
38A
330
1F
100
AcDbEntity
  8
TAGLIO
100
AcDbCircle
 10
132.0378514801696
 20
144.8918897114306
 30
0.0
 40
1.0
100
AcDbArc
 50
90.0
 51
180.0
  0
ARC
  5
38B
330
1F
100
AcDbEntity
  8
TAGLIO
100
AcDbCircle
 10
150.1578514801693
 20
144.8918897114306
 30
0.0
 40
1.0
100
AcDbArc
 50
0.0
 51
90.0
  0
ARC
  5
38C
330
1F
100
AcDbEntity
  8
TAGLIO
100
AcDbCircle
 10
150.1578514801693
 20
140.2618897114304
 30
0.0
 40
1.0
100
AcDbArc
 50
270.0
 51
0.0
  0
LINE
  5
38D
330
1F
100
AcDbEntity
  8
TAGLIO
100
AcDbLine
 10
109.6040811712516
 20
137.5311541578353
 30
0.0
 11
127.7240811712513
 21
137.5311541578353
 31
0.0
  0
LINE
  5
38E
330
1F
100
AcDbEntity
  8
TAGLIO
100
AcDbLine
 10
128.7240811712518
 20
136.5311541578353
 30
0.0
 11
128.7240811712518
 21
131.9011541578352
 31
0.0
  0
LINE
  5
38F
330
1F
100
AcDbEntity
  8
TAGLIO
100
AcDbLine
 10
127.7240811712513
 20
130.9011541578352
 30
0.0
 11
109.6040811712516
 21
130.9011541578352
 31
0.0
  0
LINE
  5
390
330
1F
100
AcDbEntity
  8
TAGLIO
100
AcDbLine
 10
108.6040811712519
 20
131.9011541578352
 30
0.0
 11
108.6040811712519
 21
136.5311541578353
 31
0.0
  0
ARC
  5
391
330
1F
100
AcDbEntity
  8
TAGLIO
100
AcDbCircle
 10
109.6040811712516
 20
131.9011541578352
 30
0.0
 40
1.0
100
AcDbArc
 50
180.0
 51
270.0
  0
ARC
  5
392
330
1F
100
AcDbEntity
  8
TAGLIO
100
AcDbCircle
 10
109.6040811712516
 20
136.5311541578353
 30
0.0
 40
1.0
100
AcDbArc
 50
90.0
 51
180.0
  0
ARC
  5
393
330
1F
100
AcDbEntity
  8
TAGLIO
100
AcDbCircle
 10
127.7240811712513
 20
136.5311541578353
 30
0.0
 40
1.0
100
AcDbArc
 50
0.0
 51
90.0
  0
ARC
  5
394
330
1F
100
AcDbEntity
  8
TAGLIO
100
AcDbCircle
 10
127.7240811712513
 20
131.9011541578352
 30
0.0
 40
1.0
100
AcDbArc
 50
270.0
 51
0.0
  0
LINE
  5
395
330
1F
100
AcDbEntity
  8
TAGLIO
100
AcDbLine
 10
132.0378514801696
 20
137.5311541578353
 30
0.0
 11
150.1578514801693
 21
137.5311541578353
 31
0.0
  0
LINE
  5
396
330
1F
100
AcDbEntity
  8
TAGLIO
100
AcDbLine
 10
151.1578514801699
 20
136.5311541578353
 30
0.0
 11
151.1578514801699
 21
131.9011541578352
 31
0.0
  0
LINE
  5
397
330
1F
100
AcDbEntity
  8
TAGLIO
100
AcDbLine
 10
150.1578514801693
 20
130.9011541578352
 30
0.0
 11
132.0378514801696
 21
130.9011541578352
 31
0.0
  0
LINE
  5
398
330
1F
100
AcDbEntity
  8
TAGLIO
100
AcDbLine
 10
131.0378514801699
 20
131.9011541578352
 30
0.0
 11
131.0378514801699
 21
136.5311541578353
 31
0.0
  0
ARC
  5
399
330
1F
100
AcDbEntity
  8
TAGLIO
100
AcDbCircle
 10
132.0378514801696
 20
131.9011541578352
 30
0.0
 40
1.0
100
AcDbArc
 50
180.0
 51
270.0
  0
ARC
  5
39A
330
1F
100
AcDbEntity
  8
TAGLIO
100
AcDbCircle
 10
132.0378514801696
 20
136.5311541578353
 30
0.0
 40
1.0
100
AcDbArc
 50
90.0
 51
180.0
  0
ARC
  5
39B
330
1F
100
AcDbEntity
  8
TAGLIO
100
AcDbCircle
 10
150.1578514801693
 20
136.5311541578353
 30
0.0
 40
1.0
100
AcDbArc
 50
0.0
 51
90.0
  0
ARC
  5
39C
330
1F
100
AcDbEntity
  8
TAGLIO
100
AcDbCircle
 10
150.1578514801693
 20
131.9011541578352
 30
0.0
 40
1.0
100
AcDbArc
 50
270.0
 51
0.0
  0
LINE
  5
39D
330
1F
100
AcDbEntity
  8
TAGLIO
100
AcDbLine
 10
56.57696398869003
 20
105.4213251172122
 30
0.0
 11
77.6569639886902
 21
105.4213251172122
 31
0.0
  0
LINE
  5
39E
330
1F
100
AcDbEntity
  8
TAGLIO
100
AcDbLine
 10
78.6569639886907
 20
104.4213251172122
 30
0.0
 11
78.6569639886907
 21
101.0413251172124
 31
0.0
  0
LINE
  5
39F
330
1F
100
AcDbEntity
  8
TAGLIO
100
AcDbLine
 10
77.6569639886902
 20
100.0413251172124
 30
0.0
 11
56.57696398869003
 21
100.0413251172124
 31
0.0
  0
LINE
  5
3A0
330
1F
100
AcDbEntity
  8
TAGLIO
100
AcDbLine
 10
55.57696398869034
 20
101.0413251172124
 30
0.0
 11
55.57696398869034
 21
104.4213251172122
 31
0.0
  0
ARC
  5
3A1
330
1F
100
AcDbEntity
  8
TAGLIO
100
AcDbCircle
 10
56.57696398869003
 20
104.4213251172122
 30
0.0
 40
1.0
100
AcDbArc
 50
90.0
 51
180.0
  0
ARC
  5
3A2
330
1F
100
AcDbEntity
  8
TAGLIO
100
AcDbCircle
 10
56.57696398869003
 20
101.0413251172124
 30
0.0
 40
1.0
100
AcDbArc
 50
180.0
 51
270.0
  0
ARC
  5
3A3
330
1F
100
AcDbEntity
  8
TAGLIO
100
AcDbCircle
 10
77.6569639886902
 20
104.4213251172122
 30
0.0
 40
1.0
100
AcDbArc
 50
0.0
 51
90.0
  0
ARC
  5
3A4
330
1F
100
AcDbEntity
  8
TAGLIO
100
AcDbCircle
 10
77.6569639886902
 20
101.0413251172124
 30
0.0
 40
1.0
100
AcDbArc
 50
270.0
 51
0.0
  0
LINE
  5
3A5
330
1F
100
AcDbEntity
  8
TAGLIO
100
AcDbLine
 10
83.5116893475907
 20
105.4213251172122
 30
0.0
 11
104.59168934759
 21
105.4213251172122
 31
0.0
  0
LINE
  5
3A6
330
1F
100
AcDbEntity
  8
TAGLIO
100
AcDbLine
 10
105.5916893475905
 20
104.4213251172122
 30
0.0
 11
105.5916893475905
 21
101.0413251172124
 31
0.0
  0
LINE
  5
3A7
330
1F
100
AcDbEntity
  8
TAGLIO
100
AcDbLine
 10
104.59168934759
 20
100.0413251172124
 30
0.0
 11
83.5116893475907
 21
100.0413251172124
 31
0.0
  0
LINE
  5
3A8
330
1F
100
AcDbEntity
  8
TAGLIO
100
AcDbLine
 10
82.51168934759018
 20
101.0413251172124
 30
0.0
 11
82.51168934759018
 21
104.4213251172122
 31
0.0
  0
ARC
  5
3A9
330
1F
100
AcDbEntity
  8
TAGLIO
100
AcDbCircle
 10
83.5116893475907
 20
104.4213251172122
 30
0.0
 40
1.0
100
AcDbArc
 50
90.0
 51
180.0
  0
ARC
  5
3AA
330
1F
100
AcDbEntity
  8
TAGLIO
100
AcDbCircle
 10
83.5116893475907
 20
101.0413251172124
 30
0.0
 40
1.0
100
AcDbArc
 50
180.0
 51
270.0
  0
ARC
  5
3AB
330
1F
100
AcDbEntity
  8
TAGLIO
100
AcDbCircle
 10
104.59168934759
 20
104.4213251172122
 30
0.0
 40
1.0
100
AcDbArc
 50
0.0
 51
90.0
  0
ARC
  5
3AC
330
1F
100
AcDbEntity
  8
TAGLIO
100
AcDbCircle
 10
104.59168934759
 20
101.0413251172124
 30
0.0
 40
1.0
100
AcDbArc
 50
270.0
 51
0.0
  0
LINE
  5
3AD
330
1F
100
AcDbEntity
  8
TAGLIO
100
AcDbLine
 10
109.858850193647
 20
121.8389787002513
 30
0.0
 11
127.9788501936476
 21
121.8389787002513
 31
0.0
  0
LINE
  5
3AE
330
1F
100
AcDbEntity
  8
TAGLIO
100
AcDbLine
 10
128.9788501936472
 20
120.8389787002514
 30
0.0
 11
128.9788501936472
 21
116.2089787002517
 31
0.0
  0
LINE
  5
3AF
330
1F
100
AcDbEntity
  8
TAGLIO
100
AcDbLine
 10
127.9788501936476
 20
115.2089787002516
 30
0.0
 11
109.858850193647
 21
115.2089787002516
 31
0.0
  0
LINE
  5
3B0
330
1F
100
AcDbEntity
  8
TAGLIO
100
AcDbLine
 10
108.8588501936473
 20
116.2089787002517
 30
0.0
 11
108.8588501936473
 21
120.8389787002514
 31
0.0
  0
ARC
  5
3B1
330
1F
100
AcDbEntity
  8
TAGLIO
100
AcDbCircle
 10
109.858850193647
 20
116.2089787002517
 30
0.0
 40
1.0
100
AcDbArc
 50
180.0
 51
270.0
  0
ARC
  5
3B2
330
1F
100
AcDbEntity
  8
TAGLIO
100
AcDbCircle
 10
109.858850193647
 20
120.8389787002514
 30
0.0
 40
1.0
100
AcDbArc
 50
90.0
 51
180.0
  0
ARC
  5
3B3
330
1F
100
AcDbEntity
  8
TAGLIO
100
AcDbCircle
 10
127.9788501936476
 20
120.8389787002514
 30
0.0
 40
1.0
100
AcDbArc
 50
0.0
 51
90.0
  0
ARC
  5
3B4
330
1F
100
AcDbEntity
  8
TAGLIO
100
AcDbCircle
 10
127.9788501936476
 20
116.2089787002517
 30
0.0
 40
1.0
100
AcDbArc
 50
270.0
 51
0.0
  0
LINE
  5
3B5
330
1F
100
AcDbEntity
  8
TAGLIO
100
AcDbLine
 10
132.292620502565
 20
121.8389787002513
 30
0.0
 11
150.4126205025655
 21
121.8389787002513
 31
0.0
  0
LINE
  5
3B6
330
1F
100
AcDbEntity
  8
TAGLIO
100
AcDbLine
 10
151.4126205025653
 20
120.8389787002514
 30
0.0
 11
151.4126205025653
 21
116.2089787002517
 31
0.0
  0
LINE
  5
3B7
330
1F
100
AcDbEntity
  8
TAGLIO
100
AcDbLine
 10
150.4126205025655
 20
115.2089787002516
 30
0.0
 11
132.292620502565
 21
115.2089787002516
 31
0.0
  0
LINE
  5
3B8
330
1F
100
AcDbEntity
  8
TAGLIO
100
AcDbLine
 10
131.2926205025653
 20
116.2089787002517
 30
0.0
 11
131.2926205025653
 21
120.8389787002514
 31
0.0
  0
ARC
  5
3B9
330
1F
100
AcDbEntity
  8
TAGLIO
100
AcDbCircle
 10
132.292620502565
 20
116.2089787002517
 30
0.0
 40
1.0
100
AcDbArc
 50
180.0
 51
270.0
  0
ARC
  5
3BA
330
1F
100
AcDbEntity
  8
TAGLIO
100
AcDbCircle
 10
132.292620502565
 20
120.8389787002514
 30
0.0
 40
1.0
100
AcDbArc
 50
90.0
 51
180.0
  0
ARC
  5
3BB
330
1F
100
AcDbEntity
  8
TAGLIO
100
AcDbCircle
 10
150.4126205025655
 20
120.8389787002514
 30
0.0
 40
1.0
100
AcDbArc
 50
0.0
 51
90.0
  0
ARC
  5
3BC
330
1F
100
AcDbEntity
  8
TAGLIO
100
AcDbCircle
 10
150.4126205025655
 20
116.2089787002517
 30
0.0
 40
1.0
100
AcDbArc
 50
270.0
 51
0.0
  0
LINE
  5
3BD
330
1F
100
AcDbEntity
  8
TAGLIO
100
AcDbLine
 10
156.4916561430421
 20
146.0403894973452
 30
0.0
 11
197.2316561430426
 21
146.0403894973452
 31
0.0
  0
LINE
  5
3BE
330
1F
100
AcDbEntity
  8
TAGLIO
100
AcDbLine
 10
198.2316561430423
 20
145.0403894973451
 30
0.0
 11
198.2316561430423
 21
139.630389497345
 31
0.0
  0
LINE
  5
3BF
330
1F
100
AcDbEntity
  8
TAGLIO
100
AcDbLine
 10
197.2316561430426
 20
138.6303894973452
 30
0.0
 11
156.4916561430421
 21
138.6303894973452
 31
0.0
  0
LINE
  5
3C0
330
1F
100
AcDbEntity
  8
TAGLIO
100
AcDbLine
 10
155.4916561430424
 20
145.0403894973451
 30
0.0
 11
155.4916561430424
 21
139.630389497345
 31
0.0
  0
ARC
  5
3C1
330
1F
100
AcDbEntity
  8
TAGLIO
100
AcDbCircle
 10
156.4916561430421
 20
145.0403894973451
 30
0.0
 40
1.0
100
AcDbArc
 50
90.0
 51
180.0
  0
ARC
  5
3C2
330
1F
100
AcDbEntity
  8
TAGLIO
100
AcDbCircle
 10
156.4916561430421
 20
139.630389497345
 30
0.0
 40
1.0
100
AcDbArc
 50
180.0
 51
270.0
  0
ARC
  5
3C3
330
1F
100
AcDbEntity
  8
TAGLIO
100
AcDbCircle
 10
197.2316561430426
 20
145.0403894973451
 30
0.0
 40
1.0
100
AcDbArc
 50
0.0
 51
90.0
  0
ARC
  5
3C4
330
1F
100
AcDbEntity
  8
TAGLIO
100
AcDbCircle
 10
197.2316561430426
 20
139.630389497345
 30
0.0
 40
1.0
100
AcDbArc
 50
270.0
 51
0.0
  0
LINE
  5
3C5
330
1F
100
AcDbEntity
  8
TAGLIO
100
AcDbLine
 10
156.4916561430421
 20
136.8930607246406
 30
0.0
 11
197.2316561430426
 21
136.8930607246406
 31
0.0
  0
LINE
  5
3C6
330
1F
100
AcDbEntity
  8
TAGLIO
100
AcDbLine
 10
198.2316561430423
 20
135.8930607246408
 30
0.0
 11
198.2316561430423
 21
130.4830607246406
 31
0.0
  0
LINE
  5
3C7
330
1F
100
AcDbEntity
  8
TAGLIO
100
AcDbLine
 10
197.2316561430426
 20
129.4830607246406
 30
0.0
 11
156.4916561430421
 21
129.4830607246406
 31
0.0
  0
LINE
  5
3C8
330
1F
100
AcDbEntity
  8
TAGLIO
100
AcDbLine
 10
155.4916561430424
 20
135.8930607246408
 30
0.0
 11
155.4916561430424
 21
130.4830607246406
 31
0.0
  0
ARC
  5
3C9
330
1F
100
AcDbEntity
  8
TAGLIO
100
AcDbCircle
 10
156.4916561430421
 20
135.8930607246408
 30
0.0
 40
1.0
100
AcDbArc
 50
90.0
 51
180.0
  0
ARC
  5
3CA
330
1F
100
AcDbEntity
  8
TAGLIO
100
AcDbCircle
 10
156.4916561430421
 20
130.4830607246406
 30
0.0
 40
1.0
100
AcDbArc
 50
180.0
 51
270.0
  0
ARC
  5
3CB
330
1F
100
AcDbEntity
  8
TAGLIO
100
AcDbCircle
 10
197.2316561430426
 20
135.8930607246408
 30
0.0
 40
1.0
100
AcDbArc
 50
0.0
 51
90.0
  0
ARC
  5
3CC
330
1F
100
AcDbEntity
  8
TAGLIO
100
AcDbCircle
 10
197.2316561430426
 20
130.4830607246406
 30
0.0
 40
1.0
100
AcDbArc
 50
270.0
 51
0.0
  0
LINE
  5
3CD
330
1F
100
AcDbEntity
  8
TAGLIO
100
AcDbLine
 10
156.4916561430421
 20
127.5794168833415
 30
0.0
 11
197.2316561430426
 21
127.5794168833415
 31
0.0
  0
LINE
  5
3CE
330
1F
100
AcDbEntity
  8
TAGLIO
100
AcDbLine
 10
198.2316561430423
 20
126.5794168833415
 30
0.0
 11
198.2316561430423
 21
121.1694168833414
 31
0.0
  0
LINE
  5
3CF
330
1F
100
AcDbEntity
  8
TAGLIO
100
AcDbLine
 10
197.2316561430426
 20
120.1694168833413
 30
0.0
 11
156.4916561430421
 21
120.1694168833413
 31
0.0
  0
LINE
  5
3D0
330
1F
100
AcDbEntity
  8
TAGLIO
100
AcDbLine
 10
155.4916561430424
 20
126.5794168833415
 30
0.0
 11
155.4916561430424
 21
121.1694168833414
 31
0.0
  0
ARC
  5
3D1
330
1F
100
AcDbEntity
  8
TAGLIO
100
AcDbCircle
 10
156.4916561430421
 20
126.5794168833415
 30
0.0
 40
1.0
100
AcDbArc
 50
90.0
 51
180.0
  0
ARC
  5
3D2
330
1F
100
AcDbEntity
  8
TAGLIO
100
AcDbCircle
 10
156.4916561430421
 20
121.1694168833414
 30
0.0
 40
1.0
100
AcDbArc
 50
180.0
 51
270.0
  0
ARC
  5
3D3
330
1F
100
AcDbEntity
  8
TAGLIO
100
AcDbCircle
 10
197.2316561430426
 20
126.5794168833415
 30
0.0
 40
1.0
100
AcDbArc
 50
0.0
 51
90.0
  0
ARC
  5
3D4
330
1F
100
AcDbEntity
  8
TAGLIO
100
AcDbCircle
 10
197.2316561430426
 20
121.1694168833414
 30
0.0
 40
1.0
100
AcDbArc
 50
270.0
 51
0.0
  0
LINE
  5
3D5
330
1F
100
AcDbEntity
  8
TAGLIO
100
AcDbLine
 10
156.4916561430421
 20
117.9331429048531
 30
0.0
 11
197.2316561430426
 21
117.9331429048531
 31
0.0
  0
LINE
  5
3D6
330
1F
100
AcDbEntity
  8
TAGLIO
100
AcDbLine
 10
198.2316561430423
 20
116.933142904853
 30
0.0
 11
198.2316561430423
 21
111.5231429048529
 31
0.0
  0
LINE
  5
3D7
330
1F
100
AcDbEntity
  8
TAGLIO
100
AcDbLine
 10
197.2316561430426
 20
110.523142904853
 30
0.0
 11
156.4916561430421
 21
110.523142904853
 31
0.0
  0
LINE
  5
3D8
330
1F
100
AcDbEntity
  8
TAGLIO
100
AcDbLine
 10
155.4916561430424
 20
116.933142904853
 30
0.0
 11
155.4916561430424
 21
111.5231429048529
 31
0.0
  0
ARC
  5
3D9
330
1F
100
AcDbEntity
  8
TAGLIO
100
AcDbCircle
 10
156.4916561430421
 20
116.933142904853
 30
0.0
 40
1.0
100
AcDbArc
 50
90.0
 51
180.0
  0
ARC
  5
3DA
330
1F
100
AcDbEntity
  8
TAGLIO
100
AcDbCircle
 10
156.4916561430421
 20
111.5231429048529
 30
0.0
 40
1.0
100
AcDbArc
 50
180.0
 51
270.0
  0
ARC
  5
3DB
330
1F
100
AcDbEntity
  8
TAGLIO
100
AcDbCircle
 10
197.2316561430426
 20
116.933142904853
 30
0.0
 40
1.0
100
AcDbArc
 50
0.0
 51
90.0
  0
ARC
  5
3DC
330
1F
100
AcDbEntity
  8
TAGLIO
100
AcDbCircle
 10
197.2316561430426
 20
111.5231429048529
 30
0.0
 40
1.0
100
AcDbArc
 50
270.0
 51
0.0
  0
LINE
  5
3DD
330
1F
100
AcDbEntity
  8
TAGLIO
100
AcDbLine
 10
156.4916561430421
 20
108.1205538577699
 30
0.0
 11
197.2316561430426
 21
108.1205538577699
 31
0.0
  0
LINE
  5
3DE
330
1F
100
AcDbEntity
  8
TAGLIO
100
AcDbLine
 10
198.2316561430423
 20
107.1205538577699
 30
0.0
 11
198.2316561430423
 21
101.7105538577698
 31
0.0
  0
LINE
  5
3DF
330
1F
100
AcDbEntity
  8
TAGLIO
100
AcDbLine
 10
197.2316561430426
 20
100.7105538577699
 30
0.0
 11
156.4916561430421
 21
100.7105538577699
 31
0.0
  0
LINE
  5
3E0
330
1F
100
AcDbEntity
  8
TAGLIO
100
AcDbLine
 10
155.4916561430424
 20
107.1205538577699
 30
0.0
 11
155.4916561430424
 21
101.7105538577698
 31
0.0
  0
ARC
  5
3E1
330
1F
100
AcDbEntity
  8
TAGLIO
100
AcDbCircle
 10
156.4916561430421
 20
107.1205538577699
 30
0.0
 40
1.0
100
AcDbArc
 50
90.0
 51
180.0
  0
ARC
  5
3E2
330
1F
100
AcDbEntity
  8
TAGLIO
100
AcDbCircle
 10
156.4916561430421
 20
101.7105538577698
 30
0.0
 40
1.0
100
AcDbArc
 50
180.0
 51
270.0
  0
ARC
  5
3E3
330
1F
100
AcDbEntity
  8
TAGLIO
100
AcDbCircle
 10
197.2316561430426
 20
107.1205538577699
 30
0.0
 40
1.0
100
AcDbArc
 50
0.0
 51
90.0
  0
ARC
  5
3E4
330
1F
100
AcDbEntity
  8
TAGLIO
100
AcDbCircle
 10
197.2316561430426
 20
101.7105538577698
 30
0.0
 40
1.0
100
AcDbArc
 50
270.0
 51
0.0
  0
LINE
  5
3E5
330
1F
100
AcDbEntity
  8
TAGLIO
100
AcDbLine
 10
56.57696398869003
 20
98.26977716764323
 30
0.0
 11
77.6569639886902
 21
98.26977716764323
 31
0.0
  0
LINE
  5
3E6
330
1F
100
AcDbEntity
  8
TAGLIO
100
AcDbLine
 10
78.6569639886907
 20
97.26977716764323
 30
0.0
 11
78.6569639886907
 21
93.8897771676434
 31
0.0
  0
LINE
  5
3E7
330
1F
100
AcDbEntity
  8
TAGLIO
100
AcDbLine
 10
77.6569639886902
 20
92.88977716764332
 30
0.0
 11
56.57696398869003
 21
92.88977716764332
 31
0.0
  0
LINE
  5
3E8
330
1F
100
AcDbEntity
  8
TAGLIO
100
AcDbLine
 10
55.57696398869034
 20
93.8897771676434
 30
0.0
 11
55.57696398869034
 21
97.26977716764323
 31
0.0
  0
ARC
  5
3E9
330
1F
100
AcDbEntity
  8
TAGLIO
100
AcDbCircle
 10
56.57696398869003
 20
97.26977716764323
 30
0.0
 40
1.0
100
AcDbArc
 50
90.0
 51
180.0
  0
ARC
  5
3EA
330
1F
100
AcDbEntity
  8
TAGLIO
100
AcDbCircle
 10
56.57696398869003
 20
93.8897771676434
 30
0.0
 40
1.0
100
AcDbArc
 50
180.0
 51
270.0
  0
ARC
  5
3EB
330
1F
100
AcDbEntity
  8
TAGLIO
100
AcDbCircle
 10
77.6569639886902
 20
97.26977716764323
 30
0.0
 40
1.0
100
AcDbArc
 50
0.0
 51
90.0
  0
ARC
  5
3EC
330
1F
100
AcDbEntity
  8
TAGLIO
100
AcDbCircle
 10
77.6569639886902
 20
93.8897771676434
 30
0.0
 40
1.0
100
AcDbArc
 50
270.0
 51
0.0
  0
LINE
  5
3ED
330
1F
100
AcDbEntity
  8
TAGLIO
100
AcDbLine
 10
83.5116893475907
 20
98.26977716764323
 30
0.0
 11
104.59168934759
 21
98.26977716764323
 31
0.0
  0
LINE
  5
3EE
330
1F
100
AcDbEntity
  8
TAGLIO
100
AcDbLine
 10
105.5916893475905
 20
97.26977716764323
 30
0.0
 11
105.5916893475905
 21
93.8897771676434
 31
0.0
  0
LINE
  5
3EF
330
1F
100
AcDbEntity
  8
TAGLIO
100
AcDbLine
 10
104.59168934759
 20
92.88977716764332
 30
0.0
 11
83.5116893475907
 21
92.88977716764332
 31
0.0
  0
LINE
  5
3F0
330
1F
100
AcDbEntity
  8
TAGLIO
100
AcDbLine
 10
82.51168934759018
 20
93.8897771676434
 30
0.0
 11
82.51168934759018
 21
97.26977716764323
 31
0.0
  0
ARC
  5
3F1
330
1F
100
AcDbEntity
  8
TAGLIO
100
AcDbCircle
 10
83.5116893475907
 20
97.26977716764323
 30
0.0
 40
1.0
100
AcDbArc
 50
90.0
 51
180.0
  0
ARC
  5
3F2
330
1F
100
AcDbEntity
  8
TAGLIO
100
AcDbCircle
 10
83.5116893475907
 20
93.8897771676434
 30
0.0
 40
1.0
100
AcDbArc
 50
180.0
 51
270.0
  0
ARC
  5
3F3
330
1F
100
AcDbEntity
  8
TAGLIO
100
AcDbCircle
 10
104.59168934759
 20
97.26977716764323
 30
0.0
 40
1.0
100
AcDbArc
 50
0.0
 51
90.0
  0
ARC
  5
3F4
330
1F
100
AcDbEntity
  8
TAGLIO
100
AcDbCircle
 10
104.59168934759
 20
93.8897771676434
 30
0.0
 40
1.0
100
AcDbArc
 50
270.0
 51
0.0
  0
LINE
  5
3F5
330
1F
100
AcDbEntity
  8
TAGLIO
100
AcDbLine
 10
56.57696398869003
 20
91.45085935526339
 30
0.0
 11
77.6569639886902
 21
91.45085935526339
 31
0.0
  0
LINE
  5
3F6
330
1F
100
AcDbEntity
  8
TAGLIO
100
AcDbLine
 10
78.6569639886907
 20
90.45085935526349
 30
0.0
 11
78.6569639886907
 21
87.07085935526358
 31
0.0
  0
LINE
  5
3F7
330
1F
100
AcDbEntity
  8
TAGLIO
100
AcDbLine
 10
77.6569639886902
 20
86.07085935526348
 30
0.0
 11
56.57696398869003
 21
86.07085935526348
 31
0.0
  0
LINE
  5
3F8
330
1F
100
AcDbEntity
  8
TAGLIO
100
AcDbLine
 10
55.57696398869034
 20
87.07085935526358
 30
0.0
 11
55.57696398869034
 21
90.45085935526349
 31
0.0
  0
ARC
  5
3F9
330
1F
100
AcDbEntity
  8
TAGLIO
100
AcDbCircle
 10
56.57696398869003
 20
90.45085935526349
 30
0.0
 40
1.0
100
AcDbArc
 50
90.0
 51
180.0
  0
ARC
  5
3FA
330
1F
100
AcDbEntity
  8
TAGLIO
100
AcDbCircle
 10
56.57696398869003
 20
87.07085935526358
 30
0.0
 40
1.0
100
AcDbArc
 50
180.0
 51
270.0
  0
ARC
  5
3FB
330
1F
100
AcDbEntity
  8
TAGLIO
100
AcDbCircle
 10
77.6569639886902
 20
90.45085935526349
 30
0.0
 40
1.0
100
AcDbArc
 50
0.0
 51
90.0
  0
ARC
  5
3FC
330
1F
100
AcDbEntity
  8
TAGLIO
100
AcDbCircle
 10
77.6569639886902
 20
87.07085935526358
 30
0.0
 40
1.0
100
AcDbArc
 50
270.0
 51
0.0
  0
LINE
  5
3FD
330
1F
100
AcDbEntity
  8
TAGLIO
100
AcDbLine
 10
83.5116893475907
 20
91.45085935526339
 30
0.0
 11
104.59168934759
 21
91.45085935526339
 31
0.0
  0
LINE
  5
3FE
330
1F
100
AcDbEntity
  8
TAGLIO
100
AcDbLine
 10
105.5916893475905
 20
90.45085935526349
 30
0.0
 11
105.5916893475905
 21
87.07085935526358
 31
0.0
  0
LINE
  5
3FF
330
1F
100
AcDbEntity
  8
TAGLIO
100
AcDbLine
 10
104.59168934759
 20
86.07085935526348
 30
0.0
 11
83.5116893475907
 21
86.07085935526348
 31
0.0
  0
LINE
  5
400
330
1F
100
AcDbEntity
  8
TAGLIO
100
AcDbLine
 10
82.51168934759018
 20
87.07085935526358
 30
0.0
 11
82.51168934759018
 21
90.45085935526349
 31
0.0
  0
ARC
  5
401
330
1F
100
AcDbEntity
  8
TAGLIO
100
AcDbCircle
 10
83.5116893475907
 20
90.45085935526349
 30
0.0
 40
1.0
100
AcDbArc
 50
90.0
 51
180.0
  0
ARC
  5
402
330
1F
100
AcDbEntity
  8
TAGLIO
100
AcDbCircle
 10
83.5116893475907
 20
87.07085935526358
 30
0.0
 40
1.0
100
AcDbArc
 50
180.0
 51
270.0
  0
ARC
  5
403
330
1F
100
AcDbEntity
  8
TAGLIO
100
AcDbCircle
 10
104.59168934759
 20
90.45085935526349
 30
0.0
 40
1.0
100
AcDbArc
 50
0.0
 51
90.0
  0
ARC
  5
404
330
1F
100
AcDbEntity
  8
TAGLIO
100
AcDbCircle
 10
104.59168934759
 20
87.07085935526358
 30
0.0
 40
1.0
100
AcDbArc
 50
270.0
 51
0.0
  0
LINE
  5
405
330
1F
100
AcDbEntity
  8
TAGLIO
100
AcDbLine
 10
56.57696398869003
 20
84.63194154288365
 30
0.0
 11
77.6569639886902
 21
84.63194154288365
 31
0.0
  0
LINE
  5
406
330
1F
100
AcDbEntity
  8
TAGLIO
100
AcDbLine
 10
78.6569639886907
 20
83.63194154288367
 30
0.0
 11
78.6569639886907
 21
80.25194154288384
 31
0.0
  0
LINE
  5
407
330
1F
100
AcDbEntity
  8
TAGLIO
100
AcDbLine
 10
77.6569639886902
 20
79.25194154288374
 30
0.0
 11
56.57696398869003
 21
79.25194154288374
 31
0.0
  0
LINE
  5
408
330
1F
100
AcDbEntity
  8
TAGLIO
100
AcDbLine
 10
55.57696398869034
 20
80.25194154288384
 30
0.0
 11
55.57696398869034
 21
83.63194154288367
 31
0.0
  0
ARC
  5
409
330
1F
100
AcDbEntity
  8
TAGLIO
100
AcDbCircle
 10
56.57696398869003
 20
83.63194154288367
 30
0.0
 40
1.0
100
AcDbArc
 50
90.0
 51
180.0
  0
ARC
  5
40A
330
1F
100
AcDbEntity
  8
TAGLIO
100
AcDbCircle
 10
56.57696398869003
 20
80.25194154288384
 30
0.0
 40
1.0
100
AcDbArc
 50
180.0
 51
270.0
  0
ARC
  5
40B
330
1F
100
AcDbEntity
  8
TAGLIO
100
AcDbCircle
 10
77.6569639886902
 20
83.63194154288367
 30
0.0
 40
1.0
100
AcDbArc
 50
0.0
 51
90.0
  0
ARC
  5
40C
330
1F
100
AcDbEntity
  8
TAGLIO
100
AcDbCircle
 10
77.6569639886902
 20
80.25194154288384
 30
0.0
 40
1.0
100
AcDbArc
 50
270.0
 51
0.0
  0
LINE
  5
40D
330
1F
100
AcDbEntity
  8
TAGLIO
100
AcDbLine
 10
83.5116893475907
 20
84.63194154288365
 30
0.0
 11
104.59168934759
 21
84.63194154288365
 31
0.0
  0
LINE
  5
40E
330
1F
100
AcDbEntity
  8
TAGLIO
100
AcDbLine
 10
105.5916893475905
 20
83.63194154288367
 30
0.0
 11
105.5916893475905
 21
80.25194154288384
 31
0.0
  0
LINE
  5
40F
330
1F
100
AcDbEntity
  8
TAGLIO
100
AcDbLine
 10
104.59168934759
 20
79.25194154288374
 30
0.0
 11
83.5116893475907
 21
79.25194154288374
 31
0.0
  0
LINE
  5
410
330
1F
100
AcDbEntity
  8
TAGLIO
100
AcDbLine
 10
82.51168934759018
 20
80.25194154288384
 30
0.0
 11
82.51168934759018
 21
83.63194154288367
 31
0.0
  0
ARC
  5
411
330
1F
100
AcDbEntity
  8
TAGLIO
100
AcDbCircle
 10
83.5116893475907
 20
83.63194154288367
 30
0.0
 40
1.0
100
AcDbArc
 50
90.0
 51
180.0
  0
ARC
  5
412
330
1F
100
AcDbEntity
  8
TAGLIO
100
AcDbCircle
 10
83.5116893475907
 20
80.25194154288384
 30
0.0
 40
1.0
100
AcDbArc
 50
180.0
 51
270.0
  0
ARC
  5
413
330
1F
100
AcDbEntity
  8
TAGLIO
100
AcDbCircle
 10
104.59168934759
 20
83.63194154288367
 30
0.0
 40
1.0
100
AcDbArc
 50
0.0
 51
90.0
  0
ARC
  5
414
330
1F
100
AcDbEntity
  8
TAGLIO
100
AcDbCircle
 10
104.59168934759
 20
80.25194154288384
 30
0.0
 40
1.0
100
AcDbArc
 50
270.0
 51
0.0
  0
LINE
  5
415
330
1F
100
AcDbEntity
  8
TAGLIO
100
AcDbLine
 10
5.208656730860444
 20
75.64632779702691
 30
0.0
 11
48.00865673086066
 21
75.64632779702691
 31
0.0
  0
LINE
  5
416
330
1F
100
AcDbEntity
  8
TAGLIO
100
AcDbLine
 10
50.00865673086082
 20
73.64632779702684
 30
0.0
 11
50.00865673086082
 21
68.7863277970268
 31
0.0
  0
LINE
  5
417
330
1F
100
AcDbEntity
  8
TAGLIO
100
AcDbLine
 10
50.00865673086082
 20
68.7863277970268
 30
0.0
 11
3.208656730861078
 21
68.7863277970268
 31
0.0
  0
LINE
  5
418
330
1F
100
AcDbEntity
  8
TAGLIO
100
AcDbLine
 10
3.208656730861078
 20
68.7863277970268
 30
0.0
 11
3.208656730861078
 21
73.64632779702684
 31
0.0
  0
ARC
  5
419
330
1F
100
AcDbEntity
  8
TAGLIO
100
AcDbCircle
 10
5.208656730860444
 20
73.64632779702684
 30
0.0
 40
2.0
100
AcDbArc
 50
90.0
 51
180.0
  0
ARC
  5
41A
330
1F
100
AcDbEntity
  8
TAGLIO
100
AcDbCircle
 10
48.00865673086066
 20
73.64632779702684
 30
0.0
 40
2.0
100
AcDbArc
 50
0.0
 51
90.0
  0
LINE
  5
41B
330
1F
100
AcDbEntity
  8
TAGLIO
100
AcDbLine
 10
5.119376745084164
 20
1.709934329959722
 30
0.0
 11
47.91937674508439
 21
1.709934329959722
 31
0.0
  0
LINE
  5
41C
330
1F
100
AcDbEntity
  8
TAGLIO
100
AcDbLine
 10
49.91937674508375
 20
3.709934329959729
 30
0.0
 11
49.91937674508375
 21
8.569934329959622
 31
0.0
  0
LINE
  5
41D
330
1F
100
AcDbEntity
  8
TAGLIO
100
AcDbLine
 10
49.91937674508375
 20
8.569934329959622
 30
0.0
 11
3.119376745084001
 21
8.569934329959622
 31
0.0
  0
LINE
  5
41E
330
1F
100
AcDbEntity
  8
TAGLIO
100
AcDbLine
 10
3.119376745084001
 20
8.569934329959622
 30
0.0
 11
3.119376745084001
 21
3.709934329959729
 31
0.0
  0
ARC
  5
41F
330
1F
100
AcDbEntity
  8
TAGLIO
100
AcDbCircle
 10
5.119376745084164
 20
3.709934329959729
 30
0.0
 40
2.0
100
AcDbArc
 50
180.0
 51
270.0
  0
ARC
  5
420
330
1F
100
AcDbEntity
  8
TAGLIO
100
AcDbCircle
 10
47.91937674508439
 20
3.709934329959729
 30
0.0
 40
2.0
100
AcDbArc
 50
270.0
 51
0.0
  0
LINE
  5
421
330
1F
100
AcDbEntity
  8
TAGLIO
100
AcDbLine
 10
3.119376745084001
 20
41.67227439790668
 30
0.0
 11
3.119376745084001
 21
34.81227439790676
 31
0.0
  0
LINE
  5
422
330
1F
100
AcDbEntity
  8
TAGLIO
100
AcDbLine
 10
3.119376745084001
 20
34.81227439790676
 30
0.0
 11
49.91937674508375
 21
34.81227439790676
 31
0.0
  0
LINE
  5
423
330
1F
100
AcDbEntity
  8
TAGLIO
100
AcDbLine
 10
49.91937674508375
 20
34.81227439790676
 30
0.0
 11
49.91937674508375
 21
41.67227439790668
 31
0.0
  0
LINE
  5
424
330
1F
100
AcDbEntity
  8
TAGLIO
100
AcDbLine
 10
49.91937674508375
 20
41.67227439790668
 30
0.0
 11
3.119376745084001
 21
41.67227439790668
 31
0.0
  0
LINE
  5
425
330
1F
100
AcDbEntity
  8
TAGLIO
100
AcDbLine
 10
3.119376745084001
 20
33.35304505893275
 30
0.0
 11
3.119376745084001
 21
26.49304505893284
 31
0.0
  0
LINE
  5
426
330
1F
100
AcDbEntity
  8
TAGLIO
100
AcDbLine
 10
3.119376745084001
 20
26.49304505893284
 30
0.0
 11
49.91937674508375
 21
26.49304505893284
 31
0.0
  0
LINE
  5
427
330
1F
100
AcDbEntity
  8
TAGLIO
100
AcDbLine
 10
49.91937674508375
 20
26.49304505893284
 30
0.0
 11
49.91937674508375
 21
33.35304505893275
 31
0.0
  0
LINE
  5
428
330
1F
100
AcDbEntity
  8
TAGLIO
100
AcDbLine
 10
49.91937674508375
 20
33.35304505893275
 30
0.0
 11
3.119376745084001
 21
33.35304505893275
 31
0.0
  0
LINE
  5
429
330
1F
100
AcDbEntity
  8
TAGLIO
100
AcDbLine
 10
3.119376745084001
 20
25.57933895530156
 30
0.0
 11
3.119376745084001
 21
18.71933895530145
 31
0.0
  0
LINE
  5
42A
330
1F
100
AcDbEntity
  8
TAGLIO
100
AcDbLine
 10
3.119376745084001
 20
18.71933895530145
 30
0.0
 11
49.91937674508375
 21
18.71933895530145
 31
0.0
  0
LINE
  5
42B
330
1F
100
AcDbEntity
  8
TAGLIO
100
AcDbLine
 10
49.91937674508375
 20
18.71933895530145
 30
0.0
 11
49.91937674508375
 21
25.57933895530156
 31
0.0
  0
LINE
  5
42C
330
1F
100
AcDbEntity
  8
TAGLIO
100
AcDbLine
 10
49.91937674508375
 20
25.57933895530156
 30
0.0
 11
3.119376745084001
 21
25.57933895530156
 31
0.0
  0
LINE
  5
42D
330
1F
100
AcDbEntity
  8
TAGLIO
100
AcDbLine
 10
5.208656730860444
 20
66.68707189966679
 30
0.0
 11
48.00865673086066
 21
66.68707189966679
 31
0.0
  0
LINE
  5
42E
330
1F
100
AcDbEntity
  8
TAGLIO
100
AcDbLine
 10
50.00865673086082
 20
64.68707189966682
 30
0.0
 11
50.00865673086082
 21
59.82707189966668
 31
0.0
  0
LINE
  5
42F
330
1F
100
AcDbEntity
  8
TAGLIO
100
AcDbLine
 10
50.00865673086082
 20
59.82707189966668
 30
0.0
 11
3.208656730861078
 21
59.82707189966668
 31
0.0
  0
LINE
  5
430
330
1F
100
AcDbEntity
  8
TAGLIO
100
AcDbLine
 10
3.208656730861078
 20
59.82707189966668
 30
0.0
 11
3.208656730861078
 21
64.68707189966682
 31
0.0
  0
ARC
  5
431
330
1F
100
AcDbEntity
  8
TAGLIO
100
AcDbCircle
 10
5.208656730860444
 20
64.68707189966682
 30
0.0
 40
2.0
100
AcDbArc
 50
90.0
 51
180.0
  0
ARC
  5
432
330
1F
100
AcDbEntity
  8
TAGLIO
100
AcDbCircle
 10
48.00865673086066
 20
64.68707189966682
 30
0.0
 40
2.0
100
AcDbArc
 50
0.0
 51
90.0
  0
LINE
  5
433
330
1F
100
AcDbEntity
  8
TAGLIO
100
AcDbLine
 10
5.119376745084164
 20
9.964647763839643
 30
0.0
 11
47.91937674508439
 21
9.964647763839643
 31
0.0
  0
LINE
  5
434
330
1F
100
AcDbEntity
  8
TAGLIO
100
AcDbLine
 10
49.91937674508375
 20
11.96464776383965
 30
0.0
 11
49.91937674508375
 21
16.82464776383955
 31
0.0
  0
LINE
  5
435
330
1F
100
AcDbEntity
  8
TAGLIO
100
AcDbLine
 10
49.91937674508375
 20
16.82464776383955
 30
0.0
 11
3.119376745084001
 21
16.82464776383955
 31
0.0
  0
LINE
  5
436
330
1F
100
AcDbEntity
  8
TAGLIO
100
AcDbLine
 10
3.119376745084001
 20
16.82464776383955
 30
0.0
 11
3.119376745084001
 21
11.96464776383965
 31
0.0
  0
ARC
  5
437
330
1F
100
AcDbEntity
  8
TAGLIO
100
AcDbCircle
 10
5.119376745084164
 20
11.96464776383965
 30
0.0
 40
2.0
100
AcDbArc
 50
180.0
 51
270.0
  0
ARC
  5
438
330
1F
100
AcDbEntity
  8
TAGLIO
100
AcDbCircle
 10
47.91937674508439
 20
11.96464776383965
 30
0.0
 40
2.0
100
AcDbArc
 50
270.0
 51
0.0
  0
LINE
  5
439
330
1F
100
AcDbEntity
  8
TAGLIO
100
AcDbLine
 10
3.119376745084001
 20
58.01756395335717
 30
0.0
 11
3.119376745084001
 21
51.15756395335721
 31
0.0
  0
LINE
  5
43A
330
1F
100
AcDbEntity
  8
TAGLIO
100
AcDbLine
 10
3.119376745084001
 20
51.15756395335721
 30
0.0
 11
49.91937674508375
 21
51.15756395335721
 31
0.0
  0
LINE
  5
43B
330
1F
100
AcDbEntity
  8
TAGLIO
100
AcDbLine
 10
49.91937674508375
 20
51.15756395335721
 30
0.0
 11
49.91937674508375
 21
58.01756395335717
 31
0.0
  0
LINE
  5
43C
330
1F
100
AcDbEntity
  8
TAGLIO
100
AcDbLine
 10
49.91937674508375
 20
58.01756395335717
 30
0.0
 11
3.119376745084001
 21
58.01756395335717
 31
0.0
  0
LINE
  5
43D
330
1F
100
AcDbEntity
  8
TAGLIO
100
AcDbLine
 10
3.119376745084001
 20
49.69833461438326
 30
0.0
 11
3.119376745084001
 21
42.83833461438329
 31
0.0
  0
LINE
  5
43E
330
1F
100
AcDbEntity
  8
TAGLIO
100
AcDbLine
 10
3.119376745084001
 20
42.83833461438329
 30
0.0
 11
49.91937674508375
 21
42.83833461438329
 31
0.0
  0
LINE
  5
43F
330
1F
100
AcDbEntity
  8
TAGLIO
100
AcDbLine
 10
49.91937674508375
 20
42.83833461438329
 30
0.0
 11
49.91937674508375
 21
49.69833461438326
 31
0.0
  0
LINE
  5
440
330
1F
100
AcDbEntity
  8
TAGLIO
100
AcDbLine
 10
49.91937674508375
 20
49.69833461438326
 30
0.0
 11
3.119376745084001
 21
49.69833461438326
 31
0.0
  0
LINE
  5
441
330
1F
100
AcDbEntity
  8
TAGLIO
100
AcDbLine
 10
156.2384928712306
 20
43.91127036228043
 30
0.0
 11
156.2384928712306
 21
46.71965458707444
 31
0.0
  0
LINE
  5
442
330
1F
100
AcDbEntity
  8
TAGLIO
100
AcDbLine
 10
108.9885045569811
 20
46.76489228573216
 30
0.0
 11
108.9885045569811
 21
43.95650806093816
 31
0.0
  0
ARC
  5
443
330
1F
100
AcDbEntity
  8
TAGLIO
100
AcDbCircle
 10
109.9885045569808
 20
46.76489228573216
 30
0.0
 40
1.0
100
AcDbArc
 50
90.0
 51
180.0
  0
ARC
  5
444
330
1F
100
AcDbEntity
  8
TAGLIO
100
AcDbCircle
 10
109.9885045569808
 20
43.95650806093816
 30
0.0
 40
1.0
100
AcDbArc
 50
180.0
 51
270.0
  0
ARC
  5
445
330
1F
100
AcDbEntity
  8
TAGLIO
100
AcDbCircle
 10
155.2384928712309
 20
46.71965458707444
 30
0.0
 40
1.0
100
AcDbArc
 50
0.0
 51
90.0
  0
ARC
  5
446
330
1F
100
AcDbEntity
  8
TAGLIO
100
AcDbCircle
 10
155.2384928712309
 20
43.91127036228043
 30
0.0
 40
1.0
100
AcDbArc
 50
270.0
 51
0.0
  0
LINE
  5
447
330
1F
100
AcDbEntity
  8
TAGLIO
100
AcDbLine
 10
117.5685045569804
 20
47.76489228573215
 30
0.0
 11
117.5685045569804
 21
42.95650806093813
 31
0.0
  0
LWPOLYLINE
  5
448
330
1F
100
AcDbEntity
  8
TAGLIO
100
AcDbPolyline
 90
        4
 70
     1
 43
0.0
 10
118.7853934615898
 20
42.95650806093813
 10
118.7853934615898
 20
47.76489228573215
 10
127.3653934615884
 20
47.76489228573215
 10
127.3653934615884
 20
42.95650806093813
  0
LINE
  5
449
330
1F
100
AcDbEntity
  8
TAGLIO
100
AcDbLine
 10
109.9885045569808
 20
42.95650806093813
 30
0.0
 11
117.5685045569804
 21
42.95650806093813
 31
0.0
  0
LINE
  5
44A
330
1F
100
AcDbEntity
  8
TAGLIO
100
AcDbLine
 10
117.5685045569804
 20
47.76489228573215
 30
0.0
 11
109.9885045569808
 21
47.76489228573215
 31
0.0
  0
LINE
  5
44B
330
1F
100
AcDbEntity
  8
TAGLIO
100
AcDbLine
 10
147.6584928712304
 20
42.9112703622804
 30
0.0
 11
155.2384928712309
 21
42.9112703622804
 31
0.0
  0
LINE
  5
44C
330
1F
100
AcDbEntity
  8
TAGLIO
100
AcDbLine
 10
147.6584928712304
 20
42.9112703622804
 30
0.0
 11
147.6584928712304
 21
47.71965458707447
 31
0.0
  0
LINE
  5
44D
330
1F
100
AcDbEntity
  8
TAGLIO
100
AcDbLine
 10
155.2384928712309
 20
47.71965458707447
 30
0.0
 11
147.6584928712304
 21
47.71965458707447
 31
0.0
  0
LWPOLYLINE
  5
44E
330
1F
100
AcDbEntity
  8
TAGLIO
100
AcDbPolyline
 90
        4
 70
     1
 43
0.0
 10
138.0122188927422
 20
42.9964236774009
 10
138.0122188927422
 20
47.80480790219485
 10
146.5922188927415
 20
47.80480790219485
 10
146.5922188927415
 20
42.9964236774009
  0
LWPOLYLINE
  5
44F
330
1F
100
AcDbEntity
  8
TAGLIO
100
AcDbPolyline
 90
        4
 70
     1
 43
0.0
 10
128.3225647550796
 20
42.95650806093813
 10
128.3225647550796
 20
47.76489228573215
 10
136.902564755079
 20
47.76489228573215
 10
136.902564755079
 20
42.95650806093813
  0
LINE
  5
450
330
1F
100
AcDbEntity
  8
TAGLIO
100
AcDbLine
 10
156.2384928712306
 20
36.92603748130603
 30
0.0
 11
156.2384928712306
 21
39.73442170610004
 31
0.0
  0
LINE
  5
451
330
1F
100
AcDbEntity
  8
TAGLIO
100
AcDbLine
 10
108.9885045569811
 20
39.77965940475775
 30
0.0
 11
108.9885045569811
 21
36.97127517996374
 31
0.0
  0
ARC
  5
452
330
1F
100
AcDbEntity
  8
TAGLIO
100
AcDbCircle
 10
109.9885045569808
 20
39.77965940475775
 30
0.0
 40
1.0
100
AcDbArc
 50
90.0
 51
180.0
  0
ARC
  5
453
330
1F
100
AcDbEntity
  8
TAGLIO
100
AcDbCircle
 10
109.9885045569808
 20
36.97127517996374
 30
0.0
 40
1.0
100
AcDbArc
 50
180.0
 51
270.0
  0
ARC
  5
454
330
1F
100
AcDbEntity
  8
TAGLIO
100
AcDbCircle
 10
155.2384928712309
 20
39.73442170610004
 30
0.0
 40
1.0
100
AcDbArc
 50
0.0
 51
90.0
  0
ARC
  5
455
330
1F
100
AcDbEntity
  8
TAGLIO
100
AcDbCircle
 10
155.2384928712309
 20
36.92603748130603
 30
0.0
 40
1.0
100
AcDbArc
 50
270.0
 51
0.0
  0
LINE
  5
456
330
1F
100
AcDbEntity
  8
TAGLIO
100
AcDbLine
 10
117.5685045569804
 20
40.77965940475777
 30
0.0
 11
117.5685045569804
 21
35.97127517996377
 31
0.0
  0
LWPOLYLINE
  5
457
330
1F
100
AcDbEntity
  8
TAGLIO
100
AcDbPolyline
 90
        4
 70
     1
 43
0.0
 10
118.7853934615898
 20
35.97127517996377
 10
118.7853934615898
 20
40.77965940475777
 10
127.3653934615884
 20
40.77965940475777
 10
127.3653934615884
 20
35.97127517996377
  0
LINE
  5
458
330
1F
100
AcDbEntity
  8
TAGLIO
100
AcDbLine
 10
109.9885045569808
 20
35.97127517996377
 30
0.0
 11
117.5685045569804
 21
35.97127517996377
 31
0.0
  0
LINE
  5
459
330
1F
100
AcDbEntity
  8
TAGLIO
100
AcDbLine
 10
117.5685045569804
 20
40.77965940475777
 30
0.0
 11
109.9885045569808
 21
40.77965940475777
 31
0.0
  0
LINE
  5
45A
330
1F
100
AcDbEntity
  8
TAGLIO
100
AcDbLine
 10
147.6584928712304
 20
35.92603748130604
 30
0.0
 11
155.2384928712309
 21
35.92603748130604
 31
0.0
  0
LINE
  5
45B
330
1F
100
AcDbEntity
  8
TAGLIO
100
AcDbLine
 10
147.6584928712304
 20
35.92603748130604
 30
0.0
 11
147.6584928712304
 21
40.73442170610006
 31
0.0
  0
LINE
  5
45C
330
1F
100
AcDbEntity
  8
TAGLIO
100
AcDbLine
 10
155.2384928712309
 20
40.73442170610006
 30
0.0
 11
147.6584928712304
 21
40.73442170610006
 31
0.0
  0
LWPOLYLINE
  5
45D
330
1F
100
AcDbEntity
  8
TAGLIO
100
AcDbPolyline
 90
        4
 70
     1
 43
0.0
 10
138.0122188927422
 20
36.01119079642648
 10
138.0122188927422
 20
40.81957502122049
 10
146.5922188927415
 20
40.81957502122049
 10
146.5922188927415
 20
36.01119079642648
  0
LWPOLYLINE
  5
45E
330
1F
100
AcDbEntity
  8
TAGLIO
100
AcDbPolyline
 90
        4
 70
     1
 43
0.0
 10
128.3225647550796
 20
35.97127517996377
 10
128.3225647550796
 20
40.77965940475777
 10
136.902564755079
 20
40.77965940475777
 10
136.902564755079
 20
35.97127517996377
  0
LINE
  5
45F
330
1F
100
AcDbEntity
  8
TAGLIO
100
AcDbLine
 10
158.6746635069864
 20
24.64329599068897
 30
0.0
 11
108.7546635069861
 21
24.64329599068897
 31
0.0
  0
LINE
  5
460
330
1F
100
AcDbEntity
  8
TAGLIO
100
AcDbLine
 10
108.7546635069861
 20
24.64329599068897
 30
0.0
 11
108.7546635069861
 21
27.76329599068894
 31
0.0
  0
LINE
  5
461
330
1F
100
AcDbEntity
  8
TAGLIO
100
AcDbLine
 10
108.7546635069861
 20
27.76329599068894
 30
0.0
 11
158.6746635069864
 21
27.76329599068894
 31
0.0
  0
LINE
  5
462
330
1F
100
AcDbEntity
  8
TAGLIO
100
AcDbLine
 10
158.6746635069864
 20
27.76329599068894
 30
0.0
 11
158.6746635069864
 21
24.64329599068897
 31
0.0
  0
LINE
  5
463
330
1F
100
AcDbEntity
  8
TAGLIO
100
AcDbLine
 10
105.0212565683631
 20
33.8242624716729
 30
0.0
 11
55.1012565683627
 21
33.8242624716729
 31
0.0
  0
LINE
  5
464
330
1F
100
AcDbEntity
  8
TAGLIO
100
AcDbLine
 10
55.1012565683627
 20
33.8242624716729
 30
0.0
 11
55.1012565683627
 21
26.9642624716727
 31
0.0
  0
LINE
  5
465
330
1F
100
AcDbEntity
  8
TAGLIO
100
AcDbLine
 10
55.1012565683627
 20
26.9642624716727
 30
0.0
 11
105.0212565683631
 21
26.9642624716727
 31
0.0
  0
LINE
  5
466
330
1F
100
AcDbEntity
  8
TAGLIO
100
AcDbLine
 10
105.0212565683631
 20
26.9642624716727
 30
0.0
 11
105.0212565683631
 21
33.8242624716729
 31
0.0
  0
LINE
  5
467
330
1F
100
AcDbEntity
  8
TAGLIO
100
AcDbLine
 10
105.0212565683631
 20
25.67482411053611
 30
0.0
 11
55.1012565683627
 21
25.67482411053611
 31
0.0
  0
LINE
  5
468
330
1F
100
AcDbEntity
  8
TAGLIO
100
AcDbLine
 10
55.1012565683627
 20
25.67482411053611
 30
0.0
 11
55.1012565683627
 21
18.81482411053589
 31
0.0
  0
LINE
  5
469
330
1F
100
AcDbEntity
  8
TAGLIO
100
AcDbLine
 10
55.1012565683627
 20
18.81482411053589
 30
0.0
 11
105.0212565683631
 21
18.81482411053589
 31
0.0
  0
LINE
  5
46A
330
1F
100
AcDbEntity
  8
TAGLIO
100
AcDbLine
 10
105.0212565683631
 20
18.81482411053589
 30
0.0
 11
105.0212565683631
 21
25.67482411053611
 31
0.0
  0
LINE
  5
46B
330
1F
100
AcDbEntity
  8
TAGLIO
100
AcDbLine
 10
105.0339962791686
 20
17.57041800546428
 30
0.0
 11
55.11399627916906
 21
17.57041800546428
 31
0.0
  0
LINE
  5
46C
330
1F
100
AcDbEntity
  8
TAGLIO
100
AcDbLine
 10
55.11399627916906
 20
17.57041800546428
 30
0.0
 11
55.11399627916906
 21
10.71041800546408
 31
0.0
  0
LINE
  5
46D
330
1F
100
AcDbEntity
  8
TAGLIO
100
AcDbLine
 10
55.11399627916906
 20
10.71041800546408
 30
0.0
 11
105.0339962791686
 21
10.71041800546408
 31
0.0
  0
LINE
  5
46E
330
1F
100
AcDbEntity
  8
TAGLIO
100
AcDbLine
 10
105.0339962791686
 20
10.71041800546408
 30
0.0
 11
105.0339962791686
 21
17.57041800546428
 31
0.0
  0
LINE
  5
46F
330
1F
100
AcDbEntity
  8
TAGLIO
100
AcDbLine
 10
105.1875716369574
 20
8.998284995008284
 30
0.0
 11
55.2675716369579
 21
8.998284995008284
 31
0.0
  0
LINE
  5
470
330
1F
100
AcDbEntity
  8
TAGLIO
100
AcDbLine
 10
55.2675716369579
 20
8.998284995008284
 30
0.0
 11
55.2675716369579
 21
2.138284995008078
 31
0.0
  0
LINE
  5
471
330
1F
100
AcDbEntity
  8
TAGLIO
100
AcDbLine
 10
55.2675716369579
 20
2.138284995008078
 30
0.0
 11
105.1875716369574
 21
2.138284995008078
 31
0.0
  0
LINE
  5
472
330
1F
100
AcDbEntity
  8
TAGLIO
100
AcDbLine
 10
105.1875716369574
 20
2.138284995008078
 30
0.0
 11
105.1875716369574
 21
8.998284995008284
 31
0.0
  0
LINE
  5
473
330
1F
100
AcDbEntity
  8
TAGLIO
100
AcDbLine
 10
108.7220116930843
 20
9.308061985148314
 30
0.0
 11
158.6420116930838
 21
9.308061985148314
 31
0.0
  0
LINE
  5
474
330
1F
100
AcDbEntity
  8
TAGLIO
100
AcDbLine
 10
108.7220116930843
 20
9.308061985148314
 30
0.0
 11
108.7220116930843
 21
14.76806198514841
 31
0.0
  0
LINE
  5
475
330
1F
100
AcDbEntity
  8
TAGLIO
100
AcDbLine
 10
108.7220116930843
 20
14.76806198514841
 30
0.0
 11
158.6420116930838
 21
14.76806198514841
 31
0.0
  0
LINE
  5
476
330
1F
100
AcDbEntity
  8
TAGLIO
100
AcDbLine
 10
158.6420116930838
 20
14.76806198514841
 30
0.0
 11
158.6420116930838
 21
9.308061985148314
 31
0.0
  0
LINE
  5
477
330
1F
100
AcDbEntity
  8
TAGLIO
100
AcDbLine
 10
108.7220116930843
 20
16.79224007190659
 30
0.0
 11
158.6420116930838
 21
16.79224007190659
 31
0.0
  0
LINE
  5
478
330
1F
100
AcDbEntity
  8
TAGLIO
100
AcDbLine
 10
108.7220116930843
 20
16.79224007190659
 30
0.0
 11
108.7220116930843
 21
22.25224007190668
 31
0.0
  0
LINE
  5
479
330
1F
100
AcDbEntity
  8
TAGLIO
100
AcDbLine
 10
108.7220116930843
 20
22.25224007190668
 30
0.0
 11
158.6420116930838
 21
22.25224007190668
 31
0.0
  0
LINE
  5
47A
330
1F
100
AcDbEntity
  8
TAGLIO
100
AcDbLine
 10
158.6420116930838
 20
22.25224007190668
 30
0.0
 11
158.6420116930838
 21
16.79224007190659
 31
0.0
  0
LINE
  5
47B
330
1F
100
AcDbEntity
  8
TAGLIO
100
AcDbLine
 10
105.2126175085869
 20
67.4040567492295
 30
0.0
 11
55.29261750858655
 21
67.4040567492295
 31
0.0
  0
LINE
  5
47C
330
1F
100
AcDbEntity
  8
TAGLIO
100
AcDbLine
 10
55.29261750858655
 20
67.4040567492295
 30
0.0
 11
55.29261750858655
 21
60.54405674922934
 31
0.0
  0
LINE
  5
47D
330
1F
100
AcDbEntity
  8
TAGLIO
100
AcDbLine
 10
55.29261750858655
 20
60.54405674922934
 30
0.0
 11
105.2126175085869
 21
60.54405674922934
 31
0.0
  0
LINE
  5
47E
330
1F
100
AcDbEntity
  8
TAGLIO
100
AcDbLine
 10
105.2126175085869
 20
60.54405674922934
 30
0.0
 11
105.2126175085869
 21
67.4040567492295
 31
0.0
  0
LINE
  5
47F
330
1F
100
AcDbEntity
  8
TAGLIO
100
AcDbLine
 10
105.1573011402204
 20
59.39166200461466
 30
0.0
 11
55.23730114022013
 21
59.39166200461466
 31
0.0
  0
LINE
  5
480
330
1F
100
AcDbEntity
  8
TAGLIO
100
AcDbLine
 10
55.23730114022013
 20
59.39166200461466
 30
0.0
 11
55.23730114022013
 21
52.5316620046145
 31
0.0
  0
LINE
  5
481
330
1F
100
AcDbEntity
  8
TAGLIO
100
AcDbLine
 10
55.23730114022013
 20
52.5316620046145
 30
0.0
 11
105.1573011402204
 21
52.5316620046145
 31
0.0
  0
LINE
  5
482
330
1F
100
AcDbEntity
  8
TAGLIO
100
AcDbLine
 10
105.1573011402204
 20
52.5316620046145
 30
0.0
 11
105.1573011402204
 21
59.39166200461466
 31
0.0
  0
LINE
  5
483
330
1F
100
AcDbEntity
  8
TAGLIO
100
AcDbLine
 10
105.2226199299564
 20
50.5474459325374
 30
0.0
 11
55.30261992995609
 21
50.5474459325374
 31
0.0
  0
LINE
  5
484
330
1F
100
AcDbEntity
  8
TAGLIO
100
AcDbLine
 10
55.30261992995609
 20
50.5474459325374
 30
0.0
 11
55.30261992995609
 21
43.68744593253719
 31
0.0
  0
LINE
  5
485
330
1F
100
AcDbEntity
  8
TAGLIO
100
AcDbLine
 10
55.30261992995609
 20
43.68744593253719
 30
0.0
 11
105.2226199299564
 21
43.68744593253719
 31
0.0
  0
LINE
  5
486
330
1F
100
AcDbEntity
  8
TAGLIO
100
AcDbLine
 10
105.2226199299564
 20
43.68744593253719
 30
0.0
 11
105.2226199299564
 21
50.5474459325374
 31
0.0
  0
LINE
  5
487
330
1F
100
AcDbEntity
  8
TAGLIO
100
AcDbLine
 10
105.2326696082191
 20
75.61598903426128
 30
0.0
 11
55.31266960821955
 21
75.61598903426128
 31
0.0
  0
LINE
  5
488
330
1F
100
AcDbEntity
  8
TAGLIO
100
AcDbLine
 10
55.31266960821955
 20
75.61598903426128
 30
0.0
 11
55.31266960821955
 21
68.75598903426106
 31
0.0
  0
LINE
  5
489
330
1F
100
AcDbEntity
  8
TAGLIO
100
AcDbLine
 10
55.31266960821955
 20
68.75598903426106
 30
0.0
 11
105.2326696082191
 21
68.75598903426106
 31
0.0
  0
LINE
  5
48A
330
1F
100
AcDbEntity
  8
TAGLIO
100
AcDbLine
 10
105.2326696082191
 20
68.75598903426106
 30
0.0
 11
105.2326696082191
 21
75.61598903426128
 31
0.0
  0
LINE
  5
48B
330
1F
100
AcDbEntity
  8
TAGLIO
100
AcDbLine
 10
108.7448568325651
 20
112.1640899263616
 30
0.0
 11
108.7448568325651
 21
109.3340899263615
 31
0.0
  0
LINE
  5
48C
330
1F
100
AcDbEntity
  8
TAGLIO
100
AcDbLine
 10
109.7448568325656
 20
108.3340899263615
 30
0.0
 11
116.6348568325663
 21
108.3340899263615
 31
0.0
  0
LINE
  5
48D
330
1F
100
AcDbEntity
  8
TAGLIO
100
AcDbLine
 10
117.6348568325668
 20
109.3340899263615
 30
0.0
 11
117.6348568325668
 21
112.1640899263616
 31
0.0
  0
LINE
  5
48E
330
1F
100
AcDbEntity
  8
TAGLIO
100
AcDbLine
 10
116.6348568325663
 20
113.1640899263616
 30
0.0
 11
109.7448568325656
 21
113.1640899263616
 31
0.0
  0
ARC
  5
48F
330
1F
100
AcDbEntity
  8
TAGLIO
100
AcDbCircle
 10
109.7448568325656
 20
112.1640899263616
 30
0.0
 40
1.0
100
AcDbArc
 50
90.0
 51
180.0
  0
ARC
  5
490
330
1F
100
AcDbEntity
  8
TAGLIO
100
AcDbCircle
 10
116.6348568325663
 20
112.1640899263616
 30
0.0
 40
1.0
100
AcDbArc
 50
0.0
 51
90.0
  0
ARC
  5
491
330
1F
100
AcDbEntity
  8
TAGLIO
100
AcDbCircle
 10
116.6348568325663
 20
109.3340899263615
 30
0.0
 40
1.0
100
AcDbArc
 50
270.0
 51
0.0
  0
ARC
  5
492
330
1F
100
AcDbEntity
  8
TAGLIO
100
AcDbCircle
 10
109.7448568325656
 20
109.3340899263615
 30
0.0
 40
1.0
100
AcDbArc
 50
180.0
 51
270.0
  0
LINE
  5
493
330
1F
100
AcDbEntity
  8
TAGLIO
100
AcDbLine
 10
108.7448568325651
 20
105.6178111022509
 30
0.0
 11
108.7448568325651
 21
102.787811102251
 31
0.0
  0
LINE
  5
494
330
1F
100
AcDbEntity
  8
TAGLIO
100
AcDbLine
 10
109.7448568325656
 20
101.7878111022511
 30
0.0
 11
116.6348568325663
 21
101.7878111022511
 31
0.0
  0
LINE
  5
495
330
1F
100
AcDbEntity
  8
TAGLIO
100
AcDbLine
 10
117.6348568325668
 20
102.787811102251
 30
0.0
 11
117.6348568325668
 21
105.6178111022509
 31
0.0
  0
LINE
  5
496
330
1F
100
AcDbEntity
  8
TAGLIO
100
AcDbLine
 10
116.6348568325663
 20
106.6178111022509
 30
0.0
 11
109.7448568325656
 21
106.6178111022509
 31
0.0
  0
ARC
  5
497
330
1F
100
AcDbEntity
  8
TAGLIO
100
AcDbCircle
 10
109.7448568325656
 20
105.6178111022509
 30
0.0
 40
1.0
100
AcDbArc
 50
90.0
 51
180.0
  0
ARC
  5
498
330
1F
100
AcDbEntity
  8
TAGLIO
100
AcDbCircle
 10
116.6348568325663
 20
105.6178111022509
 30
0.0
 40
1.0
100
AcDbArc
 50
0.0
 51
90.0
  0
ARC
  5
499
330
1F
100
AcDbEntity
  8
TAGLIO
100
AcDbCircle
 10
116.6348568325663
 20
102.787811102251
 30
0.0
 40
1.0
100
AcDbArc
 50
270.0
 51
0.0
  0
ARC
  5
49A
330
1F
100
AcDbEntity
  8
TAGLIO
100
AcDbCircle
 10
109.7448568325656
 20
102.787811102251
 30
0.0
 40
1.0
100
AcDbArc
 50
180.0
 51
270.0
  0
LINE
  5
49B
330
1F
100
AcDbEntity
  8
TAGLIO
100
AcDbLine
 10
165.2837064980515
 20
11.61428871217485
 30
0.0
 11
170.5160064980512
 21
11.61428871217485
 31
0.0
  0
LINE
  5
49C
330
1F
100
AcDbEntity
  8
TAGLIO
100
AcDbLine
 10
172.6560064980514
 20
9.474288712174825
 30
0.0
 11
172.6560064980514
 21
4.241988712174759
 31
0.0
  0
LINE
  5
49D
330
1F
100
AcDbEntity
  8
TAGLIO
100
AcDbLine
 10
170.5160064980512
 20
2.101988712174744
 30
0.0
 11
165.2837064980515
 21
2.101988712174744
 31
0.0
  0
LINE
  5
49E
330
1F
100
AcDbEntity
  8
TAGLIO
100
AcDbLine
 10
163.1437064980513
 20
4.241988712174759
 30
0.0
 11
163.1437064980513
 21
9.474288712174825
 31
0.0
  0
ARC
  5
49F
330
1F
100
AcDbEntity
  8
TAGLIO
100
AcDbCircle
 10
165.2837064980515
 20
9.474288712174825
 30
0.0
 40
2.14
100
AcDbArc
 50
90.0
 51
180.0
  0
ARC
  5
4A0
330
1F
100
AcDbEntity
  8
TAGLIO
100
AcDbCircle
 10
170.5160064980512
 20
9.474288712174825
 30
0.0
 40
2.14
100
AcDbArc
 50
0.0
 51
90.0
  0
ARC
  5
4A1
330
1F
100
AcDbEntity
  8
TAGLIO
100
AcDbCircle
 10
170.5160064980512
 20
4.241988712174759
 30
0.0
 40
2.14
100
AcDbArc
 50
270.0
 51
0.0
  0
ARC
  5
4A2
330
1F
100
AcDbEntity
  8
TAGLIO
100
AcDbCircle
 10
165.2837064980515
 20
4.241988712174759
 30
0.0
 40
2.14
100
AcDbArc
 50
180.0
 51
270.0
  0
LINE
  5
4A3
330
1F
100
AcDbEntity
  8
TAGLIO
100
AcDbLine
 10
176.2837064980515
 20
11.61428871217485
 30
0.0
 11
181.5160064980512
 21
11.61428871217485
 31
0.0
  0
LINE
  5
4A4
330
1F
100
AcDbEntity
  8
TAGLIO
100
AcDbLine
 10
183.6560064980514
 20
9.474288712174825
 30
0.0
 11
183.6560064980514
 21
4.241988712174759
 31
0.0
  0
LINE
  5
4A5
330
1F
100
AcDbEntity
  8
TAGLIO
100
AcDbLine
 10
181.5160064980512
 20
2.101988712174744
 30
0.0
 11
176.2837064980515
 21
2.101988712174744
 31
0.0
  0
LINE
  5
4A6
330
1F
100
AcDbEntity
  8
TAGLIO
100
AcDbLine
 10
174.1437064980513
 20
4.241988712174759
 30
0.0
 11
174.1437064980513
 21
9.474288712174825
 31
0.0
  0
ARC
  5
4A7
330
1F
100
AcDbEntity
  8
TAGLIO
100
AcDbCircle
 10
176.2837064980515
 20
9.474288712174825
 30
0.0
 40
2.14
100
AcDbArc
 50
90.0
 51
180.0
  0
ARC
  5
4A8
330
1F
100
AcDbEntity
  8
TAGLIO
100
AcDbCircle
 10
181.5160064980512
 20
9.474288712174825
 30
0.0
 40
2.14
100
AcDbArc
 50
0.0
 51
90.0
  0
ARC
  5
4A9
330
1F
100
AcDbEntity
  8
TAGLIO
100
AcDbCircle
 10
181.5160064980512
 20
4.241988712174759
 30
0.0
 40
2.14
100
AcDbArc
 50
270.0
 51
0.0
  0
ARC
  5
4AA
330
1F
100
AcDbEntity
  8
TAGLIO
100
AcDbCircle
 10
176.2837064980515
 20
4.241988712174759
 30
0.0
 40
2.14
100
AcDbArc
 50
180.0
 51
270.0
  0
LINE
  5
4AB
330
1F
100
AcDbEntity
  8
TAGLIO
100
AcDbLine
 10
187.2837064980515
 20
11.61428871217486
 30
0.0
 11
192.5160064980512
 21
11.61428871217486
 31
0.0
  0
LINE
  5
4AC
330
1F
100
AcDbEntity
  8
TAGLIO
100
AcDbLine
 10
194.6560064980514
 20
9.474288712174832
 30
0.0
 11
194.6560064980514
 21
4.241988712174766
 31
0.0
  0
LINE
  5
4AD
330
1F
100
AcDbEntity
  8
TAGLIO
100
AcDbLine
 10
192.5160064980512
 20
2.101988712174752
 30
0.0
 11
187.2837064980515
 21
2.101988712174752
 31
0.0
  0
LINE
  5
4AE
330
1F
100
AcDbEntity
  8
TAGLIO
100
AcDbLine
 10
185.1437064980513
 20
4.241988712174766
 30
0.0
 11
185.1437064980513
 21
9.474288712174832
 31
0.0
  0
ARC
  5
4AF
330
1F
100
AcDbEntity
  8
TAGLIO
100
AcDbCircle
 10
187.2837064980515
 20
9.474288712174832
 30
0.0
 40
2.14
100
AcDbArc
 50
90.0
 51
180.0
  0
ARC
  5
4B0
330
1F
100
AcDbEntity
  8
TAGLIO
100
AcDbCircle
 10
192.5160064980512
 20
9.474288712174832
 30
0.0
 40
2.14
100
AcDbArc
 50
0.0
 51
90.0
  0
ARC
  5
4B1
330
1F
100
AcDbEntity
  8
TAGLIO
100
AcDbCircle
 10
192.5160064980512
 20
4.241988712174766
 30
0.0
 40
2.14
100
AcDbArc
 50
270.0
 51
0.0
  0
ARC
  5
4B2
330
1F
100
AcDbEntity
  8
TAGLIO
100
AcDbCircle
 10
187.2837064980515
 20
4.241988712174766
 30
0.0
 40
2.14
100
AcDbArc
 50
180.0
 51
270.0
  0
LINE
  5
4B3
330
1F
100
AcDbEntity
  8
TAGLIO
100
AcDbLine
 10
198.2837064980515
 20
11.61428871217486
 30
0.0
 11
203.5160064980512
 21
11.61428871217486
 31
0.0
  0
LINE
  5
4B4
330
1F
100
AcDbEntity
  8
TAGLIO
100
AcDbLine
 10
205.6560064980514
 20
9.474288712174832
 30
0.0
 11
205.6560064980514
 21
4.241988712174766
 31
0.0
  0
LINE
  5
4B5
330
1F
100
AcDbEntity
  8
TAGLIO
100
AcDbLine
 10
203.5160064980512
 20
2.101988712174752
 30
0.0
 11
198.2837064980515
 21
2.101988712174752
 31
0.0
  0
LINE
  5
4B6
330
1F
100
AcDbEntity
  8
TAGLIO
100
AcDbLine
 10
196.1437064980513
 20
4.241988712174766
 30
0.0
 11
196.1437064980513
 21
9.474288712174832
 31
0.0
  0
ARC
  5
4B7
330
1F
100
AcDbEntity
  8
TAGLIO
100
AcDbCircle
 10
198.2837064980515
 20
9.474288712174832
 30
0.0
 40
2.14
100
AcDbArc
 50
90.0
 51
180.0
  0
ARC
  5
4B8
330
1F
100
AcDbEntity
  8
TAGLIO
100
AcDbCircle
 10
203.5160064980512
 20
9.474288712174832
 30
0.0
 40
2.14
100
AcDbArc
 50
0.0
 51
90.0
  0
ARC
  5
4B9
330
1F
100
AcDbEntity
  8
TAGLIO
100
AcDbCircle
 10
203.5160064980512
 20
4.241988712174766
 30
0.0
 40
2.14
100
AcDbArc
 50
270.0
 51
0.0
  0
ARC
  5
4BA
330
1F
100
AcDbEntity
  8
TAGLIO
100
AcDbCircle
 10
198.2837064980515
 20
4.241988712174766
 30
0.0
 40
2.14
100
AcDbArc
 50
180.0
 51
270.0
  0
LINE
  5
4BB
330
1F
100
AcDbEntity
  8
TAGLIO
100
AcDbLine
 10
165.2837064980515
 20
22.61428871217485
 30
0.0
 11
170.5160064980512
 21
22.61428871217485
 31
0.0
  0
LINE
  5
4BC
330
1F
100
AcDbEntity
  8
TAGLIO
100
AcDbLine
 10
172.6560064980514
 20
20.47428871217483
 30
0.0
 11
172.6560064980514
 21
15.24198871217476
 31
0.0
  0
LINE
  5
4BD
330
1F
100
AcDbEntity
  8
TAGLIO
100
AcDbLine
 10
170.5160064980512
 20
13.10198871217474
 30
0.0
 11
165.2837064980515
 21
13.10198871217474
 31
0.0
  0
LINE
  5
4BE
330
1F
100
AcDbEntity
  8
TAGLIO
100
AcDbLine
 10
163.1437064980513
 20
15.24198871217476
 30
0.0
 11
163.1437064980513
 21
20.47428871217483
 31
0.0
  0
ARC
  5
4BF
330
1F
100
AcDbEntity
  8
TAGLIO
100
AcDbCircle
 10
165.2837064980515
 20
20.47428871217483
 30
0.0
 40
2.14
100
AcDbArc
 50
90.0
 51
180.0
  0
ARC
  5
4C0
330
1F
100
AcDbEntity
  8
TAGLIO
100
AcDbCircle
 10
170.5160064980512
 20
20.47428871217483
 30
0.0
 40
2.14
100
AcDbArc
 50
0.0
 51
90.0
  0
ARC
  5
4C1
330
1F
100
AcDbEntity
  8
TAGLIO
100
AcDbCircle
 10
170.5160064980512
 20
15.24198871217476
 30
0.0
 40
2.14
100
AcDbArc
 50
270.0
 51
0.0
  0
ARC
  5
4C2
330
1F
100
AcDbEntity
  8
TAGLIO
100
AcDbCircle
 10
165.2837064980515
 20
15.24198871217476
 30
0.0
 40
2.14
100
AcDbArc
 50
180.0
 51
270.0
  0
LINE
  5
4C3
330
1F
100
AcDbEntity
  8
TAGLIO
100
AcDbLine
 10
176.2837064980515
 20
22.61428871217485
 30
0.0
 11
181.5160064980512
 21
22.61428871217485
 31
0.0
  0
LINE
  5
4C4
330
1F
100
AcDbEntity
  8
TAGLIO
100
AcDbLine
 10
183.6560064980514
 20
20.47428871217483
 30
0.0
 11
183.6560064980514
 21
15.24198871217476
 31
0.0
  0
LINE
  5
4C5
330
1F
100
AcDbEntity
  8
TAGLIO
100
AcDbLine
 10
181.5160064980512
 20
13.10198871217474
 30
0.0
 11
176.2837064980515
 21
13.10198871217474
 31
0.0
  0
LINE
  5
4C6
330
1F
100
AcDbEntity
  8
TAGLIO
100
AcDbLine
 10
174.1437064980513
 20
15.24198871217476
 30
0.0
 11
174.1437064980513
 21
20.47428871217483
 31
0.0
  0
ARC
  5
4C7
330
1F
100
AcDbEntity
  8
TAGLIO
100
AcDbCircle
 10
176.2837064980515
 20
20.47428871217483
 30
0.0
 40
2.14
100
AcDbArc
 50
90.0
 51
180.0
  0
ARC
  5
4C8
330
1F
100
AcDbEntity
  8
TAGLIO
100
AcDbCircle
 10
181.5160064980512
 20
20.47428871217483
 30
0.0
 40
2.14
100
AcDbArc
 50
0.0
 51
90.0
  0
ARC
  5
4C9
330
1F
100
AcDbEntity
  8
TAGLIO
100
AcDbCircle
 10
181.5160064980512
 20
15.24198871217476
 30
0.0
 40
2.14
100
AcDbArc
 50
270.0
 51
0.0
  0
ARC
  5
4CA
330
1F
100
AcDbEntity
  8
TAGLIO
100
AcDbCircle
 10
176.2837064980515
 20
15.24198871217476
 30
0.0
 40
2.14
100
AcDbArc
 50
180.0
 51
270.0
  0
LINE
  5
4CB
330
1F
100
AcDbEntity
  8
TAGLIO
100
AcDbLine
 10
187.2837064980515
 20
22.61428871217486
 30
0.0
 11
192.5160064980512
 21
22.61428871217486
 31
0.0
  0
LINE
  5
4CC
330
1F
100
AcDbEntity
  8
TAGLIO
100
AcDbLine
 10
194.6560064980514
 20
20.47428871217483
 30
0.0
 11
194.6560064980514
 21
15.24198871217477
 31
0.0
  0
LINE
  5
4CD
330
1F
100
AcDbEntity
  8
TAGLIO
100
AcDbLine
 10
192.5160064980512
 20
13.10198871217475
 30
0.0
 11
187.2837064980515
 21
13.10198871217475
 31
0.0
  0
LINE
  5
4CE
330
1F
100
AcDbEntity
  8
TAGLIO
100
AcDbLine
 10
185.1437064980513
 20
15.24198871217477
 30
0.0
 11
185.1437064980513
 21
20.47428871217483
 31
0.0
  0
ARC
  5
4CF
330
1F
100
AcDbEntity
  8
TAGLIO
100
AcDbCircle
 10
187.2837064980515
 20
20.47428871217483
 30
0.0
 40
2.14
100
AcDbArc
 50
90.0
 51
180.0
  0
ARC
  5
4D0
330
1F
100
AcDbEntity
  8
TAGLIO
100
AcDbCircle
 10
192.5160064980512
 20
20.47428871217483
 30
0.0
 40
2.14
100
AcDbArc
 50
0.0
 51
90.0
  0
ARC
  5
4D1
330
1F
100
AcDbEntity
  8
TAGLIO
100
AcDbCircle
 10
192.5160064980512
 20
15.24198871217477
 30
0.0
 40
2.14
100
AcDbArc
 50
270.0
 51
0.0
  0
ARC
  5
4D2
330
1F
100
AcDbEntity
  8
TAGLIO
100
AcDbCircle
 10
187.2837064980515
 20
15.24198871217477
 30
0.0
 40
2.14
100
AcDbArc
 50
180.0
 51
270.0
  0
LINE
  5
4D3
330
1F
100
AcDbEntity
  8
TAGLIO
100
AcDbLine
 10
198.2837064980515
 20
22.61428871217486
 30
0.0
 11
203.5160064980512
 21
22.61428871217486
 31
0.0
  0
LINE
  5
4D4
330
1F
100
AcDbEntity
  8
TAGLIO
100
AcDbLine
 10
205.6560064980514
 20
20.47428871217483
 30
0.0
 11
205.6560064980514
 21
15.24198871217477
 31
0.0
  0
LINE
  5
4D5
330
1F
100
AcDbEntity
  8
TAGLIO
100
AcDbLine
 10
203.5160064980512
 20
13.10198871217475
 30
0.0
 11
198.2837064980515
 21
13.10198871217475
 31
0.0
  0
LINE
  5
4D6
330
1F
100
AcDbEntity
  8
TAGLIO
100
AcDbLine
 10
196.1437064980513
 20
15.24198871217477
 30
0.0
 11
196.1437064980513
 21
20.47428871217483
 31
0.0
  0
ARC
  5
4D7
330
1F
100
AcDbEntity
  8
TAGLIO
100
AcDbCircle
 10
198.2837064980515
 20
20.47428871217483
 30
0.0
 40
2.14
100
AcDbArc
 50
90.0
 51
180.0
  0
ARC
  5
4D8
330
1F
100
AcDbEntity
  8
TAGLIO
100
AcDbCircle
 10
203.5160064980512
 20
20.47428871217483
 30
0.0
 40
2.14
100
AcDbArc
 50
0.0
 51
90.0
  0
ARC
  5
4D9
330
1F
100
AcDbEntity
  8
TAGLIO
100
AcDbCircle
 10
203.5160064980512
 20
15.24198871217477
 30
0.0
 40
2.14
100
AcDbArc
 50
270.0
 51
0.0
  0
ARC
  5
4DA
330
1F
100
AcDbEntity
  8
TAGLIO
100
AcDbCircle
 10
198.2837064980515
 20
15.24198871217477
 30
0.0
 40
2.14
100
AcDbArc
 50
180.0
 51
270.0
  0
LINE
  5
4DB
330
1F
100
AcDbEntity
  8
TAGLIO
100
AcDbLine
 10
165.2837064980515
 20
33.61428871217485
 30
0.0
 11
170.5160064980512
 21
33.61428871217485
 31
0.0
  0
LINE
  5
4DC
330
1F
100
AcDbEntity
  8
TAGLIO
100
AcDbLine
 10
172.6560064980514
 20
31.47428871217483
 30
0.0
 11
172.6560064980514
 21
26.24198871217476
 31
0.0
  0
LINE
  5
4DD
330
1F
100
AcDbEntity
  8
TAGLIO
100
AcDbLine
 10
170.5160064980512
 20
24.10198871217474
 30
0.0
 11
165.2837064980515
 21
24.10198871217474
 31
0.0
  0
LINE
  5
4DE
330
1F
100
AcDbEntity
  8
TAGLIO
100
AcDbLine
 10
163.1437064980513
 20
26.24198871217476
 30
0.0
 11
163.1437064980513
 21
31.47428871217483
 31
0.0
  0
ARC
  5
4DF
330
1F
100
AcDbEntity
  8
TAGLIO
100
AcDbCircle
 10
165.2837064980515
 20
31.47428871217483
 30
0.0
 40
2.14
100
AcDbArc
 50
90.0
 51
180.0
  0
ARC
  5
4E0
330
1F
100
AcDbEntity
  8
TAGLIO
100
AcDbCircle
 10
170.5160064980512
 20
31.47428871217483
 30
0.0
 40
2.14
100
AcDbArc
 50
0.0
 51
90.0
  0
ARC
  5
4E1
330
1F
100
AcDbEntity
  8
TAGLIO
100
AcDbCircle
 10
170.5160064980512
 20
26.24198871217476
 30
0.0
 40
2.14
100
AcDbArc
 50
270.0
 51
0.0
  0
ARC
  5
4E2
330
1F
100
AcDbEntity
  8
TAGLIO
100
AcDbCircle
 10
165.2837064980515
 20
26.24198871217476
 30
0.0
 40
2.14
100
AcDbArc
 50
180.0
 51
270.0
  0
LINE
  5
4E3
330
1F
100
AcDbEntity
  8
TAGLIO
100
AcDbLine
 10
176.2837064980515
 20
33.61428871217485
 30
0.0
 11
181.5160064980512
 21
33.61428871217485
 31
0.0
  0
LINE
  5
4E4
330
1F
100
AcDbEntity
  8
TAGLIO
100
AcDbLine
 10
183.6560064980514
 20
31.47428871217483
 30
0.0
 11
183.6560064980514
 21
26.24198871217476
 31
0.0
  0
LINE
  5
4E5
330
1F
100
AcDbEntity
  8
TAGLIO
100
AcDbLine
 10
181.5160064980512
 20
24.10198871217474
 30
0.0
 11
176.2837064980515
 21
24.10198871217474
 31
0.0
  0
LINE
  5
4E6
330
1F
100
AcDbEntity
  8
TAGLIO
100
AcDbLine
 10
174.1437064980513
 20
26.24198871217476
 30
0.0
 11
174.1437064980513
 21
31.47428871217483
 31
0.0
  0
ARC
  5
4E7
330
1F
100
AcDbEntity
  8
TAGLIO
100
AcDbCircle
 10
176.2837064980515
 20
31.47428871217483
 30
0.0
 40
2.14
100
AcDbArc
 50
90.0
 51
180.0
  0
ARC
  5
4E8
330
1F
100
AcDbEntity
  8
TAGLIO
100
AcDbCircle
 10
181.5160064980512
 20
31.47428871217483
 30
0.0
 40
2.14
100
AcDbArc
 50
0.0
 51
90.0
  0
ARC
  5
4E9
330
1F
100
AcDbEntity
  8
TAGLIO
100
AcDbCircle
 10
181.5160064980512
 20
26.24198871217476
 30
0.0
 40
2.14
100
AcDbArc
 50
270.0
 51
0.0
  0
ARC
  5
4EA
330
1F
100
AcDbEntity
  8
TAGLIO
100
AcDbCircle
 10
176.2837064980515
 20
26.24198871217476
 30
0.0
 40
2.14
100
AcDbArc
 50
180.0
 51
270.0
  0
LINE
  5
4EB
330
1F
100
AcDbEntity
  8
TAGLIO
100
AcDbLine
 10
187.2837064980515
 20
33.61428871217485
 30
0.0
 11
192.5160064980512
 21
33.61428871217485
 31
0.0
  0
LINE
  5
4EC
330
1F
100
AcDbEntity
  8
TAGLIO
100
AcDbLine
 10
194.6560064980514
 20
31.47428871217484
 30
0.0
 11
194.6560064980514
 21
26.24198871217477
 31
0.0
  0
LINE
  5
4ED
330
1F
100
AcDbEntity
  8
TAGLIO
100
AcDbLine
 10
192.5160064980512
 20
24.10198871217475
 30
0.0
 11
187.2837064980515
 21
24.10198871217475
 31
0.0
  0
LINE
  5
4EE
330
1F
100
AcDbEntity
  8
TAGLIO
100
AcDbLine
 10
185.1437064980513
 20
26.24198871217477
 30
0.0
 11
185.1437064980513
 21
31.47428871217484
 31
0.0
  0
ARC
  5
4EF
330
1F
100
AcDbEntity
  8
TAGLIO
100
AcDbCircle
 10
187.2837064980515
 20
31.47428871217484
 30
0.0
 40
2.14
100
AcDbArc
 50
90.0
 51
180.0
  0
ARC
  5
4F0
330
1F
100
AcDbEntity
  8
TAGLIO
100
AcDbCircle
 10
192.5160064980512
 20
31.47428871217484
 30
0.0
 40
2.14
100
AcDbArc
 50
0.0
 51
90.0
  0
ARC
  5
4F1
330
1F
100
AcDbEntity
  8
TAGLIO
100
AcDbCircle
 10
192.5160064980512
 20
26.24198871217477
 30
0.0
 40
2.14
100
AcDbArc
 50
270.0
 51
0.0
  0
ARC
  5
4F2
330
1F
100
AcDbEntity
  8
TAGLIO
100
AcDbCircle
 10
187.2837064980515
 20
26.24198871217477
 30
0.0
 40
2.14
100
AcDbArc
 50
180.0
 51
270.0
  0
LINE
  5
4F3
330
1F
100
AcDbEntity
  8
TAGLIO
100
AcDbLine
 10
198.2837064980515
 20
33.61428871217485
 30
0.0
 11
203.5160064980512
 21
33.61428871217485
 31
0.0
  0
LINE
  5
4F4
330
1F
100
AcDbEntity
  8
TAGLIO
100
AcDbLine
 10
205.6560064980514
 20
31.47428871217484
 30
0.0
 11
205.6560064980514
 21
26.24198871217477
 31
0.0
  0
LINE
  5
4F5
330
1F
100
AcDbEntity
  8
TAGLIO
100
AcDbLine
 10
203.5160064980512
 20
24.10198871217475
 30
0.0
 11
198.2837064980515
 21
24.10198871217475
 31
0.0
  0
LINE
  5
4F6
330
1F
100
AcDbEntity
  8
TAGLIO
100
AcDbLine
 10
196.1437064980513
 20
26.24198871217477
 30
0.0
 11
196.1437064980513
 21
31.47428871217484
 31
0.0
  0
ARC
  5
4F7
330
1F
100
AcDbEntity
  8
TAGLIO
100
AcDbCircle
 10
198.2837064980515
 20
31.47428871217484
 30
0.0
 40
2.14
100
AcDbArc
 50
90.0
 51
180.0
  0
ARC
  5
4F8
330
1F
100
AcDbEntity
  8
TAGLIO
100
AcDbCircle
 10
203.5160064980512
 20
31.47428871217484
 30
0.0
 40
2.14
100
AcDbArc
 50
0.0
 51
90.0
  0
ARC
  5
4F9
330
1F
100
AcDbEntity
  8
TAGLIO
100
AcDbCircle
 10
203.5160064980512
 20
26.24198871217477
 30
0.0
 40
2.14
100
AcDbArc
 50
270.0
 51
0.0
  0
ARC
  5
4FA
330
1F
100
AcDbEntity
  8
TAGLIO
100
AcDbCircle
 10
198.2837064980515
 20
26.24198871217477
 30
0.0
 40
2.14
100
AcDbArc
 50
180.0
 51
270.0
  0
LINE
  5
4FB
330
1F
100
AcDbEntity
  8
TAGLIO
100
AcDbLine
 10
165.2837064980515
 20
44.61428871217485
 30
0.0
 11
170.5160064980512
 21
44.61428871217485
 31
0.0
  0
LINE
  5
4FC
330
1F
100
AcDbEntity
  8
TAGLIO
100
AcDbLine
 10
172.6560064980514
 20
42.47428871217483
 30
0.0
 11
172.6560064980514
 21
37.24198871217476
 31
0.0
  0
LINE
  5
4FD
330
1F
100
AcDbEntity
  8
TAGLIO
100
AcDbLine
 10
170.5160064980512
 20
35.10198871217474
 30
0.0
 11
165.2837064980515
 21
35.10198871217474
 31
0.0
  0
LINE
  5
4FE
330
1F
100
AcDbEntity
  8
TAGLIO
100
AcDbLine
 10
163.1437064980513
 20
37.24198871217476
 30
0.0
 11
163.1437064980513
 21
42.47428871217483
 31
0.0
  0
ARC
  5
4FF
330
1F
100
AcDbEntity
  8
TAGLIO
100
AcDbCircle
 10
165.2837064980515
 20
42.47428871217483
 30
0.0
 40
2.14
100
AcDbArc
 50
90.0
 51
180.0
  0
ARC
  5
500
330
1F
100
AcDbEntity
  8
TAGLIO
100
AcDbCircle
 10
170.5160064980512
 20
42.47428871217483
 30
0.0
 40
2.14
100
AcDbArc
 50
0.0
 51
90.0
  0
ARC
  5
501
330
1F
100
AcDbEntity
  8
TAGLIO
100
AcDbCircle
 10
170.5160064980512
 20
37.24198871217476
 30
0.0
 40
2.14
100
AcDbArc
 50
270.0
 51
0.0
  0
ARC
  5
502
330
1F
100
AcDbEntity
  8
TAGLIO
100
AcDbCircle
 10
165.2837064980515
 20
37.24198871217476
 30
0.0
 40
2.14
100
AcDbArc
 50
180.0
 51
270.0
  0
LINE
  5
503
330
1F
100
AcDbEntity
  8
TAGLIO
100
AcDbLine
 10
176.2837064980515
 20
44.61428871217485
 30
0.0
 11
181.5160064980512
 21
44.61428871217485
 31
0.0
  0
LINE
  5
504
330
1F
100
AcDbEntity
  8
TAGLIO
100
AcDbLine
 10
183.6560064980514
 20
42.47428871217483
 30
0.0
 11
183.6560064980514
 21
37.24198871217476
 31
0.0
  0
LINE
  5
505
330
1F
100
AcDbEntity
  8
TAGLIO
100
AcDbLine
 10
181.5160064980512
 20
35.10198871217474
 30
0.0
 11
176.2837064980515
 21
35.10198871217474
 31
0.0
  0
LINE
  5
506
330
1F
100
AcDbEntity
  8
TAGLIO
100
AcDbLine
 10
174.1437064980513
 20
37.24198871217476
 30
0.0
 11
174.1437064980513
 21
42.47428871217483
 31
0.0
  0
ARC
  5
507
330
1F
100
AcDbEntity
  8
TAGLIO
100
AcDbCircle
 10
176.2837064980515
 20
42.47428871217483
 30
0.0
 40
2.14
100
AcDbArc
 50
90.0
 51
180.0
  0
ARC
  5
508
330
1F
100
AcDbEntity
  8
TAGLIO
100
AcDbCircle
 10
181.5160064980512
 20
42.47428871217483
 30
0.0
 40
2.14
100
AcDbArc
 50
0.0
 51
90.0
  0
ARC
  5
509
330
1F
100
AcDbEntity
  8
TAGLIO
100
AcDbCircle
 10
181.5160064980512
 20
37.24198871217476
 30
0.0
 40
2.14
100
AcDbArc
 50
270.0
 51
0.0
  0
ARC
  5
50A
330
1F
100
AcDbEntity
  8
TAGLIO
100
AcDbCircle
 10
176.2837064980515
 20
37.24198871217476
 30
0.0
 40
2.14
100
AcDbArc
 50
180.0
 51
270.0
  0
LINE
  5
50B
330
1F
100
AcDbEntity
  8
TAGLIO
100
AcDbLine
 10
187.2837064980515
 20
44.61428871217485
 30
0.0
 11
192.5160064980512
 21
44.61428871217485
 31
0.0
  0
LINE
  5
50C
330
1F
100
AcDbEntity
  8
TAGLIO
100
AcDbLine
 10
194.6560064980514
 20
42.47428871217484
 30
0.0
 11
194.6560064980514
 21
37.24198871217477
 31
0.0
  0
LINE
  5
50D
330
1F
100
AcDbEntity
  8
TAGLIO
100
AcDbLine
 10
192.5160064980512
 20
35.10198871217476
 30
0.0
 11
187.2837064980515
 21
35.10198871217476
 31
0.0
  0
LINE
  5
50E
330
1F
100
AcDbEntity
  8
TAGLIO
100
AcDbLine
 10
185.1437064980513
 20
37.24198871217477
 30
0.0
 11
185.1437064980513
 21
42.47428871217484
 31
0.0
  0
ARC
  5
50F
330
1F
100
AcDbEntity
  8
TAGLIO
100
AcDbCircle
 10
187.2837064980515
 20
42.47428871217484
 30
0.0
 40
2.14
100
AcDbArc
 50
90.0
 51
180.0
  0
ARC
  5
510
330
1F
100
AcDbEntity
  8
TAGLIO
100
AcDbCircle
 10
192.5160064980512
 20
42.47428871217484
 30
0.0
 40
2.14
100
AcDbArc
 50
0.0
 51
90.0
  0
ARC
  5
511
330
1F
100
AcDbEntity
  8
TAGLIO
100
AcDbCircle
 10
192.5160064980512
 20
37.24198871217477
 30
0.0
 40
2.14
100
AcDbArc
 50
270.0
 51
0.0
  0
ARC
  5
512
330
1F
100
AcDbEntity
  8
TAGLIO
100
AcDbCircle
 10
187.2837064980515
 20
37.24198871217477
 30
0.0
 40
2.14
100
AcDbArc
 50
180.0
 51
270.0
  0
LINE
  5
513
330
1F
100
AcDbEntity
  8
TAGLIO
100
AcDbLine
 10
198.2837064980515
 20
44.61428871217485
 30
0.0
 11
203.5160064980512
 21
44.61428871217485
 31
0.0
  0
LINE
  5
514
330
1F
100
AcDbEntity
  8
TAGLIO
100
AcDbLine
 10
205.6560064980514
 20
42.47428871217484
 30
0.0
 11
205.6560064980514
 21
37.24198871217477
 31
0.0
  0
LINE
  5
515
330
1F
100
AcDbEntity
  8
TAGLIO
100
AcDbLine
 10
203.5160064980512
 20
35.10198871217476
 30
0.0
 11
198.2837064980515
 21
35.10198871217476
 31
0.0
  0
LINE
  5
516
330
1F
100
AcDbEntity
  8
TAGLIO
100
AcDbLine
 10
196.1437064980513
 20
37.24198871217477
 30
0.0
 11
196.1437064980513
 21
42.47428871217484
 31
0.0
  0
ARC
  5
517
330
1F
100
AcDbEntity
  8
TAGLIO
100
AcDbCircle
 10
198.2837064980515
 20
42.47428871217484
 30
0.0
 40
2.14
100
AcDbArc
 50
90.0
 51
180.0
  0
ARC
  5
518
330
1F
100
AcDbEntity
  8
TAGLIO
100
AcDbCircle
 10
203.5160064980512
 20
42.47428871217484
 30
0.0
 40
2.14
100
AcDbArc
 50
0.0
 51
90.0
  0
ARC
  5
519
330
1F
100
AcDbEntity
  8
TAGLIO
100
AcDbCircle
 10
203.5160064980512
 20
37.24198871217477
 30
0.0
 40
2.14
100
AcDbArc
 50
270.0
 51
0.0
  0
ARC
  5
51A
330
1F
100
AcDbEntity
  8
TAGLIO
100
AcDbCircle
 10
198.2837064980515
 20
37.24198871217477
 30
0.0
 40
2.14
100
AcDbArc
 50
180.0
 51
270.0
  0
LINE
  5
51B
330
1F
100
AcDbEntity
  8
TAGLIO
100
AcDbLine
 10
165.2837064980515
 20
55.61428871217485
 30
0.0
 11
170.5160064980512
 21
55.61428871217485
 31
0.0
  0
LINE
  5
51C
330
1F
100
AcDbEntity
  8
TAGLIO
100
AcDbLine
 10
172.6560064980514
 20
53.47428871217483
 30
0.0
 11
172.6560064980514
 21
48.24198871217476
 31
0.0
  0
LINE
  5
51D
330
1F
100
AcDbEntity
  8
TAGLIO
100
AcDbLine
 10
170.5160064980512
 20
46.10198871217474
 30
0.0
 11
165.2837064980515
 21
46.10198871217474
 31
0.0
  0
LINE
  5
51E
330
1F
100
AcDbEntity
  8
TAGLIO
100
AcDbLine
 10
163.1437064980513
 20
48.24198871217476
 30
0.0
 11
163.1437064980513
 21
53.47428871217483
 31
0.0
  0
ARC
  5
51F
330
1F
100
AcDbEntity
  8
TAGLIO
100
AcDbCircle
 10
165.2837064980515
 20
53.47428871217483
 30
0.0
 40
2.14
100
AcDbArc
 50
90.0
 51
180.0
  0
ARC
  5
520
330
1F
100
AcDbEntity
  8
TAGLIO
100
AcDbCircle
 10
170.5160064980512
 20
53.47428871217483
 30
0.0
 40
2.14
100
AcDbArc
 50
0.0
 51
90.0
  0
ARC
  5
521
330
1F
100
AcDbEntity
  8
TAGLIO
100
AcDbCircle
 10
170.5160064980512
 20
48.24198871217476
 30
0.0
 40
2.14
100
AcDbArc
 50
270.0
 51
0.0
  0
ARC
  5
522
330
1F
100
AcDbEntity
  8
TAGLIO
100
AcDbCircle
 10
165.2837064980515
 20
48.24198871217476
 30
0.0
 40
2.14
100
AcDbArc
 50
180.0
 51
270.0
  0
LINE
  5
523
330
1F
100
AcDbEntity
  8
TAGLIO
100
AcDbLine
 10
176.2837064980515
 20
55.61428871217485
 30
0.0
 11
181.5160064980512
 21
55.61428871217485
 31
0.0
  0
LINE
  5
524
330
1F
100
AcDbEntity
  8
TAGLIO
100
AcDbLine
 10
183.6560064980514
 20
53.47428871217483
 30
0.0
 11
183.6560064980514
 21
48.24198871217476
 31
0.0
  0
LINE
  5
525
330
1F
100
AcDbEntity
  8
TAGLIO
100
AcDbLine
 10
181.5160064980512
 20
46.10198871217474
 30
0.0
 11
176.2837064980515
 21
46.10198871217474
 31
0.0
  0
LINE
  5
526
330
1F
100
AcDbEntity
  8
TAGLIO
100
AcDbLine
 10
174.1437064980513
 20
48.24198871217476
 30
0.0
 11
174.1437064980513
 21
53.47428871217483
 31
0.0
  0
ARC
  5
527
330
1F
100
AcDbEntity
  8
TAGLIO
100
AcDbCircle
 10
176.2837064980515
 20
53.47428871217483
 30
0.0
 40
2.14
100
AcDbArc
 50
90.0
 51
180.0
  0
ARC
  5
528
330
1F
100
AcDbEntity
  8
TAGLIO
100
AcDbCircle
 10
181.5160064980512
 20
53.47428871217483
 30
0.0
 40
2.14
100
AcDbArc
 50
0.0
 51
90.0
  0
ARC
  5
529
330
1F
100
AcDbEntity
  8
TAGLIO
100
AcDbCircle
 10
181.5160064980512
 20
48.24198871217476
 30
0.0
 40
2.14
100
AcDbArc
 50
270.0
 51
0.0
  0
ARC
  5
52A
330
1F
100
AcDbEntity
  8
TAGLIO
100
AcDbCircle
 10
176.2837064980515
 20
48.24198871217476
 30
0.0
 40
2.14
100
AcDbArc
 50
180.0
 51
270.0
  0
LINE
  5
52B
330
1F
100
AcDbEntity
  8
TAGLIO
100
AcDbLine
 10
187.2837064980515
 20
55.61428871217485
 30
0.0
 11
192.5160064980512
 21
55.61428871217485
 31
0.0
  0
LINE
  5
52C
330
1F
100
AcDbEntity
  8
TAGLIO
100
AcDbLine
 10
194.6560064980514
 20
53.47428871217484
 30
0.0
 11
194.6560064980514
 21
48.24198871217477
 31
0.0
  0
LINE
  5
52D
330
1F
100
AcDbEntity
  8
TAGLIO
100
AcDbLine
 10
192.5160064980512
 20
46.10198871217476
 30
0.0
 11
187.2837064980515
 21
46.10198871217476
 31
0.0
  0
LINE
  5
52E
330
1F
100
AcDbEntity
  8
TAGLIO
100
AcDbLine
 10
185.1437064980513
 20
48.24198871217477
 30
0.0
 11
185.1437064980513
 21
53.47428871217484
 31
0.0
  0
ARC
  5
52F
330
1F
100
AcDbEntity
  8
TAGLIO
100
AcDbCircle
 10
187.2837064980515
 20
53.47428871217484
 30
0.0
 40
2.14
100
AcDbArc
 50
90.0
 51
180.0
  0
ARC
  5
530
330
1F
100
AcDbEntity
  8
TAGLIO
100
AcDbCircle
 10
192.5160064980512
 20
53.47428871217484
 30
0.0
 40
2.14
100
AcDbArc
 50
0.0
 51
90.0
  0
ARC
  5
531
330
1F
100
AcDbEntity
  8
TAGLIO
100
AcDbCircle
 10
192.5160064980512
 20
48.24198871217477
 30
0.0
 40
2.14
100
AcDbArc
 50
270.0
 51
0.0
  0
ARC
  5
532
330
1F
100
AcDbEntity
  8
TAGLIO
100
AcDbCircle
 10
187.2837064980515
 20
48.24198871217477
 30
0.0
 40
2.14
100
AcDbArc
 50
180.0
 51
270.0
  0
LINE
  5
533
330
1F
100
AcDbEntity
  8
TAGLIO
100
AcDbLine
 10
198.2837064980515
 20
55.61428871217485
 30
0.0
 11
203.5160064980512
 21
55.61428871217485
 31
0.0
  0
LINE
  5
534
330
1F
100
AcDbEntity
  8
TAGLIO
100
AcDbLine
 10
205.6560064980514
 20
53.47428871217484
 30
0.0
 11
205.6560064980514
 21
48.24198871217477
 31
0.0
  0
LINE
  5
535
330
1F
100
AcDbEntity
  8
TAGLIO
100
AcDbLine
 10
203.5160064980512
 20
46.10198871217476
 30
0.0
 11
198.2837064980515
 21
46.10198871217476
 31
0.0
  0
LINE
  5
536
330
1F
100
AcDbEntity
  8
TAGLIO
100
AcDbLine
 10
196.1437064980513
 20
48.24198871217477
 30
0.0
 11
196.1437064980513
 21
53.47428871217484
 31
0.0
  0
ARC
  5
537
330
1F
100
AcDbEntity
  8
TAGLIO
100
AcDbCircle
 10
198.2837064980515
 20
53.47428871217484
 30
0.0
 40
2.14
100
AcDbArc
 50
90.0
 51
180.0
  0
ARC
  5
538
330
1F
100
AcDbEntity
  8
TAGLIO
100
AcDbCircle
 10
203.5160064980512
 20
53.47428871217484
 30
0.0
 40
2.14
100
AcDbArc
 50
0.0
 51
90.0
  0
ARC
  5
539
330
1F
100
AcDbEntity
  8
TAGLIO
100
AcDbCircle
 10
203.5160064980512
 20
48.24198871217477
 30
0.0
 40
2.14
100
AcDbArc
 50
270.0
 51
0.0
  0
ARC
  5
53A
330
1F
100
AcDbEntity
  8
TAGLIO
100
AcDbCircle
 10
198.2837064980515
 20
48.24198871217477
 30
0.0
 40
2.14
100
AcDbArc
 50
180.0
 51
270.0
  0
LINE
  5
53B
330
1F
100
AcDbEntity
  8
TAGLIO
100
AcDbLine
 10
155.5620690648302
 20
56.97166370545595
 30
0.0
 11
205.4820690648305
 21
56.97166370545595
 31
0.0
  0
LINE
  5
53C
330
1F
100
AcDbEntity
  8
TAGLIO
100
AcDbLine
 10
155.5620690648302
 20
56.97166370545595
 30
0.0
 11
155.5620690648302
 21
65.55166370545597
 31
0.0
  0
LINE
  5
53D
330
1F
100
AcDbEntity
  8
TAGLIO
100
AcDbLine
 10
155.5620690648302
 20
65.55166370545597
 30
0.0
 11
205.4820690648305
 21
65.55166370545597
 31
0.0
  0
LINE
  5
53E
330
1F
100
AcDbEntity
  8
TAGLIO
100
AcDbLine
 10
205.4820690648305
 20
65.55166370545597
 30
0.0
 11
205.4820690648305
 21
56.97166370545595
 31
0.0
  0
ENDSEC
  0
SECTION
  2
OBJECTS
  0
DICTIONARY
  5
C
330
0
100
AcDbDictionary
281
     1
  3
ACAD_DETAILVIEWSTYLE
350
B5
  3
ACAD_GROUP
350
D
  3
ACAD_IMAGE_VARS
350
6A
  3
ACAD_LAYOUT
350
1A
  3
ACAD_MATERIAL
350
72
  3
ACAD_MLEADERSTYLE
350
3F
  3
ACAD_MLINESTYLE
350
17
  3
ACAD_PLOTSETTINGS
350
19
  3
ACAD_PLOTSTYLENAME
350
E
  3
ACAD_SCALELIST
350
40
  3
ACAD_SECTIONVIEWSTYLE
350
B6
  3
ACAD_TABLESTYLE
350
3B
  3
ACAD_VISUALSTYLE
350
2A
  3
AcDbVariableDictionary
350
3D
  3
ACDB_RECOMPOSE_DATA
350
541
  3
APPDATA
350
71
  0
SUN
  5
80
330
29
100
AcDbSun
 90
        1
290
     0
 63
     7
421
 16777215
 40
1.0
291
     1
 91
  2455826
 92
 54000000
292
     0
 70
     2
 71
   256
280
     1
  0
DICTIONARY
  5
B5
102
{ACAD_REACTORS
330
C
102
}
330
C
100
AcDbDictionary
281
     1
  0
DICTIONARY
  5
D
102
{ACAD_REACTORS
330
C
102
}
330
C
100
AcDbDictionary
281
     1
  0
RASTERVARIABLES
  5
6A
102
{ACAD_REACTORS
330
C
102
}
330
C
100
AcDbRasterVariables
 90
        0
 70
     1
 71
     1
 72
     1
  0
DICTIONARY
  5
1A
102
{ACAD_REACTORS
330
C
102
}
330
C
100
AcDbDictionary
281
     1
  3
Model
350
22
  3
Sheet1
350
1E
  3
Sheet2
350
26
  0
DICTIONARY
  5
72
102
{ACAD_REACTORS
330
C
102
}
330
C
100
AcDbDictionary
281
     1
  3
ByBlock
350
74
  3
ByLayer
350
73
  3
Global
350
75
  0
DICTIONARY
  5
3F
102
{ACAD_REACTORS
330
C
102
}
330
C
100
AcDbDictionary
281
     1
  0
DICTIONARY
  5
17
102
{ACAD_REACTORS
330
C
102
}
330
C
100
AcDbDictionary
281
     1
  3
Standard
350
18
  0
DICTIONARY
  5
19
102
{ACAD_REACTORS
330
C
102
}
330
C
100
AcDbDictionary
281
     1
  0
ACDBDICTIONARYWDFLT
  5
E
102
{ACAD_REACTORS
330
C
102
}
330
C
100
AcDbDictionary
281
     1
  3
Normal
350
F
100
AcDbDictionaryWithDefault
340
F
  0
DICTIONARY
  5
40
102
{ACAD_REACTORS
330
C
102
}
330
C
100
AcDbDictionary
281
     1
  3
A0
350
41
  3
A1
350
42
  3
A2
350
43
  3
A3
350
44
  3
A4
350
45
  3
A5
350
46
  3
A6
350
47
  3
A7
350
48
  3
A8
350
49
  3
A9
350
4A
  3
B0
350
4B
  3
B1
350
4C
  3
B2
350
4D
  3
B3
350
4E
  3
B4
350
4F
  3
B5
350
50
  3
B6
350
51
  3
B7
350
52
  3
B8
350
53
  3
B9
350
54
  3
C0
350
55
  3
C1
350
56
  3
C2
350
57
  3
C3
350
58
  3
C4
350
59
  3
C5
350
5A
  3
C6
350
5B
  3
C7
350
5C
  3
C8
350
5D
  3
C9
350
5E
  3
D0
350
5F
  3
D1
350
60
  3
D2
350
61
  0
DICTIONARY
  5
B6
102
{ACAD_REACTORS
330
C
102
}
330
C
100
AcDbDictionary
281
     1
  0
DICTIONARY
  5
3B
102
{ACAD_REACTORS
330
C
102
}
330
C
100
AcDbDictionary
281
     1
  3
Standard
350
3C
  0
DICTIONARY
  5
2A
102
{ACAD_REACTORS
330
C
102
}
330
C
100
AcDbDictionary
281
     1
  3
2dWireframe
350
2F
  3
3D Hidden
350
31
  3
3dWireframe
350
30
  3
Basic
350
32
  3
Brighten
350
36
  3
ColorChange
350
3A
  3
Conceptual
350
34
  3
Dim
350
35
  3
EdgeColorOff
350
7A
  3
Facepattern
350
39
  3
Flat
350
2B
  3
FlatWithEdges
350
2C
  3
Gouraud
350
2D
  3
GouraudWithEdges
350
2E
  3
Hidden
350
77
  3
JitterOff
350
78
  3
Linepattern
350
38
  3
OverhangOff
350
79
  3
Realistic
350
33
  3
Shaded
350
7F
  3
Shaded with edges
350
7E
  3
Shades of Gray
350
7B
  3
Sketchy
350
7C
  3
Thicken
350
37
  3
Wireframe
350
76
  3
X-Ray
350
7D
  0
DICTIONARY
  5
3D
102
{ACAD_REACTORS
330
C
102
}
330
C
100
AcDbDictionary
281
     1
  3
CANNOSCALE
350
62
  3
CTABLESTYLE
350
3E
  3
LIGHTSINBLOCKS
350
6F
  3
XCLIPFRAME
350
70
  0
XRECORD
  5
541
102
{ACAD_REACTORS
330
C
102
}
330
C
100
AcDbXrecord
280
     1
 90
        1
330
3C
  0
DICTIONARY
  5
71
102
{ACAD_REACTORS
330
C
102
}
330
C
100
AcDbDictionary
281
     1
  0
LAYOUT
  5
22
102
{ACAD_REACTORS
330
1A
102
}
330
1A
100
AcDbPlotSettings
  1

  2
none_device
  4
ISO_A3_(420.00_x_297.00_MM)
  6

 40
7.5
 41
20.0
 42
7.5
 43
20.0
 44
420.0
 45
297.0
 46
20.78282828282826
 47
0.0
 48
0.0
 49
0.0
140
0.0
141
0.0
142
1.0
143
1.155642023346303
 70
  1204
 72
     1
 73
     0
 74
     1
  7
monochrome.ctb
 75
     0
 76
     0
 77
     2
 78
   300
147
0.8653198653198654
148
-134.1869158878504
149
0.0
100
AcDbLayout
  1
Model
 70
     1
 71
     0
 10
0.0
 20
0.0
 11
420.0
 21
297.0
 12
0.0
 22
0.0
 32
0.0
 14
1.000000000000000E+20
 24
1.000000000000000E+20
 34
1.000000000000000E+20
 15
-1.000000000000000E+20
 25
-1.000000000000000E+20
 35
-1.000000000000000E+20
146
0.0
 13
0.0
 23
0.0
 33
0.0
 16
1.0
 26
0.0
 36
0.0
 17
0.0
 27
1.0
 37
0.0
 76
     0
330
1F
331
29
  0
LAYOUT
  5
1E
102
{ACAD_REACTORS
330
1A
102
}
330
1A
100
AcDbPlotSettings
  1

  2
none_device
  4

  6

 40
0.0
 41
0.0
 42
0.0
 43
0.0
 44
0.0
 45
0.0
 46
0.0
 47
0.0
 48
0.0
 49
0.0
140
0.0
141
0.0
142
1.0
143
1.0
 70
   688
 72
     0
 73
     0
 74
     5
  7

 75
    16
 76
     0
 77
     2
 78
   300
147
1.0
148
0.0
149
0.0
100
AcDbLayout
  1
Sheet1
 70
     1
 71
     1
 10
0.0
 20
0.0
 11
420.0
 21
297.0
 12
0.0
 22
0.0
 32
0.0
 14
1.000000000000000E+20
 24
1.000000000000000E+20
 34
1.000000000000000E+20
 15
-1.000000000000000E+20
 25
-1.000000000000000E+20
 35
-1.000000000000000E+20
146
0.0
 13
0.0
 23
0.0
 33
0.0
 16
1.0
 26
0.0
 36
0.0
 17
0.0
 27
1.0
 37
0.0
 76
     0
330
1B
  0
LAYOUT
  5
26
102
{ACAD_REACTORS
330
1A
102
}
330
1A
100
AcDbPlotSettings
  1

  2
none_device
  4

  6

 40
0.0
 41
0.0
 42
0.0
 43
0.0
 44
0.0
 45
0.0
 46
0.0
 47
0.0
 48
0.0
 49
0.0
140
0.0
141
0.0
142
1.0
143
1.0
 70
   688
 72
     0
 73
     0
 74
     5
  7

 75
    16
 76
     0
 77
     2
 78
   300
147
1.0
148
0.0
149
0.0
100
AcDbLayout
  1
Sheet2
 70
     1
 71
     2
 10
0.0
 20
0.0
 11
0.0
 21
0.0
 12
0.0
 22
0.0
 32
0.0
 14
0.0
 24
0.0
 34
0.0
 15
0.0
 25
0.0
 35
0.0
146
0.0
 13
0.0
 23
0.0
 33
0.0
 16
1.0
 26
0.0
 36
0.0
 17
0.0
 27
1.0
 37
0.0
 76
     0
330
23
  0
MATERIAL
  5
74
102
{ACAD_REACTORS
330
72
102
}
330
72
100
AcDbMaterial
  1
ByBlock
 72
     1
 94
      127
  0
MATERIAL
  5
73
102
{ACAD_REACTORS
330
72
102
}
330
72
100
AcDbMaterial
  1
ByLayer
 72
     1
 94
      127
  0
MATERIAL
  5
75
102
{ACAD_REACTORS
330
72
102
}
330
72
100
AcDbMaterial
  1
Global
 72
     1
 94
      127
  0
MLINESTYLE
  5
18
102
{ACAD_REACTORS
330
17
102
}
330
17
100
AcDbMlineStyle
  2
Standard
 70
     0
  3

 62
   256
 51
90.0
 52
90.0
 71
     2
 49
0.5
 62
   256
  6
BYLAYER
 49
-0.5
 62
   256
  6
BYLAYER
  0
ACDBPLACEHOLDER
  5
F
102
{ACAD_REACTORS
330
E
102
}
330
E
  0
SCALE
  5
41
102
{ACAD_REACTORS
330
40
102
}
330
40
100
AcDbScale
 70
     0
300
1:1
140
1.0
141
1.0
290
     1
  0
SCALE
  5
42
102
{ACAD_REACTORS
330
40
102
}
330
40
100
AcDbScale
 70
     0
300
1:2
140
1.0
141
2.0
290
     0
  0
SCALE
  5
43
102
{ACAD_REACTORS
330
40
102
}
330
40
100
AcDbScale
 70
     0
300
1:4
140
1.0
141
4.0
290
     0
  0
SCALE
  5
44
102
{ACAD_REACTORS
330
40
102
}
330
40
100
AcDbScale
 70
     0
300
1:5
140
1.0
141
5.0
290
     0
  0
SCALE
  5
45
102
{ACAD_REACTORS
330
40
102
}
330
40
100
AcDbScale
 70
     0
300
1:8
140
1.0
141
8.0
290
     0
  0
SCALE
  5
46
102
{ACAD_REACTORS
330
40
102
}
330
40
100
AcDbScale
 70
     0
300
1:10
140
1.0
141
10.0
290
     0
  0
SCALE
  5
47
102
{ACAD_REACTORS
330
40
102
}
330
40
100
AcDbScale
 70
     0
300
1:16
140
1.0
141
16.0
290
     0
  0
SCALE
  5
48
102
{ACAD_REACTORS
330
40
102
}
330
40
100
AcDbScale
 70
     0
300
1:20
140
1.0
141
20.0
290
     0
  0
SCALE
  5
49
102
{ACAD_REACTORS
330
40
102
}
330
40
100
AcDbScale
 70
     0
300
1:30
140
1.0
141
30.0
290
     0
  0
SCALE
  5
4A
102
{ACAD_REACTORS
330
40
102
}
330
40
100
AcDbScale
 70
     0
300
1:40
140
1.0
141
40.0
290
     0
  0
SCALE
  5
4B
102
{ACAD_REACTORS
330
40
102
}
330
40
100
AcDbScale
 70
     0
300
1:50
140
1.0
141
50.0
290
     0
  0
SCALE
  5
4C
102
{ACAD_REACTORS
330
40
102
}
330
40
100
AcDbScale
 70
     0
300
1:100
140
1.0
141
100.0
290
     0
  0
SCALE
  5
4D
102
{ACAD_REACTORS
330
40
102
}
330
40
100
AcDbScale
 70
     0
300
2:1
140
2.0
141
1.0
290
     0
  0
SCALE
  5
4E
102
{ACAD_REACTORS
330
40
102
}
330
40
100
AcDbScale
 70
     0
300
4:1
140
4.0
141
1.0
290
     0
  0
SCALE
  5
4F
102
{ACAD_REACTORS
330
40
102
}
330
40
100
AcDbScale
 70
     0
300
8:1
140
8.0
141
1.0
290
     0
  0
SCALE
  5
50
102
{ACAD_REACTORS
330
40
102
}
330
40
100
AcDbScale
 70
     0
300
10:1
140
10.0
141
1.0
290
     0
  0
SCALE
  5
51
102
{ACAD_REACTORS
330
40
102
}
330
40
100
AcDbScale
 70
     0
300
100:1
140
100.0
141
1.0
290
     0
  0
SCALE
  5
52
102
{ACAD_REACTORS
330
40
102
}
330
40
100
AcDbScale
 70
     0
300
1/128" = 1'-0"
140
0.0078125
141
12.0
290
     0
  0
SCALE
  5
53
102
{ACAD_REACTORS
330
40
102
}
330
40
100
AcDbScale
 70
     0
300
1/64" = 1'-0"
140
0.015625
141
12.0
290
     0
  0
SCALE
  5
54
102
{ACAD_REACTORS
330
40
102
}
330
40
100
AcDbScale
 70
     0
300
1/32" = 1'-0"
140
0.03125
141
12.0
290
     0
  0
SCALE
  5
55
102
{ACAD_REACTORS
330
40
102
}
330
40
100
AcDbScale
 70
     0
300
1/16" = 1'-0"
140
0.0625
141
12.0
290
     0
  0
SCALE
  5
56
102
{ACAD_REACTORS
330
40
102
}
330
40
100
AcDbScale
 70
     0
300
3/32" = 1'-0"
140
0.09375
141
12.0
290
     0
  0
SCALE
  5
57
102
{ACAD_REACTORS
330
40
102
}
330
40
100
AcDbScale
 70
     0
300
1/8" = 1'-0"
140
0.125
141
12.0
290
     0
  0
SCALE
  5
58
102
{ACAD_REACTORS
330
40
102
}
330
40
100
AcDbScale
 70
     0
300
3/16" = 1'-0"
140
0.1875
141
12.0
290
     0
  0
SCALE
  5
59
102
{ACAD_REACTORS
330
40
102
}
330
40
100
AcDbScale
 70
     0
300
1/4" = 1'-0"
140
0.25
141
12.0
290
     0
  0
SCALE
  5
5A
102
{ACAD_REACTORS
330
40
102
}
330
40
100
AcDbScale
 70
     0
300
3/8" = 1'-0"
140
0.375
141
12.0
290
     0
  0
SCALE
  5
5B
102
{ACAD_REACTORS
330
40
102
}
330
40
100
AcDbScale
 70
     0
300
1/2" = 1'-0"
140
0.5
141
12.0
290
     0
  0
SCALE
  5
5C
102
{ACAD_REACTORS
330
40
102
}
330
40
100
AcDbScale
 70
     0
300
3/4" = 1'-0"
140
0.75
141
12.0
290
     0
  0
SCALE
  5
5D
102
{ACAD_REACTORS
330
40
102
}
330
40
100
AcDbScale
 70
     0
300
1" = 1'-0"
140
1.0
141
12.0
290
     0
  0
SCALE
  5
5E
102
{ACAD_REACTORS
330
40
102
}
330
40
100
AcDbScale
 70
     0
300
1-1/2" = 1'-0"
140
1.5
141
12.0
290
     0
  0
SCALE
  5
5F
102
{ACAD_REACTORS
330
40
102
}
330
40
100
AcDbScale
 70
     0
300
3" = 1'-0"
140
3.0
141
12.0
290
     0
  0
SCALE
  5
60
102
{ACAD_REACTORS
330
40
102
}
330
40
100
AcDbScale
 70
     0
300
6" = 1'-0"
140
6.0
141
12.0
290
     0
  0
SCALE
  5
61
102
{ACAD_REACTORS
330
40
102
}
330
40
100
AcDbScale
 70
     0
300
1'-0" = 1'-0"
140
12.0
141
12.0
290
     0
  0
TABLESTYLE
  5
3C
102
{ACAD_REACTORS
330
3B
102
}
102
{ACAD_XDICTIONARY
360
53F
102
}
330
3B
100
AcDbTableStyle
  3
Standard
 70
     0
 71
     0
 40
1.5
 41
1.5
280
     0
281
     0
  7
Standard
140
4.5
170
     2
 62
     0
 63
   257
283
     0
 90
      512
 91
        0
  1

274
    -2
284
     1
 64
     0
275
    -2
285
     1
 65
     0
276
    -2
286
     1
 66
     0
277
    -2
287
     1
 67
     0
278
    -2
288
     1
 68
     0
279
    -2
289
     1
 69
     0
  7
Standard
140
6.0
170
     5
 62
     0
 63
   257
283
     0
 90
      512
 91
        0
  1

274
    -2
284
     1
 64
     0
275
    -2
285
     1
 65
     0
276
    -2
286
     1
 66
     0
277
    -2
287
     1
 67
     0
278
    -2
288
     1
 68
     0
279
    -2
289
     1
 69
     0
  7
Standard
140
4.5
170
     5
 62
     0
 63
   257
283
     0
 90
      512
 91
        0
  1

274
    -2
284
     1
 64
     0
275
    -2
285
     1
 65
     0
276
    -2
286
     1
 66
     0
277
    -2
287
     1
 67
     0
278
    -2
288
     1
 68
     0
279
    -2
289
     1
 69
     0
  0
VISUALSTYLE
  5
2F
102
{ACAD_REACTORS
330
2A
102
}
330
2A
100
AcDbVisualStyle
  2
2dWireframe
 70
     4
177
     3
291
     0
 70
    58
 90
        0
176
     1
 90
        2
176
     1
 90
        0
176
     1
 90
        0
176
     1
 40
-0.6
176
     1
 40
-30.0
176
     1
 62
     7
420
 16777215
176
     1
 90
        1
176
     1
 90
        4
176
     1
 62
     7
176
     1
 62
   257
176
     1
 90
        1
176
     1
 90
        1
176
     1
 40
1.0
176
     1
 90
        0
176
     1
 62
   257
176
     1
 40
1.0
176
     1
 90
        1
176
     1
 90
        6
176
     1
 90
        2
176
     1
 62
     7
176
     1
 90
        5
176
     1
 90
        0
176
     1
 90
        0
176
     1
290
     0
176
     1
 90
        1
176
     1
 40
0.0
176
     1
 90
        0
176
     1
290
     1
176
     1
290
     1
176
     1
290
     0
176
     1
290
     0
176
     1
290
     0
176
     1
290
     0
176
     1
290
     0
176
     1
290
     0
176
     1
290
     0
176
     1
 90
       50
176
     1
 40
0.0
176
     1
 40
1.0
176
     1
 90
        0
176
     1
 62
   178
420
        0
176
     1
 90
       50
176
     1
 90
        3
176
     1
 62
     5
420
      255
176
     1
290
     0
176
     1
 90
       50
176
     1
 90
       50
176
     1
 90
       50
176
     1
290
     0
176
     1
 90
       50
176
     1
 62
   256
176
     0
 40
1.0
176
     0
 90
        2
176
     1
  1
strokes_ogs.tif
176
     1
290
     0
176
     1
 40
1.0
176
     1
 40
1.0
176
     1
  0
VISUALSTYLE
  5
31
102
{ACAD_REACTORS
330
2A
102
}
330
2A
100
AcDbVisualStyle
  2
3D Hidden
 70
     6
177
     3
291
     0
 70
    58
 90
        1
176
     1
 90
        2
176
     1
 90
        2
176
     1
 90
        0
176
     1
 40
-0.6
176
     1
 40
-30.0
176
     1
 62
     7
420
 16777215
176
     1
 90
        2
176
     1
 90
        2
176
     1
 62
     7
176
     1
 62
   257
176
     1
 90
        2
176
     1
 90
        1
176
     1
 40
40.0
176
     1
 90
        0
176
     1
 62
   257
176
     1
 40
1.0
176
     1
 90
        1
176
     1
 90
        6
176
     1
 90
        2
176
     1
 62
     7
176
     1
 90
        3
176
     1
 90
        0
176
     1
 90
        0
176
     1
290
     0
176
     1
 90
        1
176
     1
 40
0.0
176
     1
 90
        0
176
     1
290
     0
176
     1
290
     1
176
     1
290
     1
176
     1
290
     0
176
     1
290
     0
176
     1
290
     0
176
     1
290
     0
176
     1
290
     0
176
     1
290
     0
176
     1
 90
       50
176
     1
 40
0.0
176
     1
 40
1.0
176
     1
 90
        0
176
     1
 62
   178
420
        0
176
     1
 90
       50
176
     1
 90
        3
176
     1
 62
     5
420
      255
176
     1
290
     0
176
     1
 90
       50
176
     1
 90
       50
176
     1
 90
       50
176
     1
290
     0
176
     1
 90
       50
176
     1
 62
   256
176
     0
 40
1.0
176
     0
 90
        2
176
     1
  1
strokes_ogs.tif
176
     1
290
     0
176
     1
 40
1.0
176
     1
 40
1.0
176
     1
  0
VISUALSTYLE
  5
30
102
{ACAD_REACTORS
330
2A
102
}
330
2A
100
AcDbVisualStyle
  2
3dWireframe
 70
     5
177
     3
291
     0
 70
    58
 90
        0
176
     1
 90
        2
176
     1
 90
        0
176
     1
 90
        0
176
     1
 40
-0.6
176
     1
 40
-30.0
176
     1
 62
     7
420
 16777215
176
     1
 90
        1
176
     1
 90
        4
176
     1
 62
     7
176
     1
 62
   257
176
     1
 90
        1
176
     1
 90
        1
176
     1
 40
1.0
176
     1
 90
        0
176
     1
 62
   257
176
     1
 40
1.0
176
     1
 90
        1
176
     1
 90
        6
176
     1
 90
        2
176
     1
 62
     7
176
     1
 90
        5
176
     1
 90
        0
176
     1
 90
        0
176
     1
290
     0
176
     1
 90
        1
176
     1
 40
0.0
176
     1
 90
        0
176
     1
290
     0
176
     1
290
     1
176
     1
290
     1
176
     1
290
     0
176
     1
290
     0
176
     1
290
     0
176
     1
290
     0
176
     1
290
     0
176
     1
290
     0
176
     1
 90
       50
176
     1
 40
0.0
176
     1
 40
1.0
176
     1
 90
        0
176
     1
 62
   178
420
        0
176
     1
 90
       50
176
     1
 90
        3
176
     1
 62
     5
420
      255
176
     1
290
     0
176
     1
 90
       50
176
     1
 90
       50
176
     1
 90
       50
176
     1
290
     0
176
     1
 90
       50
176
     1
 62
   256
176
     0
 40
1.0
176
     0
 90
        2
176
     1
  1
strokes_ogs.tif
176
     1
290
     0
176
     1
 40
1.0
176
     1
 40
1.0
176
     1
  0
VISUALSTYLE
  5
32
102
{ACAD_REACTORS
330
2A
102
}
330
2A
100
AcDbVisualStyle
  2
Basic
 70
     7
177
     3
291
     1
 70
    58
 90
        1
176
     1
 90
        0
176
     1
 90
        1
176
     1
 90
        0
176
     1
 40
-0.6
176
     1
 40
-30.0
176
     1
 62
     7
420
 16777215
176
     1
 90
        0
176
     1
 90
        4
176
     1
 62
     7
176
     1
 62
   257
176
     1
 90
        1
176
     1
 90
        1
176
     1
 40
1.0
176
     1
 90
        8
176
     1
 62
     7
176
     1
 40
1.0
176
     1
 90
        1
176
     1
 90
        6
176
     1
 90
        2
176
     1
 62
     7
176
     1
 90
        5
176
     1
 90
        0
176
     1
 90
        0
176
     1
290
     0
176
     1
 90
        1
176
     1
 40
0.0
176
     1
 90
        0
176
     1
290
     0
176
     1
290
     1
176
     1
290
     1
176
     1
290
     0
176
     1
290
     0
176
     1
290
     0
176
     1
290
     0
176
     1
290
     0
176
     1
290
     0
176
     1
 90
       50
176
     1
 40
0.0
176
     1
 40
1.0
176
     1
 90
        0
176
     1
 62
   178
420
        0
176
     1
 90
       50
176
     1
 90
        3
176
     1
 62
     5
420
      255
176
     1
290
     0
176
     1
 90
       50
176
     1
 90
       50
176
     1
 90
       50
176
     1
290
     0
176
     1
 90
       50
176
     1
 62
   256
176
     0
 40
1.0
176
     0
 90
        2
176
     1
  1
strokes_ogs.tif
176
     1
290
     0
176
     1
 40
1.0
176
     1
 40
1.0
176
     1
  0
VISUALSTYLE
  5
36
102
{ACAD_REACTORS
330
2A
102
}
330
2A
100
AcDbVisualStyle
  2
Brighten
 70
    12
177
     3
291
     1
 70
    58
 90
        2
176
     1
 90
        2
176
     1
 90
        0
176
     1
 90
        0
176
     1
 40
-0.6
176
     1
 40
-30.0
176
     1
 62
     7
420
 16777215
176
     1
 90
        1
176
     1
 90
        4
176
     1
 62
     7
176
     1
 62
   257
176
     1
 90
        1
176
     1
 90
        1
176
     1
 40
1.0
176
     1
 90
        8
176
     1
 62
     7
176
     1
 40
1.0
176
     1
 90
        1
176
     1
 90
        6
176
     1
 90
        2
176
     1
 62
     7
176
     1
 90
        5
176
     1
 90
        0
176
     1
 90
        0
176
     1
290
     0
176
     1
 90
        1
176
     1
 40
50.0
176
     1
 90
        0
176
     1
290
     0
176
     1
290
     1
176
     1
290
     1
176
     1
290
     0
176
     1
290
     0
176
     1
290
     0
176
     1
290
     0
176
     1
290
     0
176
     1
290
     0
176
     1
 90
       50
176
     1
 40
0.0
176
     1
 40
1.0
176
     1
 90
        0
176
     1
 62
   178
420
        0
176
     1
 90
       50
176
     1
 90
        3
176
     1
 62
     5
420
      255
176
     1
290
     0
176
     1
 90
       50
176
     1
 90
       50
176
     1
 90
       50
176
     1
290
     0
176
     1
 90
       50
176
     1
 62
   256
176
     0
 40
1.0
176
     0
 90
        2
176
     1
  1
strokes_ogs.tif
176
     1
290
     0
176
     1
 40
1.0
176
     1
 40
1.0
176
     1
  0
VISUALSTYLE
  5
3A
102
{ACAD_REACTORS
330
2A
102
}
330
2A
100
AcDbVisualStyle
  2
ColorChange
 70
    16
177
     3
291
     1
 70
    58
 90
        2
176
     1
 90
        2
176
     1
 90
        3
176
     1
 90
        0
176
     1
 40
-0.6
176
     1
 40
-30.0
176
     1
 62
     8
420
  8421504
176
     1
 90
        1
176
     1
 90
        4
176
     1
 62
     7
176
     1
 62
   257
176
     1
 90
        1
176
     1
 90
        1
176
     1
 40
1.0
176
     1
 90
        8
176
     1
 62
     8
420
  8421504
176
     1
 40
1.0
176
     1
 90
        1
176
     1
 90
        6
176
     1
 90
        2
176
     1
 62
     7
176
     1
 90
        5
176
     1
 90
        0
176
     1
 90
        0
176
     1
290
     0
176
     1
 90
        1
176
     1
 40
0.0
176
     1
 90
        0
176
     1
290
     0
176
     1
290
     1
176
     1
290
     1
176
     1
290
     0
176
     1
290
     0
176
     1
290
     0
176
     1
290
     0
176
     1
290
     0
176
     1
290
     0
176
     1
 90
       50
176
     1
 40
0.0
176
     1
 40
1.0
176
     1
 90
        0
176
     1
 62
   178
420
        0
176
     1
 90
       50
176
     1
 90
        3
176
     1
 62
     5
420
      255
176
     1
290
     0
176
     1
 90
       50
176
     1
 90
       50
176
     1
 90
       50
176
     1
290
     0
176
     1
 90
       50
176
     1
 62
   256
176
     0
 40
1.0
176
     0
 90
        2
176
     1
  1
strokes_ogs.tif
176
     1
290
     0
176
     1
 40
1.0
176
     1
 40
1.0
176
     1
  0
VISUALSTYLE
  5
34
102
{ACAD_REACTORS
330
2A
102
}
330
2A
100
AcDbVisualStyle
  2
Conceptual
 70
     9
177
     3
291
     0
 70
    58
 90
        3
176
     1
 90
        2
176
     1
 90
        0
176
     1
 90
        0
176
     1
 40
-0.6
176
     1
 40
-30.0
176
     1
 62
     7
420
 16777215
176
     1
 90
        2
176
     1
 90
        2
176
     1
 62
     7
176
     1
 62
   257
176
     1
 90
        1
176
     1
 90
        1
176
     1
 40
40.0
176
     1
 90
        8
176
     1
 62
     7
176
     1
 40
1.0
176
     1
 90
        1
176
     1
 90
        6
176
     1
 90
        2
176
     1
 62
     7
176
     1
 90
        3
176
     1
 90
        0
176
     1
 90
        0
176
     1
290
     0
176
     1
 90
        1
176
     1
 40
0.0
176
     1
 90
        0
176
     1
290
     0
176
     1
290
     1
176
     1
290
     1
176
     1
290
     0
176
     1
290
     0
176
     1
290
     0
176
     1
290
     0
176
     1
290
     0
176
     1
290
     0
176
     1
 90
       50
176
     1
 40
0.0
176
     1
 40
1.0
176
     1
 90
        0
176
     1
 62
   178
420
        0
176
     1
 90
       50
176
     1
 90
        3
176
     1
 62
     5
420
      255
176
     1
290
     0
176
     1
 90
       50
176
     1
 90
       50
176
     1
 90
       50
176
     1
290
     0
176
     1
 90
       50
176
     1
 62
   256
176
     0
 40
1.0
176
     0
 90
        2
176
     1
  1
strokes_ogs.tif
176
     1
290
     0
176
     1
 40
1.0
176
     1
 40
1.0
176
     1
  0
VISUALSTYLE
  5
35
102
{ACAD_REACTORS
330
2A
102
}
330
2A
100
AcDbVisualStyle
  2
Dim
 70
    11
177
     3
291
     1
 70
    58
 90
        2
176
     1
 90
        2
176
     1
 90
        0
176
     1
 90
        0
176
     1
 40
-0.6
176
     1
 40
-30.0
176
     1
 62
     7
420
 16777215
176
     1
 90
        1
176
     1
 90
        4
176
     1
 62
     7
176
     1
 62
   257
176
     1
 90
        1
176
     1
 90
        1
176
     1
 40
1.0
176
     1
 90
        8
176
     1
 62
     7
176
     1
 40
1.0
176
     1
 90
        1
176
     1
 90
        6
176
     1
 90
        2
176
     1
 62
     7
176
     1
 90
        5
176
     1
 90
        0
176
     1
 90
        0
176
     1
290
     0
176
     1
 90
        1
176
     1
 40
-50.0
176
     1
 90
        0
176
     1
290
     0
176
     1
290
     1
176
     1
290
     1
176
     1
290
     0
176
     1
290
     0
176
     1
290
     0
176
     1
290
     0
176
     1
290
     0
176
     1
290
     0
176
     1
 90
       50
176
     1
 40
0.0
176
     1
 40
1.0
176
     1
 90
        0
176
     1
 62
   178
420
        0
176
     1
 90
       50
176
     1
 90
        3
176
     1
 62
     5
420
      255
176
     1
290
     0
176
     1
 90
       50
176
     1
 90
       50
176
     1
 90
       50
176
     1
290
     0
176
     1
 90
       50
176
     1
 62
   256
176
     0
 40
1.0
176
     0
 90
        2
176
     1
  1
strokes_ogs.tif
176
     1
290
     0
176
     1
 40
1.0
176
     1
 40
1.0
176
     1
  0
VISUALSTYLE
  5
7A
102
{ACAD_REACTORS
330
2A
102
}
330
2A
100
AcDbVisualStyle
  2
EdgeColorOff
 70
    22
177
     3
291
     1
 70
    58
 90
        2
176
     0
 90
        2
176
     0
 90
        0
176
     0
 90
        0
176
     0
 40
0.6
176
     0
 40
30.0
176
     0
 62
     7
420
 16777215
176
     0
 90
        1
176
     0
 90
        4
176
     0
 62
     7
176
     0
 62
   257
176
     0
 90
        1
176
     0
 90
        1
176
     0
 40
1.0
176
     0
 90
        8
176
     2
 62
     7
176
     0
 40
1.0
176
     0
 90
        1
176
     0
 90
        6
176
     0
 90
        2
176
     0
 62
     7
176
     0
 90
        5
176
     0
 90
        0
176
     0
 90
        0
176
     0
290
     0
176
     0
 90
        1
176
     0
 40
0.0
176
     0
 90
        0
176
     0
290
     0
176
     0
290
     1
176
     0
290
     1
176
     0
290
     0
176
     0
290
     0
176
     0
290
     0
176
     0
290
     0
176
     0
290
     0
176
     0
290
     0
176
     0
 90
       50
176
     0
 40
0.0
176
     0
 40
1.0
176
     0
 90
        0
176
     0
 62
   178
420
        0
176
     0
 90
       50
176
     0
 90
        3
176
     0
 62
     5
420
      255
176
     0
290
     0
176
     0
 90
       50
176
     0
 90
       50
176
     0
 90
       50
176
     0
290
     0
176
     0
 90
       50
176
     0
 62
   256
176
     0
 40
1.0
176
     0
 90
        2
176
     0
  1
strokes_ogs.tif
176
     0
290
     0
176
     0
 40
1.0
176
     0
 40
1.0
176
     0
  0
VISUALSTYLE
  5
39
102
{ACAD_REACTORS
330
2A
102
}
330
2A
100
AcDbVisualStyle
  2
Facepattern
 70
    15
177
     3
291
     1
 70
    58
 90
        2
176
     1
 90
        2
176
     1
 90
        0
176
     1
 90
        0
176
     1
 40
-0.6
176
     1
 40
-30.0
176
     1
 62
     7
420
 16777215
176
     1
 90
        1
176
     1
 90
        4
176
     1
 62
     7
176
     1
 62
   257
176
     1
 90
        1
176
     1
 90
        1
176
     1
 40
1.0
176
     1
 90
        8
176
     1
 62
     7
176
     1
 40
1.0
176
     1
 90
        1
176
     1
 90
        6
176
     1
 90
        2
176
     1
 62
     7
176
     1
 90
        5
176
     1
 90
        0
176
     1
 90
        0
176
     1
290
     0
176
     1
 90
        1
176
     1
 40
0.0
176
     1
 90
        0
176
     1
290
     0
176
     1
290
     1
176
     1
290
     1
176
     1
290
     0
176
     1
290
     0
176
     1
290
     0
176
     1
290
     0
176
     1
290
     0
176
     1
290
     0
176
     1
 90
       50
176
     1
 40
0.0
176
     1
 40
1.0
176
     1
 90
        0
176
     1
 62
   178
420
        0
176
     1
 90
       50
176
     1
 90
        3
176
     1
 62
     5
420
      255
176
     1
290
     0
176
     1
 90
       50
176
     1
 90
       50
176
     1
 90
       50
176
     1
290
     0
176
     1
 90
       50
176
     1
 62
   256
176
     0
 40
1.0
176
     0
 90
        2
176
     1
  1
strokes_ogs.tif
176
     1
290
     0
176
     1
 40
1.0
176
     1
 40
1.0
176
     1
  0
VISUALSTYLE
  5
2B
102
{ACAD_REACTORS
330
2A
102
}
330
2A
100
AcDbVisualStyle
  2
Flat
 70
     0
177
     3
291
     1
 70
    58
 90
        2
176
     1
 90
        1
176
     1
 90
        1
176
     1
 90
        2
176
     1
 40
-0.6
176
     1
 40
30.0
176
     1
 62
     7
420
 16777215
176
     1
 90
        0
176
     1
 90
        4
176
     1
 62
     7
176
     1
 62
   257
176
     1
 90
        1
176
     1
 90
        1
176
     1
 40
1.0
176
     1
 90
        8
176
     1
 62
     7
176
     1
 40
1.0
176
     1
 90
        1
176
     1
 90
        6
176
     1
 90
        2
176
     1
 62
     7
176
     1
 90
        5
176
     1
 90
        0
176
     1
 90
        0
176
     1
290
     0
176
     1
 90
       13
176
     1
 40
0.0
176
     1
 90
        0
176
     1
290
     0
176
     1
290
     1
176
     1
290
     1
176
     1
290
     0
176
     1
290
     0
176
     1
290
     0
176
     1
290
     0
176
     1
290
     0
176
     1
290
     0
176
     1
 90
       50
176
     1
 40
0.0
176
     1
 40
1.0
176
     1
 90
        0
176
     1
 62
   178
420
        0
176
     1
 90
       50
176
     1
 90
        3
176
     1
 62
     5
420
      255
176
     1
290
     0
176
     1
 90
       50
176
     1
 90
       50
176
     1
 90
       50
176
     1
290
     0
176
     1
 90
       50
176
     1
 62
   256
176
     0
 40
1.0
176
     0
 90
        2
176
     1
  1
strokes_ogs.tif
176
     1
290
     0
176
     1
 40
1.0
176
     1
 40
1.0
176
     1
  0
VISUALSTYLE
  5
2C
102
{ACAD_REACTORS
330
2A
102
}
330
2A
100
AcDbVisualStyle
  2
FlatWithEdges
 70
     1
177
     3
291
     1
 70
    58
 90
        2
176
     1
 90
        1
176
     1
 90
        1
176
     1
 90
        2
176
     1
 40
-0.6
176
     1
 40
30.0
176
     1
 62
     7
420
 16777215
176
     1
 90
        1
176
     1
 90
        4
176
     1
 62
     7
176
     1
 62
   257
176
     1
 90
        1
176
     1
 90
        1
176
     1
 40
1.0
176
     1
 90
        0
176
     1
 62
   257
176
     1
 40
1.0
176
     1
 90
        1
176
     1
 90
        6
176
     1
 90
        2
176
     1
 62
     7
176
     1
 90
        5
176
     1
 90
        0
176
     1
 90
        0
176
     1
290
     0
176
     1
 90
       13
176
     1
 40
0.0
176
     1
 90
        0
176
     1
290
     0
176
     1
290
     1
176
     1
290
     1
176
     1
290
     0
176
     1
290
     0
176
     1
290
     0
176
     1
290
     0
176
     1
290
     0
176
     1
290
     0
176
     1
 90
       50
176
     1
 40
0.0
176
     1
 40
1.0
176
     1
 90
        0
176
     1
 62
   178
420
        0
176
     1
 90
       50
176
     1
 90
        3
176
     1
 62
     5
420
      255
176
     1
290
     0
176
     1
 90
       50
176
     1
 90
       50
176
     1
 90
       50
176
     1
290
     0
176
     1
 90
       50
176
     1
 62
   256
176
     0
 40
1.0
176
     0
 90
        2
176
     1
  1
strokes_ogs.tif
176
     1
290
     0
176
     1
 40
1.0
176
     1
 40
1.0
176
     1
  0
VISUALSTYLE
  5
2D
102
{ACAD_REACTORS
330
2A
102
}
330
2A
100
AcDbVisualStyle
  2
Gouraud
 70
     2
177
     3
291
     1
 70
    58
 90
        2
176
     1
 90
        2
176
     1
 90
        1
176
     1
 90
        2
176
     1
 40
-0.6
176
     1
 40
30.0
176
     1
 62
     7
420
 16777215
176
     1
 90
        0
176
     1
 90
        4
176
     1
 62
     7
176
     1
 62
   257
176
     1
 90
        1
176
     1
 90
        1
176
     1
 40
1.0
176
     1
 90
        0
176
     1
 62
     7
176
     1
 40
1.0
176
     1
 90
        1
176
     1
 90
        6
176
     1
 90
        2
176
     1
 62
     7
176
     1
 90
        5
176
     1
 90
        0
176
     1
 90
        0
176
     1
290
     0
176
     1
 90
       13
176
     1
 40
0.0
176
     1
 90
        0
176
     1
290
     0
176
     1
290
     1
176
     1
290
     1
176
     1
290
     0
176
     1
290
     0
176
     1
290
     0
176
     1
290
     0
176
     1
290
     0
176
     1
290
     0
176
     1
 90
       50
176
     1
 40
0.0
176
     1
 40
1.0
176
     1
 90
        0
176
     1
 62
   178
420
        0
176
     1
 90
       50
176
     1
 90
        3
176
     1
 62
     5
420
      255
176
     1
290
     0
176
     1
 90
       50
176
     1
 90
       50
176
     1
 90
       50
176
     1
290
     0
176
     1
 90
       50
176
     1
 62
   256
176
     0
 40
1.0
176
     0
 90
        2
176
     1
  1
strokes_ogs.tif
176
     1
290
     0
176
     1
 40
1.0
176
     1
 40
1.0
176
     1
  0
VISUALSTYLE
  5
2E
102
{ACAD_REACTORS
330
2A
102
}
330
2A
100
AcDbVisualStyle
  2
GouraudWithEdges
 70
     3
177
     3
291
     1
 70
    58
 90
        2
176
     1
 90
        2
176
     1
 90
        1
176
     1
 90
        2
176
     1
 40
-0.6
176
     1
 40
30.0
176
     1
 62
     7
420
 16777215
176
     1
 90
        1
176
     1
 90
        4
176
     1
 62
     7
176
     1
 62
   257
176
     1
 90
        1
176
     1
 90
        1
176
     1
 40
1.0
176
     1
 90
        0
176
     1
 62
   257
176
     1
 40
1.0
176
     1
 90
        1
176
     1
 90
        6
176
     1
 90
        2
176
     1
 62
     7
176
     1
 90
        5
176
     1
 90
        0
176
     1
 90
        0
176
     1
290
     0
176
     1
 90
       13
176
     1
 40
0.0
176
     1
 90
        0
176
     1
290
     0
176
     1
290
     1
176
     1
290
     1
176
     1
290
     0
176
     1
290
     0
176
     1
290
     0
176
     1
290
     0
176
     1
290
     0
176
     1
290
     0
176
     1
 90
       50
176
     1
 40
0.0
176
     1
 40
1.0
176
     1
 90
        0
176
     1
 62
   178
420
        0
176
     1
 90
       50
176
     1
 90
        3
176
     1
 62
     5
420
      255
176
     1
290
     0
176
     1
 90
       50
176
     1
 90
       50
176
     1
 90
       50
176
     1
290
     0
176
     1
 90
       50
176
     1
 62
   256
176
     0
 40
1.0
176
     0
 90
        2
176
     1
  1
strokes_ogs.tif
176
     1
290
     0
176
     1
 40
1.0
176
     1
 40
1.0
176
     1
  0
VISUALSTYLE
  5
77
102
{ACAD_REACTORS
330
2A
102
}
330
2A
100
AcDbVisualStyle
  2
Hidden
 70
     6
177
     3
291
     0
 70
    58
 90
        1
176
     1
 90
        2
176
     1
 90
        2
176
     1
 90
        0
176
     1
 40
0.6
176
     1
 40
30.0
176
     1
 62
     7
420
 16777215
176
     1
 90
        2
176
     1
 90
        2
176
     1
 62
     7
176
     1
 62
   257
176
     1
 90
        2
176
     1
 90
        1
176
     1
 40
40.0
176
     1
 90
        0
176
     1
 62
   257
176
     1
 40
1.0
176
     1
 90
        1
176
     1
 90
        6
176
     1
 90
        2
176
     1
 62
     7
176
     1
 90
        3
176
     1
 90
        0
176
     1
 90
        0
176
     1
290
     0
176
     1
 90
        1
176
     1
 40
0.0
176
     1
 90
        0
176
     1
290
     0
176
     1
290
     1
176
     1
290
     1
176
     1
290
     0
176
     1
290
     0
176
     1
290
     0
176
     1
290
     0
176
     1
290
     0
176
     1
290
     0
176
     1
 90
       50
176
     1
 40
0.0
176
     1
 40
1.0
176
     1
 90
        0
176
     1
 62
   178
420
        0
176
     1
 90
       50
176
     1
 90
        3
176
     1
 62
     5
420
      255
176
     1
290
     0
176
     1
 90
       50
176
     1
 90
       50
176
     1
 90
       50
176
     1
290
     0
176
     1
 90
       50
176
     1
 62
   256
176
     0
 40
1.0
176
     0
 90
        2
176
     1
  1
strokes_ogs.tif
176
     1
290
     0
176
     1
 40
1.0
176
     1
 40
1.0
176
     1
  0
VISUALSTYLE
  5
78
102
{ACAD_REACTORS
330
2A
102
}
330
2A
100
AcDbVisualStyle
  2
JitterOff
 70
    20
177
     3
291
     1
 70
    58
 90
        2
176
     0
 90
        2
176
     0
 90
        0
176
     0
 90
        0
176
     0
 40
0.6
176
     0
 40
30.0
176
     0
 62
     7
420
 16777215
176
     0
 90
        1
176
     0
 90
        4
176
     0
 62
     7
176
     0
 62
   257
176
     0
 90
        1
176
     0
 90
        1
176
     0
 40
1.0
176
     0
 90
       10
176
     2
 62
     7
176
     0
 40
1.0
176
     0
 90
        1
176
     0
 90
        6
176
     0
 90
        2
176
     0
 62
     7
176
     0
 90
        5
176
     0
 90
        0
176
     0
 90
        0
176
     0
290
     0
176
     0
 90
        1
176
     0
 40
0.0
176
     0
 90
        0
176
     0
290
     0
176
     0
290
     1
176
     0
290
     1
176
     0
290
     0
176
     0
290
     0
176
     0
290
     0
176
     0
290
     0
176
     0
290
     0
176
     0
290
     0
176
     0
 90
       50
176
     0
 40
0.0
176
     0
 40
1.0
176
     0
 90
        0
176
     0
 62
   178
420
        0
176
     0
 90
       50
176
     0
 90
        3
176
     0
 62
     5
420
      255
176
     0
290
     0
176
     0
 90
       50
176
     0
 90
       50
176
     0
 90
       50
176
     0
290
     0
176
     0
 90
       50
176
     0
 62
   256
176
     0
 40
1.0
176
     0
 90
        2
176
     0
  1
strokes_ogs.tif
176
     0
290
     0
176
     0
 40
1.0
176
     0
 40
1.0
176
     0
  0
VISUALSTYLE
  5
38
102
{ACAD_REACTORS
330
2A
102
}
330
2A
100
AcDbVisualStyle
  2
Linepattern
 70
    14
177
     3
291
     1
 70
    58
 90
        2
176
     1
 90
        2
176
     1
 90
        0
176
     1
 90
        0
176
     1
 40
-0.6
176
     1
 40
-30.0
176
     1
 62
     7
420
 16777215
176
     1
 90
        1
176
     1
 90
        4
176
     1
 62
     7
176
     1
 62
   257
176
     1
 90
        7
176
     1
 90
        7
176
     1
 40
1.0
176
     1
 90
        8
176
     1
 62
     7
176
     1
 40
1.0
176
     1
 90
        1
176
     1
 90
        6
176
     1
 90
        2
176
     1
 62
     7
176
     1
 90
        5
176
     1
 90
        0
176
     1
 90
        0
176
     1
290
     0
176
     1
 90
        1
176
     1
 40
0.0
176
     1
 90
        0
176
     1
290
     0
176
     1
290
     1
176
     1
290
     1
176
     1
290
     0
176
     1
290
     0
176
     1
290
     0
176
     1
290
     0
176
     1
290
     0
176
     1
290
     0
176
     1
 90
       50
176
     1
 40
0.0
176
     1
 40
1.0
176
     1
 90
        0
176
     1
 62
   178
420
        0
176
     1
 90
       50
176
     1
 90
        3
176
     1
 62
     5
420
      255
176
     1
290
     0
176
     1
 90
       50
176
     1
 90
       50
176
     1
 90
       50
176
     1
290
     0
176
     1
 90
       50
176
     1
 62
   256
176
     0
 40
1.0
176
     0
 90
        2
176
     1
  1
strokes_ogs.tif
176
     1
290
     0
176
     1
 40
1.0
176
     1
 40
1.0
176
     1
  0
VISUALSTYLE
  5
79
102
{ACAD_REACTORS
330
2A
102
}
330
2A
100
AcDbVisualStyle
  2
OverhangOff
 70
    21
177
     3
291
     1
 70
    58
 90
        2
176
     0
 90
        2
176
     0
 90
        0
176
     0
 90
        0
176
     0
 40
0.6
176
     0
 40
30.0
176
     0
 62
     7
420
 16777215
176
     0
 90
        1
176
     0
 90
        4
176
     0
 62
     7
176
     0
 62
   257
176
     0
 90
        1
176
     0
 90
        1
176
     0
 40
1.0
176
     0
 90
        9
176
     2
 62
     7
176
     0
 40
1.0
176
     0
 90
        1
176
     0
 90
        6
176
     0
 90
        2
176
     0
 62
     7
176
     0
 90
        5
176
     0
 90
        0
176
     0
 90
        0
176
     0
290
     0
176
     0
 90
        1
176
     0
 40
0.0
176
     0
 90
        0
176
     0
290
     0
176
     0
290
     1
176
     0
290
     1
176
     0
290
     0
176
     0
290
     0
176
     0
290
     0
176
     0
290
     0
176
     0
290
     0
176
     0
290
     0
176
     0
 90
       50
176
     0
 40
0.0
176
     0
 40
1.0
176
     0
 90
        0
176
     0
 62
   178
420
        0
176
     0
 90
       50
176
     0
 90
        3
176
     0
 62
     5
420
      255
176
     0
290
     0
176
     0
 90
       50
176
     0
 90
       50
176
     0
 90
       50
176
     0
290
     0
176
     0
 90
       50
176
     0
 62
   256
176
     0
 40
1.0
176
     0
 90
        2
176
     0
  1
strokes_ogs.tif
176
     0
290
     0
176
     0
 40
1.0
176
     0
 40
1.0
176
     0
  0
VISUALSTYLE
  5
33
102
{ACAD_REACTORS
330
2A
102
}
330
2A
100
AcDbVisualStyle
  2
Realistic
 70
     8
177
     3
291
     0
 70
    58
 90
        2
176
     1
 90
        2
176
     1
 90
        0
176
     1
 90
        0
176
     1
 40
-0.6
176
     1
 40
-30.0
176
     1
 62
     7
420
 16777215
176
     1
 90
        1
176
     1
 90
        0
176
     1
 62
     7
176
     1
 62
   257
176
     1
 90
        1
176
     1
 90
        1
176
     1
 40
1.0
176
     1
 90
        8
176
     1
 62
     8
420
  7895160
176
     1
 40
1.0
176
     1
 90
        1
176
     1
 90
        6
176
     1
 90
        2
176
     1
 62
     7
176
     1
 90
        5
176
     1
 90
        0
176
     1
 90
        0
176
     1
290
     0
176
     1
 90
       13
176
     1
 40
0.0
176
     1
 90
        0
176
     1
290
     0
176
     1
290
     1
176
     1
290
     1
176
     1
290
     0
176
     1
290
     0
176
     1
290
     0
176
     1
290
     0
176
     1
290
     0
176
     1
290
     0
176
     1
 90
       50
176
     1
 40
0.0
176
     1
 40
1.0
176
     1
 90
        0
176
     1
 62
   178
420
        0
176
     1
 90
       50
176
     1
 90
        3
176
     1
 62
     5
420
      255
176
     1
290
     0
176
     1
 90
       50
176
     1
 90
       50
176
     1
 90
       50
176
     1
290
     0
176
     1
 90
       50
176
     1
 62
   256
176
     0
 40
1.0
176
     0
 90
        2
176
     1
  1
strokes_ogs.tif
176
     1
290
     0
176
     1
 40
1.0
176
     1
 40
1.0
176
     1
  0
VISUALSTYLE
  5
7F
102
{ACAD_REACTORS
330
2A
102
}
330
2A
100
AcDbVisualStyle
  2
Shaded
 70
    27
177
     3
291
     0
 70
    58
 90
        2
176
     1
 90
        2
176
     1
 90
        1
176
     1
 90
        2
176
     1
 40
0.6
176
     1
 40
30.0
176
     1
 62
     7
420
 16777215
176
     1
 90
        0
176
     1
 90
        4
176
     1
 62
     7
176
     1
 62
   257
176
     1
 90
        1
176
     1
 90
        1
176
     1
 40
1.0
176
     1
 90
        8
176
     1
 62
   257
176
     1
 40
1.0
176
     1
 90
        1
176
     1
 90
        6
176
     1
 90
        2
176
     1
 62
     8
420
  7895160
176
     1
 90
        3
176
     1
 90
        0
176
     1
 90
        0
176
     1
290
     0
176
     1
 90
        5
176
     1
 40
0.0
176
     1
 90
        0
176
     1
290
     0
176
     1
290
     1
176
     1
290
     1
176
     1
290
     0
176
     1
290
     0
176
     1
290
     0
176
     1
290
     0
176
     1
290
     0
176
     1
290
     0
176
     1
 90
       50
176
     1
 40
0.0
176
     1
 40
1.0
176
     1
 90
        0
176
     1
 62
   178
420
        0
176
     1
 90
       50
176
     1
 90
        3
176
     1
 62
     5
420
      255
176
     1
290
     0
176
     1
 90
       50
176
     1
 90
       50
176
     1
 90
       50
176
     1
290
     0
176
     1
 90
       50
176
     1
 62
   256
176
     0
 40
1.0
176
     0
 90
        2
176
     1
  1
strokes_ogs.tif
176
     1
290
     0
176
     1
 40
1.0
176
     1
 40
1.0
176
     1
  0
VISUALSTYLE
  5
7E
102
{ACAD_REACTORS
330
2A
102
}
330
2A
100
AcDbVisualStyle
  2
Shaded with edges
 70
    26
177
     3
291
     0
 70
    58
 90
        2
176
     1
 90
        2
176
     1
 90
        1
176
     1
 90
        2
176
     1
 40
0.6
176
     1
 40
30.0
176
     1
 62
     7
420
 16777215
176
     1
 90
        1
176
     1
 90
       10
176
     1
 62
     7
176
     1
 62
   257
176
     1
 90
        2
176
     1
 90
        1
176
     1
 40
1.0
176
     1
 90
        8
176
     1
 62
   257
176
     1
 40
1.0
176
     1
 90
        1
176
     1
 90
        6
176
     1
 90
        2
176
     1
 62
     7
176
     1
 90
        3
176
     1
 90
        0
176
     1
 90
        0
176
     1
290
     0
176
     1
 90
        5
176
     1
 40
0.0
176
     1
 90
        0
176
     1
290
     0
176
     1
290
     1
176
     1
290
     1
176
     1
290
     0
176
     1
290
     0
176
     1
290
     0
176
     1
290
     0
176
     1
290
     0
176
     1
290
     0
176
     1
 90
       50
176
     1
 40
0.0
176
     1
 40
1.0
176
     1
 90
        0
176
     1
 62
   178
420
        0
176
     1
 90
       50
176
     1
 90
        3
176
     1
 62
     5
420
      255
176
     1
290
     0
176
     1
 90
       50
176
     1
 90
       50
176
     1
 90
       50
176
     1
290
     0
176
     1
 90
       50
176
     1
 62
   256
176
     0
 40
1.0
176
     0
 90
        2
176
     1
  1
strokes_ogs.tif
176
     1
290
     0
176
     1
 40
1.0
176
     1
 40
1.0
176
     1
  0
VISUALSTYLE
  5
7B
102
{ACAD_REACTORS
330
2A
102
}
330
2A
100
AcDbVisualStyle
  2
Shades of Gray
 70
    23
177
     3
291
     0
 70
    58
 90
        2
176
     1
 90
        2
176
     1
 90
        3
176
     1
 90
        0
176
     1
 40
0.6
176
     1
 40
30.0
176
     1
 62
     7
420
 16777215
176
     1
 90
        2
176
     1
 90
        2
176
     1
 62
     7
176
     1
 62
     7
176
     1
 90
        1
176
     1
 90
        1
176
     1
 40
40.0
176
     1
 90
        8
176
     1
 62
     7
176
     1
 40
1.0
176
     1
 90
        1
176
     1
 90
        6
176
     1
 90
        2
176
     1
 62
     7
176
     1
 90
        3
176
     1
 90
        0
176
     1
 90
        0
176
     1
290
     0
176
     1
 90
        1
176
     1
 40
0.0
176
     1
 90
        0
176
     1
290
     0
176
     1
290
     1
176
     1
290
     1
176
     1
290
     0
176
     1
290
     0
176
     1
290
     0
176
     1
290
     0
176
     1
290
     0
176
     1
290
     0
176
     1
 90
       50
176
     1
 40
0.0
176
     1
 40
1.0
176
     1
 90
        0
176
     1
 62
   178
420
        0
176
     1
 90
       50
176
     1
 90
        3
176
     1
 62
     5
420
      255
176
     1
290
     0
176
     1
 90
       50
176
     1
 90
       50
176
     1
 90
       50
176
     1
290
     0
176
     1
 90
       50
176
     1
 62
   256
176
     0
 40
1.0
176
     0
 90
        2
176
     1
  1
strokes_ogs.tif
176
     1
290
     0
176
     1
 40
1.0
176
     1
 40
1.0
176
     1
  0
VISUALSTYLE
  5
7C
102
{ACAD_REACTORS
330
2A
102
}
330
2A
100
AcDbVisualStyle
  2
Sketchy
 70
    24
177
     3
291
     0
 70
    58
 90
        1
176
     1
 90
        2
176
     1
 90
        2
176
     1
 90
        0
176
     1
 40
0.6
176
     1
 40
30.0
176
     1
 62
     7
420
 16777215
176
     1
 90
        2
176
     1
 90
        2
176
     1
 62
     7
176
     1
 62
     7
176
     1
 90
        1
176
     1
 90
        1
176
     1
 40
40.0
176
     1
 90
       11
176
     1
 62
     7
176
     1
 40
1.0
176
     1
 90
        1
176
     1
 90
        6
176
     1
 90
        2
176
     1
 62
     7
176
     1
 90
        6
176
     1
 90
        0
176
     1
 90
        0
176
     1
290
     0
176
     1
 90
        1
176
     1
 40
0.0
176
     1
 90
        0
176
     1
290
     0
176
     1
290
     1
176
     1
290
     1
176
     1
290
     0
176
     1
290
     0
176
     1
290
     0
176
     1
290
     0
176
     1
290
     0
176
     1
290
     0
176
     1
 90
       50
176
     1
 40
0.0
176
     1
 40
1.0
176
     1
 90
        0
176
     1
 62
   178
420
        0
176
     1
 90
       50
176
     1
 90
        3
176
     1
 62
     5
420
      255
176
     1
290
     0
176
     1
 90
       50
176
     1
 90
       50
176
     1
 90
       50
176
     1
290
     0
176
     1
 90
       50
176
     1
 62
   256
176
     0
 40
1.0
176
     0
 90
        2
176
     1
  1
strokes_ogs.tif
176
     1
290
     0
176
     1
 40
1.0
176
     1
 40
1.0
176
     1
  0
VISUALSTYLE
  5
37
102
{ACAD_REACTORS
330
2A
102
}
330
2A
100
AcDbVisualStyle
  2
Thicken
 70
    13
177
     3
291
     1
 70
    58
 90
        2
176
     1
 90
        2
176
     1
 90
        0
176
     1
 90
        0
176
     1
 40
-0.6
176
     1
 40
-30.0
176
     1
 62
     7
420
 16777215
176
     1
 90
        1
176
     1
 90
        4
176
     1
 62
     7
176
     1
 62
   257
176
     1
 90
        1
176
     1
 90
        1
176
     1
 40
1.0
176
     1
 90
       12
176
     1
 62
     7
176
     1
 40
1.0
176
     1
 90
        1
176
     1
 90
        6
176
     1
 90
        2
176
     1
 62
     7
176
     1
 90
        5
176
     1
 90
        0
176
     1
 90
        0
176
     1
290
     0
176
     1
 90
        1
176
     1
 40
0.0
176
     1
 90
        0
176
     1
290
     0
176
     1
290
     1
176
     1
290
     1
176
     1
290
     0
176
     1
290
     0
176
     1
290
     0
176
     1
290
     0
176
     1
290
     0
176
     1
290
     0
176
     1
 90
       50
176
     1
 40
0.0
176
     1
 40
1.0
176
     1
 90
        0
176
     1
 62
   178
420
        0
176
     1
 90
       50
176
     1
 90
        3
176
     1
 62
     5
420
      255
176
     1
290
     0
176
     1
 90
       50
176
     1
 90
       50
176
     1
 90
       50
176
     1
290
     0
176
     1
 90
       50
176
     1
 62
   256
176
     0
 40
1.0
176
     0
 90
        2
176
     1
  1
strokes_ogs.tif
176
     1
290
     0
176
     1
 40
1.0
176
     1
 40
1.0
176
     1
  0
VISUALSTYLE
  5
76
102
{ACAD_REACTORS
330
2A
102
}
330
2A
100
AcDbVisualStyle
  2
Wireframe
 70
     5
177
     3
291
     0
 70
    58
 90
        0
176
     1
 90
        2
176
     1
 90
        0
176
     1
 90
        0
176
     1
 40
0.6
176
     1
 40
30.0
176
     1
 62
     7
420
 16777215
176
     1
 90
        1
176
     1
 90
        4
176
     1
 62
     7
176
     1
 62
   257
176
     1
 90
        1
176
     1
 90
        1
176
     1
 40
1.0
176
     1
 90
        0
176
     1
 62
   257
176
     1
 40
1.0
176
     1
 90
        1
176
     1
 90
        6
176
     1
 90
        2
176
     1
 62
     7
176
     1
 90
        3
176
     1
 90
        0
176
     1
 90
        0
176
     1
290
     0
176
     1
 90
        1
176
     1
 40
0.0
176
     1
 90
        0
176
     1
290
     0
176
     1
290
     1
176
     1
290
     1
176
     1
290
     0
176
     1
290
     0
176
     1
290
     0
176
     1
290
     0
176
     1
290
     0
176
     1
290
     0
176
     1
 90
       50
176
     1
 40
0.0
176
     1
 40
1.0
176
     1
 90
        0
176
     1
 62
   178
420
        0
176
     1
 90
       50
176
     1
 90
        3
176
     1
 62
     5
420
      255
176
     1
290
     0
176
     1
 90
       50
176
     1
 90
       50
176
     1
 90
       50
176
     1
290
     0
176
     1
 90
       50
176
     1
 62
   256
176
     0
 40
1.0
176
     0
 90
        2
176
     1
  1
strokes_ogs.tif
176
     1
290
     0
176
     1
 40
1.0
176
     1
 40
1.0
176
     1
  0
VISUALSTYLE
  5
7D
102
{ACAD_REACTORS
330
2A
102
}
330
2A
100
AcDbVisualStyle
  2
X-Ray
 70
    25
177
     3
291
     0
 70
    58
 90
        2
176
     1
 90
        2
176
     1
 90
        1
176
     1
 90
        1
176
     1
 40
0.5
176
     1
 40
30.0
176
     1
 62
     7
420
 16777215
176
     1
 90
        1
176
     1
 90
        0
176
     1
 62
     7
176
     1
 62
   257
176
     1
 90
        1
176
     1
 90
        1
176
     1
 40
1.0
176
     1
 90
        8
176
     1
 62
     7
176
     1
 40
1.0
176
     1
 90
        1
176
     1
 90
        6
176
     1
 90
        2
176
     1
 62
     7
176
     1
 90
        3
176
     1
 90
        0
176
     1
 90
        0
176
     1
290
     0
176
     1
 90
       13
176
     1
 40
0.0
176
     1
 90
        0
176
     1
290
     0
176
     1
290
     1
176
     1
290
     1
176
     1
290
     0
176
     1
290
     0
176
     1
290
     0
176
     1
290
     0
176
     1
290
     0
176
     1
290
     0
176
     1
 90
       50
176
     1
 40
0.0
176
     1
 40
1.0
176
     1
 90
        0
176
     1
 62
   178
420
        0
176
     1
 90
       50
176
     1
 90
        3
176
     1
 62
     5
420
      255
176
     1
290
     0
176
     1
 90
       50
176
     1
 90
       50
176
     1
 90
       50
176
     1
290
     0
176
     1
 90
       50
176
     1
 62
   256
176
     0
 40
1.0
176
     0
 90
        2
176
     1
  1
strokes_ogs.tif
176
     1
290
     0
176
     1
 40
1.0
176
     1
 40
1.0
176
     1
  0
DICTIONARYVAR
  5
62
102
{ACAD_REACTORS
330
3D
102
}
330
3D
100
DictionaryVariables
280
     0
  1
1:1
  0
DICTIONARYVAR
  5
3E
102
{ACAD_REACTORS
330
3D
102
}
330
3D
100
DictionaryVariables
280
     0
  1
Standard
  0
DICTIONARYVAR
  5
6F
102
{ACAD_REACTORS
330
3D
102
}
330
3D
100
DictionaryVariables
280
     0
  1
0
  0
DICTIONARYVAR
  5
70
102
{ACAD_REACTORS
330
3D
102
}
330
3D
100
DictionaryVariables
280
     0
  1
0
  0
DICTIONARY
  5
53F
330
3C
100
AcDbDictionary
280
     1
281
     1
  3
ACAD_ROUNDTRIP_2008_TABLESTYLE_CELLSTYLEMAP
360
540
  0
CELLSTYLEMAP
  5
540
102
{ACAD_REACTORS
330
53F
102
}
330
53F
100
AcDbCellStyleMap
 90
        3
300
CELLSTYLE
  1
TABLEFORMAT_BEGIN
 90
        5
170
     1
 91
        0
 92
    32768
 62
   257
 93
        1
300
CONTENTFORMAT
  1
CONTENTFORMAT_BEGIN
 90
        0
 91
        0
 92
      512
 93
        0
300

 40
0.0
140
1.0
 94
        5
 62
     0
340
11
144
6.0
309
CONTENTFORMAT_END
171
     1
301
MARGIN
  1
CELLMARGIN_BEGIN
 40
1.5
 40
1.5
 40
1.5
 40
1.5
 40
0.18
 40
0.18
309
CELLMARGIN_END
 94
        6
 95
        1
302
GRIDFORMAT
  1
GRIDFORMAT_BEGIN
 90
        0
 91
        1
 62
     0
 92
       -2
340
0
 93
        0
 40
0.045
309
GRIDFORMAT_END
 95
        2
302
GRIDFORMAT
  1
GRIDFORMAT_BEGIN
 90
        0
 91
        1
 62
     0
 92
       -2
340
0
 93
        0
 40
0.045
309
GRIDFORMAT_END
 95
        4
302
GRIDFORMAT
  1
GRIDFORMAT_BEGIN
 90
        0
 91
        1
 62
     0
 92
       -2
340
0
 93
        0
 40
0.045
309
GRIDFORMAT_END
 95
        8
302
GRIDFORMAT
  1
GRIDFORMAT_BEGIN
 90
        0
 91
        1
 62
     0
 92
       -2
340
0
 93
        0
 40
0.045
309
GRIDFORMAT_END
 95
       16
302
GRIDFORMAT
  1
GRIDFORMAT_BEGIN
 90
        0
 91
        1
 62
     0
 92
       -2
340
0
 93
        0
 40
0.045
309
GRIDFORMAT_END
 95
       32
302
GRIDFORMAT
  1
GRIDFORMAT_BEGIN
 90
        0
 91
        1
 62
     0
 92
       -2
340
0
 93
        0
 40
0.045
309
GRIDFORMAT_END
309
TABLEFORMAT_END
  1
CELLSTYLE_BEGIN
 90
        1
 91
        1
300
_TITLE
309
CELLSTYLE_END
300
CELLSTYLE
  1
TABLEFORMAT_BEGIN
 90
        5
170
     1
 91
        0
 92
        0
 62
   257
 93
        1
300
CONTENTFORMAT
  1
CONTENTFORMAT_BEGIN
 90
        0
 91
        0
 92
      512
 93
        0
300

 40
0.0
140
1.0
 94
        5
 62
     0
340
11
144
4.5
309
CONTENTFORMAT_END
171
     1
301
MARGIN
  1
CELLMARGIN_BEGIN
 40
1.5
 40
1.5
 40
1.5
 40
1.5
 40
0.18
 40
0.18
309
CELLMARGIN_END
 94
        6
 95
        1
302
GRIDFORMAT
  1
GRIDFORMAT_BEGIN
 90
        0
 91
        1
 62
     0
 92
       -2
340
0
 93
        0
 40
0.045
309
GRIDFORMAT_END
 95
        2
302
GRIDFORMAT
  1
GRIDFORMAT_BEGIN
 90
        0
 91
        1
 62
     0
 92
       -2
340
0
 93
        0
 40
0.045
309
GRIDFORMAT_END
 95
        4
302
GRIDFORMAT
  1
GRIDFORMAT_BEGIN
 90
        0
 91
        1
 62
     0
 92
       -2
340
0
 93
        0
 40
0.045
309
GRIDFORMAT_END
 95
        8
302
GRIDFORMAT
  1
GRIDFORMAT_BEGIN
 90
        0
 91
        1
 62
     0
 92
       -2
340
0
 93
        0
 40
0.045
309
GRIDFORMAT_END
 95
       16
302
GRIDFORMAT
  1
GRIDFORMAT_BEGIN
 90
        0
 91
        1
 62
     0
 92
       -2
340
0
 93
        0
 40
0.045
309
GRIDFORMAT_END
 95
       32
302
GRIDFORMAT
  1
GRIDFORMAT_BEGIN
 90
        0
 91
        1
 62
     0
 92
       -2
340
0
 93
        0
 40
0.045
309
GRIDFORMAT_END
309
TABLEFORMAT_END
  1
CELLSTYLE_BEGIN
 90
        2
 91
        1
300
_HEADER
309
CELLSTYLE_END
300
CELLSTYLE
  1
TABLEFORMAT_BEGIN
 90
        5
170
     1
 91
        0
 92
        0
 62
   257
 93
        1
300
CONTENTFORMAT
  1
CONTENTFORMAT_BEGIN
 90
        0
 91
        0
 92
      512
 93
        0
300

 40
0.0
140
1.0
 94
        2
 62
     0
340
11
144
4.5
309
CONTENTFORMAT_END
171
     1
301
MARGIN
  1
CELLMARGIN_BEGIN
 40
1.5
 40
1.5
 40
1.5
 40
1.5
 40
0.18
 40
0.18
309
CELLMARGIN_END
 94
        6
 95
        1
302
GRIDFORMAT
  1
GRIDFORMAT_BEGIN
 90
        0
 91
        1
 62
     0
 92
       -2
340
0
 93
        0
 40
0.045
309
GRIDFORMAT_END
 95
        2
302
GRIDFORMAT
  1
GRIDFORMAT_BEGIN
 90
        0
 91
        1
 62
     0
 92
       -2
340
0
 93
        0
 40
0.045
309
GRIDFORMAT_END
 95
        4
302
GRIDFORMAT
  1
GRIDFORMAT_BEGIN
 90
        0
 91
        1
 62
     0
 92
       -2
340
0
 93
        0
 40
0.045
309
GRIDFORMAT_END
 95
        8
302
GRIDFORMAT
  1
GRIDFORMAT_BEGIN
 90
        0
 91
        1
 62
     0
 92
       -2
340
0
 93
        0
 40
0.045
309
GRIDFORMAT_END
 95
       16
302
GRIDFORMAT
  1
GRIDFORMAT_BEGIN
 90
        0
 91
        1
 62
     0
 92
       -2
340
0
 93
        0
 40
0.045
309
GRIDFORMAT_END
 95
       32
302
GRIDFORMAT
  1
GRIDFORMAT_BEGIN
 90
        0
 91
        1
 62
     0
 92
       -2
340
0
 93
        0
 40
0.045
309
GRIDFORMAT_END
309
TABLEFORMAT_END
  1
CELLSTYLE_BEGIN
 90
        3
 91
        2
300
_DATA
309
CELLSTYLE_END
  0
ENDSEC
  0
EOF
